<?xml version="1.0" standalone="no"?>
<!DOCTYPE svg PUBLIC "-//W3C//DTD SVG 20010904//EN"
 "http://www.w3.org/TR/2001/REC-SVG-20010904/DTD/svg10.dtd">
<svg version="1.0" xmlns="http://www.w3.org/2000/svg"
 width="450.000000pt" height="444.000000pt" viewBox="0 0 450.000000 444.000000"
 preserveAspectRatio="xMidYMid meet">
<metadata>
Created by potrace 1.10, written by Peter Selinger 2001-2011
</metadata>
<g transform="translate(0.000000,444.000000) scale(0.100000,-0.100000)"
fill="#ffffff" stroke="none">
<path d="M0 4430 c0 -6 27 -10 60 -10 70 0 104 -13 119 -47 7 -15 10 -75 8
-160 -2 -128 -4 -136 -26 -154 -18 -15 -39 -19 -92 -19 -63 0 -69 -2 -69 -21
0 -20 3 -21 83 -14 45 5 89 7 97 6 33 -5 1489 -2 1980 3 289 3 536 5 550 4 28
-1 65 -1 95 1 11 0 85 -1 165 -4 80 -3 223 -5 319 -6 117 0 183 -4 200 -13 14
-7 40 -12 56 -11 17 1 38 -5 47 -13 15 -13 18 -13 18 -1 0 12 2 12 9 0 5 -8
16 -11 24 -8 11 4 17 -1 19 -20 3 -25 7 -26 63 -28 38 -2 51 0 35 5 -23 6 -23
7 -5 12 11 3 3 3 -17 1 -33 -4 -39 -1 -47 19 -10 25 -5 42 10 32 5 -3 7 -10 4
-15 -4 -5 3 -9 14 -9 12 0 21 4 21 9 0 13 199 5 215 -9 8 -7 20 -10 27 -7 7 2
23 0 36 -4 18 -7 22 -5 22 12 0 17 2 18 13 7 22 -22 28 -48 12 -48 -16 0 -20
-16 -6 -24 10 -6 24 19 25 44 1 22 28 48 34 32 5 -15 32 -16 32 -1 0 7 9 9 28
3 15 -4 44 -6 66 -5 29 1 37 -2 33 -12 -3 -8 0 -20 6 -26 8 -8 7 -11 -6 -11
-9 0 -17 -7 -17 -15 0 -17 32 -19 65 -5 16 7 17 9 3 9 -9 1 -20 6 -23 12 -4 6
0 9 11 7 13 -2 20 4 22 20 4 26 22 25 37 -4 6 -10 16 -20 23 -21 16 -4 16 14
0 19 -14 5 71 58 91 58 10 0 12 48 9 220 l-3 220 -2142 0 c-1403 0 -2144 -4
-2148 -10 -4 -7 -13 -7 -25 0 -25 13 -180 13 -180 0z m404 -157 c11 -82 21
-167 24 -190 l4 -43 -51 0 -51 0 0 35 c0 24 -5 35 -15 35 -10 0 -15 -11 -15
-35 l0 -35 -56 0 -56 0 6 33 c3 17 12 88 21 157 8 69 17 140 20 158 l6 32 72
0 72 0 19 -147z m191 87 c8 -73 25 -69 25 6 l0 54 70 0 70 0 0 -180 c0 -99 1
-183 3 -187 1 -5 -19 -9 -45 -11 l-48 -3 -1 83 -2 83 -9 -60 c-17 -108 -15
-105 -53 -105 l-34 0 -8 73 -8 72 -5 -70 -5 -70 -45 0 -45 0 -3 188 -2 187 69
0 69 0 7 -60z m311 -2 l19 -63 3 63 3 62 44 0 45 0 0 -191 0 -190 -47 3 -47 3
-18 59 c-25 81 -31 82 -26 6 l3 -65 -42 -3 -43 -3 0 190 0 191 44 0 43 0 19
-62z m248 -15 c-3 -43 -7 -106 -10 -140 l-6 -63 -38 0 -38 0 -6 108 c-4 59 -8
122 -11 140 l-4 32 59 0 58 0 -4 -77z m129 -20 c-2 -54 -6 -117 -9 -140 -5
-42 -6 -43 -45 -43 -24 0 -39 5 -40 13 -1 6 -4 69 -7 140 l-7 127 56 0 56 0
-4 -97z m125 -15 c-3 -62 -7 -125 -7 -140 -1 -26 -4 -28 -40 -28 l-39 0 -6 73
c-3 39 -7 102 -10 140 l-4 67 57 0 56 0 -7 -112z m128 20 c-3 -50 -6 -113 -6
-140 l0 -48 -45 0 -45 0 0 58 c0 31 -3 94 -7 140 l-6 82 58 0 58 0 -7 -92z
m129 35 c-3 -32 -7 -94 -9 -138 l-3 -80 -40 -3 -40 -3 -6 83 c-4 46 -7 109 -7
141 l0 57 55 0 55 0 -5 -57z m128 -40 c-2 -54 -6 -117 -9 -140 -5 -42 -6 -43
-45 -43 -34 0 -39 3 -40 23 0 12 -4 75 -7 140 l-7 117 56 0 56 0 -4 -97z m130
40 c-2 -32 -6 -95 -9 -140 l-6 -83 -38 0 -38 0 -6 73 c-3 39 -7 102 -10 140
l-4 67 57 0 58 0 -4 -57z m123 -20 c-3 -42 -6 -105 -6 -140 l0 -63 -45 0 -45
0 0 63 c0 35 -3 98 -6 140 l-7 77 58 0 58 0 -7 -77z m127 0 c-2 -43 -6 -106
-9 -140 l-6 -63 -37 0 -38 0 -7 77 c-3 42 -6 105 -6 140 l0 63 53 0 54 0 -4
-77z m125 -35 c-3 -62 -7 -125 -7 -140 -1 -26 -4 -28 -41 -28 -48 0 -48 0 -52
163 l-3 117 55 0 55 0 -7 -112z m132 55 c0 -32 -3 -95 -7 -140 l-6 -83 -41 0
-41 0 -3 113 c-2 61 -5 124 -8 140 -6 27 -5 27 50 27 l56 0 0 -57z m126 -35
c-3 -50 -6 -113 -6 -140 l0 -48 -45 0 -45 0 0 58 c0 31 -3 94 -7 140 l-6 82
58 0 58 0 -7 -92z m128 25 c-3 -38 -7 -101 -10 -140 l-6 -73 -37 0 -38 0 -7
61 c-3 34 -6 97 -6 140 l0 79 54 0 54 0 -4 -67z m123 -30 c-4 -54 -7 -117 -7
-140 l0 -43 -40 0 c-36 0 -39 2 -44 33 -3 17 -7 80 -9 140 l-4 107 55 0 55 0
-6 -97z m130 -10 c-4 -58 -7 -121 -7 -140 0 -33 -1 -33 -45 -33 l-45 0 0 109
c0 60 -3 123 -6 140 l-6 31 57 0 58 0 -6 -107z m130 40 c-4 -38 -7 -101 -7
-140 l0 -73 -45 0 -45 0 0 58 c0 31 -3 94 -7 140 l-6 82 58 0 58 0 -6 -67z
m127 0 c-3 -38 -7 -101 -10 -140 l-6 -73 -37 0 -38 0 -6 83 c-4 45 -7 108 -7
140 l0 57 54 0 54 0 -4 -67z m123 -30 c-4 -54 -7 -117 -7 -140 l0 -43 -39 0
c-39 0 -40 1 -45 43 -3 23 -7 86 -9 140 l-3 97 55 0 54 0 -6 -97z m133 55 c0
-24 -3 -87 -7 -140 l-6 -98 -38 0 -38 0 -5 53 c-3 28 -7 91 -10 140 l-4 87 54
0 54 0 0 -42z m126 -35 c-3 -42 -6 -105 -6 -140 l0 -63 -45 0 -45 0 0 58 c0
31 -3 94 -7 140 l-6 82 58 0 58 0 -7 -77z m128 0 c-3 -43 -7 -106 -10 -140
l-6 -63 -37 0 -38 0 -7 92 c-3 50 -6 113 -6 140 l0 48 54 0 54 0 -4 -77z m124
-45 c-3 -68 -7 -131 -7 -140 -1 -14 -10 -18 -41 -18 -35 0 -40 3 -41 23 0 12
-4 75 -7 140 l-7 117 55 0 55 0 -7 -122z m131 20 c-4 -57 -7 -120 -8 -140 -1
-37 -2 -38 -40 -38 l-39 0 -6 73 c-3 39 -7 102 -10 140 l-4 67 57 0 56 0 -6
-102z m127 10 c-3 -50 -6 -113 -6 -140 l0 -48 -45 0 -45 0 0 73 c0 39 -3 102
-7 140 l-6 67 58 0 58 0 -7 -92z m127 -15 c-7 -172 -7 -173 -53 -173 l-40 0 0
48 c0 27 -3 90 -6 140 l-7 92 55 0 56 0 -5 -107z m130 -10 c-6 -165 -5 -163
-53 -163 l-40 0 0 48 c0 27 -3 90 -6 140 l-7 92 55 0 55 0 -4 -117z m130 60
c-2 -32 -6 -95 -9 -140 l-6 -83 -38 0 -38 0 -6 73 c-3 39 -7 102 -10 140 l-4
67 57 0 58 0 -4 -57z m-3323 -283 l0 -40 -50 0 -50 0 0 40 0 40 50 0 50 0 0
-40z m130 0 l0 -40 -50 0 -50 0 0 40 0 40 50 0 50 0 0 -40z m130 0 l0 -40 -50
0 -50 0 0 40 0 40 50 0 50 0 0 -40z m120 0 l0 -40 -45 0 -45 0 0 40 0 40 45 0
45 0 0 -40z m130 -1 l0 -40 -47 3 c-48 3 -48 3 -51 41 l-3 37 50 0 51 0 0 -41z
m130 0 l0 -40 -47 3 c-48 3 -48 3 -51 41 l-3 37 50 0 51 0 0 -41z m130 1 l0
-40 -50 0 -50 0 0 40 0 40 50 0 50 0 0 -40z m120 0 l0 -40 -45 0 -45 0 0 40 0
40 45 0 45 0 0 -40z m130 0 l0 -40 -50 0 -50 0 0 40 0 40 50 0 50 0 0 -40z
m128 3 c-3 -38 -3 -38 -48 -38 -45 0 -45 0 -48 38 l-3 37 51 0 51 0 -3 -37z
m132 -3 l0 -40 -50 0 -50 0 0 40 0 40 50 0 50 0 0 -40z m120 0 l0 -40 -45 0
-45 0 0 40 0 40 45 0 45 0 0 -40z m130 0 l0 -40 -50 0 -50 0 0 40 0 40 50 0
50 0 0 -40z m124 0 c0 -35 -1 -35 -47 -38 l-47 -3 0 41 0 41 47 -3 c46 -3 47
-3 47 -38z m134 3 c-3 -38 -3 -38 -50 -41 l-48 -3 0 40 0 41 51 0 50 0 -3 -37z
m122 -3 l0 -40 -45 0 -45 0 0 40 0 40 45 0 45 0 0 -40z m130 0 l0 -40 -50 0
-50 0 0 40 0 40 50 0 50 0 0 -40z m128 3 c-3 -38 -3 -38 -48 -38 -45 0 -45 0
-48 38 l-3 37 51 0 51 0 -3 -37z m130 0 c-3 -38 -3 -38 -50 -41 l-48 -3 0 40
0 41 51 0 50 0 -3 -37z m122 -3 l0 -40 -45 0 -45 0 0 40 0 40 45 0 45 0 0 -40z
m130 -1 l0 -40 -47 3 c-48 3 -48 3 -51 41 l-3 37 50 0 51 0 0 -41z m128 4 c-3
-38 -3 -38 -48 -38 -45 0 -45 0 -48 38 l-3 37 51 0 51 0 -3 -37z m130 0 c-3
-38 -3 -38 -50 -41 l-48 -3 0 40 0 41 51 0 50 0 -3 -37z m122 -3 l0 -40 -45 0
-45 0 0 40 0 40 45 0 45 0 0 -40z m130 -1 l0 -40 -47 3 c-48 3 -48 3 -51 41
l-3 37 50 0 51 0 0 -41z m128 4 c-3 -38 -3 -38 -47 -38 -44 0 -45 1 -44 33 1
17 2 34 2 37 1 3 22 5 47 5 l45 0 -3 -37z m132 -3 l0 -40 -50 0 -50 0 0 40 0
40 50 0 50 0 0 -40z m-473 -107 c-4 -3 -10 -3 -14 0 -3 4 0 7 7 7 7 0 10 -3 7
-7z m320 -9 c-3 -3 -12 -4 -19 -1 -8 3 -5 6 6 6 11 1 17 -2 13 -5z"/>
<path d="M306 4227 c-5 -21 -6 -41 -2 -44 12 -12 17 5 14 43 l-4 39 -8 -38z"/>
<path d="M58 4234 c-3 -109 0 -132 16 -117 10 10 7 221 -3 228 -6 3 -11 -42
-13 -111z"/>
<path d="M3538 3963 c7 -3 16 -2 19 1 4 3 -2 6 -13 5 -11 0 -14 -3 -6 -6z"/>
<path d="M4420 3950 c0 -5 5 -10 11 -10 5 0 7 5 4 10 -3 6 -8 10 -11 10 -2 0
-4 -4 -4 -10z"/>
<path d="M3543 3943 c4 -3 10 -3 14 0 3 4 0 7 -7 7 -7 0 -10 -3 -7 -7z"/>
<path d="M3633 3943 c4 -3 10 -3 14 0 3 4 0 7 -7 7 -7 0 -10 -3 -7 -7z"/>
<path d="M4226 3941 c-4 -7 -5 -15 -2 -18 9 -9 19 4 14 18 -4 11 -6 11 -12 0z"/>
<path d="M3790 3930 c0 -5 5 -10 10 -10 6 0 10 5 10 10 0 6 -4 10 -10 10 -5 0
-10 -4 -10 -10z"/>
<path d="M3820 3928 c0 -4 9 -8 19 -8 11 0 26 -3 35 -6 10 -4 16 -1 16 8 0 9
-12 14 -35 14 -19 0 -35 -4 -35 -8z"/>
<path d="M3993 3928 c2 -7 10 -13 18 -13 8 0 17 -4 21 -10 5 -6 8 -5 8 2 0 7
-9 17 -19 23 -26 13 -34 13 -28 -2z"/>
<path d="M4447 3933 c-11 -3 -16 -10 -13 -20 3 -8 6 -17 6 -19 0 -2 7 -4 15
-4 8 0 15 5 15 10 0 6 7 10 16 10 14 0 14 2 0 15 -8 8 -16 14 -18 14 -2 -1
-11 -3 -21 -6z"/>
<path d="M3630 3910 c0 -7 3 -10 7 -7 3 4 3 10 0 14 -4 3 -7 0 -7 -7z"/>
<path d="M3690 3892 c0 -7 4 -12 10 -12 5 0 16 -12 24 -27 9 -17 15 -22 16
-12 0 8 -11 26 -25 39 -14 13 -25 18 -25 12z"/>
<path d="M3798 3893 c7 -3 16 -2 19 1 4 3 -2 6 -13 5 -11 0 -14 -3 -6 -6z"/>
<path d="M4373 3873 c-3 -10 -8 -21 -10 -25 -2 -5 0 -8 5 -8 5 0 12 11 14 25
6 29 0 33 -9 8z"/>
<path d="M4415 3870 c3 -5 8 -10 11 -10 2 0 4 5 4 10 0 6 -5 10 -11 10 -5 0
-7 -4 -4 -10z"/>
<path d="M3813 3863 c4 -3 10 -3 14 0 3 4 0 7 -7 7 -7 0 -10 -3 -7 -7z"/>
<path d="M3860 3860 c0 -7 3 -10 7 -7 3 4 3 10 0 14 -4 3 -7 0 -7 -7z"/>
<path d="M3953 3863 c-15 -5 -17 -23 -4 -23 5 0 11 7 15 15 3 8 4 15 3 14 -1
0 -8 -3 -14 -6z"/>
<path d="M4060 3854 c0 -8 5 -12 10 -9 6 4 8 11 5 16 -9 14 -15 11 -15 -7z"/>
<path d="M4260 3856 c0 -10 28 -13 41 -5 10 6 7 9 -13 9 -16 0 -28 -2 -28 -4z"/>
<path d="M4450 3845 c0 -8 7 -15 16 -15 14 0 14 3 4 15 -7 8 -14 15 -16 15 -2
0 -4 -7 -4 -15z"/>
<path d="M3990 3840 c0 -5 5 -10 11 -10 5 0 7 5 4 10 -3 6 -8 10 -11 10 -2 0
-4 -4 -4 -10z"/>
<path d="M4415 3830 c4 -6 11 -8 16 -5 14 9 11 15 -7 15 -8 0 -12 -5 -9 -10z"/>
<path d="M3775 3790 c-3 -5 -2 -10 4 -10 5 0 13 5 16 10 3 6 2 10 -4 10 -5 0
-13 -4 -16 -10z"/>
<path d="M4098 3793 c6 -2 18 -2 25 0 6 3 1 5 -13 5 -14 0 -19 -2 -12 -5z"/>
<path d="M3687 3546 c-7 -18 -49 -21 -79 -5 -15 8 -19 8 -14 0 5 -8 -18 -10
-86 -5 -116 8 -300 8 -324 0 -11 -3 -57 -8 -103 -11 -46 -3 -94 -11 -105 -18
-28 -16 -190 -21 -473 -17 -29 1 -82 -6 -119 -16 -39 -10 -82 -14 -104 -10
-22 3 -41 2 -45 -4 -3 -5 -15 -10 -26 -10 -10 0 -19 -5 -19 -11 0 -6 -6 -5
-13 3 -9 8 -32 13 -63 11 -27 -1 -58 -3 -69 -3 -11 -1 -29 -7 -40 -14 -29 -19
-157 -44 -255 -51 -111 -7 -128 -9 -240 -29 -52 -9 -116 -20 -141 -25 -48 -8
-123 -61 -86 -61 10 0 34 7 54 15 49 21 125 19 152 -2 11 -10 18 -23 13 -28
-18 -26 -120 -89 -147 -91 -82 -6 -150 -20 -255 -51 -63 -19 -129 -39 -147
-44 -17 -5 -55 -32 -84 -59 -29 -28 -61 -50 -71 -50 -41 0 -158 -100 -158
-135 0 -17 20 -24 40 -15 16 8 344 86 420 100 127 25 161 30 233 35 46 3 123
-1 187 -10 61 -9 129 -15 153 -15 47 1 102 -7 132 -20 11 -5 47 -11 80 -14 59
-6 110 -20 150 -43 11 -6 43 -14 70 -18 28 -4 55 -11 61 -16 5 -4 47 -10 91
-13 45 -2 86 -6 91 -10 5 -3 24 -1 43 5 19 5 68 11 110 13 72 2 76 1 88 -23 6
-14 15 -48 18 -76 3 -27 9 -54 13 -60 14 -19 18 -83 9 -126 -6 -23 -7 -49 -3
-58 4 -9 9 -40 10 -69 2 -30 7 -59 12 -65 11 -14 27 -85 24 -107 -1 -8 1 -22
5 -30 7 -18 9 -31 17 -137 5 -54 4 -83 -4 -88 -5 -3 -8 -10 -5 -14 2 -5 -1
-16 -8 -25 -11 -15 -23 -15 -162 -1 -231 23 -491 43 -815 64 -162 11 -383 26
-490 33 -184 12 -641 17 -1032 10 l-176 -3 0 -45 c0 -46 5 -53 26 -32 9 9 12
9 12 0 0 -15 76 -16 85 -2 4 6 16 8 28 4 12 -4 83 -7 157 -6 117 2 133 0 117
-12 -16 -13 -16 -14 8 -18 22 -5 25 -2 19 14 -6 19 0 19 148 14 232 -7 225 -7
206 -14 -10 -4 -71 -7 -136 -7 -111 0 -118 -1 -101 -16 11 -9 19 -20 19 -24 0
-5 -9 0 -21 11 -20 18 -21 18 -35 -1 -8 -10 -14 -13 -14 -7 0 7 -12 12 -26 12
-17 0 -23 -4 -18 -12 5 -9 2 -9 -9 1 -14 11 -17 11 -17 0 0 -10 -2 -11 -8 -2
-5 7 -22 10 -42 8 -22 -3 -30 -1 -21 4 8 5 9 11 3 15 -6 3 -14 1 -17 -5 -4 -5
-13 -8 -21 -5 -8 3 -14 0 -15 -7 0 -7 -4 -3 -9 8 -7 17 -9 17 -9 3 -1 -18 -4
-19 -53 -22 -15 -1 -30 -5 -34 -9 -4 -4 32 -7 79 -7 85 0 86 0 78 -22 -4 -12
-14 -24 -22 -26 -12 -3 -12 -2 0 6 17 12 4 20 -33 20 -19 0 -24 -3 -15 -9 11
-7 12 -12 2 -27 -8 -13 -8 -23 -1 -30 6 -6 6 -12 0 -16 -5 -3 -17 5 -26 19
-16 24 -16 25 6 26 22 1 22 1 -2 9 -14 4 -19 8 -12 9 23 2 12 21 -13 21 -14 0
-25 -5 -25 -11 0 -5 5 -7 10 -4 6 3 10 1 10 -5 0 -13 -43 -31 -50 -20 -3 4
-14 12 -25 18 -19 11 -18 11 8 12 15 0 27 5 27 10 0 6 -8 10 -17 8 -10 -2 -17
3 -16 10 2 6 -4 12 -12 12 -8 0 -15 -7 -15 -15 0 -8 -3 -14 -8 -12 -4 1 -8 -3
-10 -8 -2 -6 -13 -14 -25 -19 -21 -9 -21 -9 -3 -14 11 -2 25 3 31 11 10 14 13
13 23 -4 10 -16 9 -19 -3 -19 -8 0 -15 -4 -15 -10 0 -15 16 -12 30 5 10 12 15
12 35 -1 13 -9 25 -11 27 -5 1 5 12 3 23 -6 16 -13 17 -15 3 -10 -12 4 -18 1
-18 -8 0 -22 60 -19 76 2 7 10 16 14 20 10 5 -4 2 -12 -6 -17 -13 -8 -12 -10
3 -10 10 0 15 -4 12 -10 -4 -6 5 -10 19 -10 14 0 26 4 26 10 0 5 -7 7 -15 4
-8 -4 -15 -1 -15 5 0 15 43 14 58 -1 19 -19 14 -24 -30 -26 -24 -2 -48 -9 -54
-18 -7 -8 -19 -12 -28 -8 -12 5 -15 2 -10 -10 9 -22 -9 -20 -26 4 -10 14 -16
16 -22 7 -5 -9 -14 -8 -37 6 -33 20 -41 21 -41 7 0 -5 10 -10 23 -11 20 -1 21
-1 2 -7 -30 -10 -29 -37 2 -51 21 -10 28 -9 34 1 6 9 2 14 -11 16 -34 6 -22
22 14 19 28 -2 33 -5 25 -19 -7 -13 -3 -18 21 -23 18 -4 36 -2 44 4 7 6 16 8
20 4 3 -4 15 -8 25 -10 15 -2 18 2 14 18 -4 15 -12 20 -29 16 -12 -2 -29 0
-36 4 -8 6 0 9 24 9 29 0 36 3 32 15 -4 8 -1 15 5 15 6 0 11 -7 11 -14 0 -12
14 -15 60 -15 34 0 58 5 54 10 -6 10 32 7 42 -4 4 -4 15 -7 25 -7 12 0 17 -6
14 -20 -3 -18 1 -19 43 -16 26 3 55 8 65 11 10 4 17 3 17 -4 0 -7 8 -8 25 -1
14 5 25 6 25 2 0 -5 26 -9 57 -10 32 -1 59 -6 61 -12 2 -6 11 -6 24 1 14 7 17
14 9 18 -6 4 17 5 51 3 35 -3 65 -7 68 -11 10 -12 62 -13 55 -1 -5 8 0 7 13
-1 21 -13 52 -6 52 12 0 6 -7 9 -15 6 -8 -4 -17 -1 -21 4 -4 7 5 9 22 7 21 -2
30 -9 32 -25 3 -19 8 -21 35 -16 18 3 34 10 35 15 6 14 42 9 42 -7 0 -8 7 -15
16 -15 8 0 12 -4 9 -10 -3 -5 4 -10 16 -10 17 0 19 3 10 13 -8 10 -7 14 4 14
8 0 15 -5 15 -10 0 -6 5 -5 13 1 6 5 37 12 67 15 30 2 45 2 33 0 -29 -6 -30
-24 -2 -20 14 1 23 -4 24 -15 2 -10 0 -18 -3 -19 -46 -5 -110 -4 -106 2 3 5
-2 6 -11 3 -9 -4 -14 -12 -12 -18 2 -7 29 -10 73 -9 48 2 64 0 54 -7 -13 -9
-13 -10 0 -11 8 0 28 -2 44 -3 15 -1 30 4 33 11 3 7 11 13 19 13 8 0 11 -6 7
-16 -5 -14 -2 -16 23 -10 44 11 128 14 140 5 6 -5 38 -10 72 -11 34 -2 62 -6
62 -10 0 -11 131 -2 139 10 3 5 21 13 40 17 30 6 33 5 27 -11 -6 -18 -5 -18 8
-1 14 18 82 25 71 7 -3 -6 3 -10 14 -10 12 0 21 -4 21 -10 0 -16 -37 -12 -44
5 -8 21 -28 19 -24 -2 3 -16 -9 -19 -82 -25 -132 -10 -408 -9 -415 1 -3 5 5
12 17 14 21 4 20 4 -3 6 -15 0 -29 -5 -32 -13 -5 -12 -39 -14 -179 -13 -95 0
-175 4 -178 8 -3 4 -23 4 -45 -1 -22 -5 -49 -7 -60 -4 -12 3 -76 6 -143 7
-108 2 -122 0 -122 -15 0 -9 6 -18 13 -21 24 -9 -5 -21 -51 -22 -82 -2 -90 -4
-95 -25 -3 -11 -13 -20 -22 -20 -9 0 -14 4 -11 9 6 9 -68 21 -149 24 -40 2
-54 -2 -71 -20 -24 -26 -39 -30 -30 -8 3 9 0 15 -8 15 -8 0 -16 -7 -19 -14 -5
-12 -13 -13 -36 -6 -21 6 -31 5 -31 -2 0 -5 -7 -8 -15 -5 -8 4 -17 2 -20 -3
-4 -6 -11 -10 -16 -10 -6 0 -7 5 -4 10 3 6 -3 10 -14 10 -11 0 -23 5 -27 12
-5 7 -10 4 -15 -10 -8 -20 -15 -22 -76 -20 l-68 1 64 6 c40 4 65 11 67 19 1 7
0 8 -3 2 -6 -14 -53 -13 -53 1 0 8 -4 8 -14 -1 -8 -6 -25 -10 -38 -8 -13 2
-29 -4 -36 -12 -12 -13 -13 -13 -8 2 6 21 -1 22 -34 3 -28 -16 -66 -21 -41 -6
11 7 9 11 -8 20 -12 7 -21 8 -21 2 0 -5 -3 -16 -6 -25 -4 -11 -1 -16 11 -16 9
0 13 -5 10 -10 -4 -6 -11 -8 -16 -5 -5 4 -9 0 -9 -7 0 -12 64 -17 133 -10 25
3 21 20 -5 25 -17 3 -14 5 10 6 22 1 32 -3 32 -14 0 -11 12 -15 51 -15 l51 0
-23 -19 c-18 -14 -29 -17 -42 -10 -9 6 -37 8 -60 5 -23 -2 -48 -5 -54 -5 -7
-1 -13 -7 -13 -15 0 -7 -9 -16 -20 -19 -11 -3 -20 -1 -20 3 0 4 -9 6 -20 3
-20 -5 -20 -14 -20 -644 l0 -639 1849 0 1849 0 12 35 c6 19 16 35 22 35 6 0 7
7 4 16 -6 16 14 89 43 154 11 25 16 74 17 175 2 125 9 173 34 240 23 63 25 83
15 140 -5 33 -14 66 -19 74 -10 16 20 45 37 34 5 -3 27 0 48 7 55 18 71 3 63
-59 -3 -25 -10 -85 -14 -133 -4 -48 -13 -95 -20 -103 -9 -11 -10 -28 -5 -58 5
-23 9 -71 9 -107 1 -36 5 -71 9 -77 5 -9 3 -13 -7 -13 -9 0 -16 -8 -16 -18 0
-10 -4 -22 -9 -27 -6 -6 -11 -22 -13 -37 -2 -15 -11 -35 -19 -45 -24 -29 -42
-70 -36 -85 6 -18 -24 -68 -41 -68 -9 0 -11 -7 -7 -20 3 -10 1 -28 -5 -40 -11
-20 -10 -20 345 -20 l355 0 0 433 0 432 -53 13 c-29 6 -60 12 -69 12 -9 0 -20
4 -23 10 -6 10 99 6 128 -5 15 -6 17 -1 17 44 0 44 -11 67 -22 43 -1 -4 -19
-4 -38 -1 l-35 6 32 2 c66 2 61 -22 63 371 0 335 -1 359 -17 363 -10 3 -135
17 -278 32 -272 28 -318 35 -298 42 7 2 15 20 19 39 3 19 10 34 15 34 15 0 10
42 -8 62 -15 17 -15 18 0 18 24 0 21 15 -5 33 -18 13 -20 18 -9 25 11 8 11 10
0 14 -12 4 -12 7 0 21 11 13 11 20 1 32 -6 8 -9 19 -6 24 4 5 -1 28 -10 50
-15 37 -15 42 2 70 14 24 16 35 6 55 -6 13 -9 39 -6 58 9 59 6 92 -9 122 -9
16 -13 35 -10 42 3 8 -1 16 -8 19 -10 4 -15 29 -16 84 -3 73 -1 80 21 94 13 9
33 13 45 10 38 -10 113 7 118 27 3 10 16 21 31 25 34 8 72 39 88 71 19 36 18
44 -6 44 -11 0 -20 4 -20 9 0 12 26 21 60 21 16 0 30 7 34 15 3 8 10 15 16 15
6 0 18 7 26 15 13 12 12 15 -5 24 -27 15 -33 59 -9 67 19 6 19 6 -1 21 -27 18
-27 43 -1 50 11 3 17 9 14 14 -3 5 -1 24 5 43 6 25 6 37 -2 40 -9 4 -9 8 -1
11 29 14 49 36 37 41 -18 8 -16 25 1 18 11 -4 13 0 9 15 -3 12 -1 21 6 21 5 0
8 7 5 15 -4 8 -1 15 5 15 6 0 11 -4 11 -10 0 -5 5 -10 10 -10 21 0 9 30 -12
31 -22 0 -22 1 -3 9 20 8 20 8 0 15 -11 5 -35 14 -52 21 -24 9 -33 10 -33 2 0
-7 -7 -3 -15 8 -11 15 -17 16 -23 6 -6 -9 -15 -10 -33 -3 l-24 10 25 1 c19 0
22 2 11 9 -9 6 -22 6 -32 0 -27 -14 -49 -11 -43 6 4 9 0 16 -7 17 -8 0 -18 2
-24 2 -5 1 -15 4 -20 8 -6 3 -45 5 -87 3 -63 -3 -81 0 -100 14 -19 16 -20 21
-9 35 12 14 10 16 -12 16 -14 0 -29 -4 -32 -10 -8 -13 -52 -13 -60 0 -3 5 -12
7 -20 3 -9 -3 -15 1 -15 11 0 9 -4 16 -9 16 -5 0 -16 3 -24 6 -8 3 -17 -2 -20
-10z m30 -13 c-4 -3 -10 -3 -14 0 -3 4 0 7 7 7 7 0 10 -3 7 -7z m600 -170 c-4
-3 -7 0 -7 7 0 7 3 10 7 7 3 -4 3 -10 0 -14z m-3417 -398 c0 -2 -9 -9 -20 -15
-22 -12 -44 -5 -35 11 6 9 55 13 55 4z m2205 -105 c33 0 92 2 130 4 96 5 106
2 98 -35 -6 -32 11 -39 47 -17 14 9 25 9 42 1 13 -6 31 -14 40 -16 9 -3 18
-16 20 -29 2 -17 9 -22 25 -21 16 2 23 -4 25 -20 2 -14 11 -23 26 -25 14 -2
22 -10 22 -24 0 -15 4 -18 18 -13 49 19 68 17 86 -10 9 -14 15 -34 12 -43 -3
-9 -8 -31 -10 -48 -3 -16 -12 -43 -20 -60 -8 -16 -16 -42 -17 -59 -2 -16 -6
-34 -10 -40 -11 -15 -14 -79 -5 -93 4 -7 3 -18 -2 -25 -14 -18 -25 -120 -12
-112 6 4 3 -10 -6 -32 -27 -62 -28 -89 -5 -122 12 -16 21 -34 21 -41 0 -6 7
-18 15 -26 8 -9 15 -30 15 -49 0 -18 4 -35 9 -37 5 -1 11 -14 13 -28 4 -29 23
-29 -214 -5 -175 17 -428 41 -529 50 l-66 6 -15 62 c-27 118 -20 168 45 298
31 63 57 124 57 135 0 11 5 25 12 32 12 12 12 11 -27 142 -9 30 -24 63 -32 73
-9 9 -13 17 -8 17 4 0 2 7 -5 15 -6 8 -9 19 -5 25 3 5 -5 20 -18 32 -30 29
-40 73 -19 90 23 20 134 55 162 51 14 -2 52 -3 85 -3z m-2245 -924 c0 -11 -19
-15 -25 -6 -3 5 1 10 9 10 9 0 16 -2 16 -4z m99 -12 c2 -2 -14 -4 -37 -4 -22
0 -43 4 -46 9 -6 8 73 3 83 -5z m31 -4 c0 -5 -4 -10 -10 -10 -5 0 -10 5 -10
10 0 6 5 10 10 10 6 0 10 -4 10 -10z m40 0 c0 -5 -7 -7 -15 -4 -8 4 -15 8 -15
10 0 2 7 4 15 4 8 0 15 -4 15 -10z m-228 -22 c-6 -6 -15 -8 -19 -4 -4 4 -1 11
7 16 8 5 17 7 19 4 3 -2 -1 -10 -7 -16z m-105 -5 c-4 -3 -7 0 -7 7 0 7 3 10 7
7 3 -4 3 -10 0 -14z m-277 -48 c0 -14 -4 -25 -10 -25 -11 0 -14 33 -3 43 11
11 13 8 13 -18z m37 0 c-14 -15 -27 -10 -27 10 0 8 7 11 19 8 16 -4 17 -8 8
-18z m118 15 c3 -5 1 -10 -4 -10 -6 0 -11 5 -11 10 0 6 2 10 4 10 3 0 8 -4 11
-10z m-38 -6 c-3 -3 -12 -4 -19 -1 -8 3 -5 6 6 6 11 1 17 -2 13 -5z m170 -1
c-4 -3 -10 -3 -14 0 -3 4 0 7 7 7 7 0 10 -3 7 -7z m138 -3 c3 -5 -1 -10 -10
-10 -9 0 -13 5 -10 10 3 6 8 10 10 10 2 0 7 -4 10 -10z m-280 -21 c4 -6 13 -8
21 -5 7 3 16 0 20 -6 5 -8 -4 -9 -29 -5 -22 3 -37 2 -37 -4 0 -6 -5 -7 -12 -3
-9 6 -9 9 0 12 7 2 10 8 6 13 -3 5 2 9 10 9 8 0 18 -5 21 -11z m412 5 c-3 -3
-12 -4 -19 -1 -8 3 -5 6 6 6 11 1 17 -2 13 -5z m-517 -28 c0 -2 -11 -6 -25 -8
-14 -3 -25 -1 -25 3 0 5 11 9 25 9 14 0 25 -2 25 -4z m373 -6 c9 0 17 -4 17
-9 0 -9 -99 4 -109 15 -3 4 12 4 34 1 22 -4 48 -7 58 -7z m-326 -22 c-3 -8 -6
-5 -6 6 -1 11 2 17 5 13 3 -3 4 -12 1 -19z m220 15 c-4 -3 -10 -3 -14 0 -3 4
0 7 7 7 7 0 10 -3 7 -7z m198 1 c22 -9 0 -24 -35 -24 -24 1 -24 1 -6 15 23 17
20 17 41 9z m189 -19 c-4 -8 -8 -15 -10 -15 -2 0 -4 7 -4 15 0 8 4 15 10 15 5
0 7 -7 4 -15z m623 8 c-4 -3 -10 -3 -14 0 -3 4 0 7 7 7 7 0 10 -3 7 -7z m1203
-3 c0 -5 -4 -10 -10 -10 -5 0 -10 5 -10 10 0 6 5 10 10 10 6 0 10 -4 10 -10z
m-2167 -7 c-7 -2 -19 -2 -25 0 -7 3 -2 5 12 5 14 0 19 -2 13 -5z m-117 -32
c-4 -5 -13 -8 -21 -5 -11 5 -12 9 -2 19 13 15 33 3 23 -14z m-176 9 c0 -5 -6
-10 -14 -10 -8 0 -18 5 -21 10 -3 6 3 10 14 10 12 0 21 -4 21 -10z m80 -5 c0
-16 -9 -19 -34 -9 -20 8 -11 24 15 24 10 0 19 -7 19 -15z m50 5 c0 -5 -6 -10
-14 -10 -8 0 -18 5 -21 10 -3 6 3 10 14 10 12 0 21 -4 21 -10z m80 -6 c0 -8
-5 -12 -10 -9 -6 4 -8 11 -5 16 9 14 15 11 15 -7z m40 1 c0 -8 -4 -15 -10 -15
-5 0 -7 7 -4 15 4 8 8 15 10 15 2 0 4 -7 4 -15z m27 -12 c-4 -3 -7 0 -7 7 0 7
3 10 7 7 3 -4 3 -10 0 -14z m42 -9 c-9 -11 -8 -14 5 -14 10 0 14 -4 11 -10
-11 -18 54 -11 72 8 20 20 54 23 60 5 3 -7 -3 -9 -16 -6 -12 3 -27 -2 -36 -11
-9 -9 -28 -17 -43 -17 -15 -1 -37 -3 -50 -4 -12 -1 -25 2 -28 6 -3 5 2 9 11 9
15 0 15 1 1 16 -19 19 -20 31 -3 37 20 7 29 -4 16 -19z m491 22 c0 -3 -4 -8
-10 -11 -5 -3 -10 -1 -10 4 0 6 5 11 10 11 6 0 10 -2 10 -4z m17 -13 c-4 -3
-7 0 -7 7 0 7 3 10 7 7 3 -4 3 -10 0 -14z m70 0 c-4 -3 -10 -3 -14 0 -3 4 0 7
7 7 7 0 10 -3 7 -7z m-884 -10 c-7 -2 -19 -2 -25 0 -7 3 -2 5 12 5 14 0 19 -2
13 -5z m-33 -19 c0 -2 -12 -4 -26 -4 -14 0 -23 4 -20 9 6 8 46 4 46 -5z m407
9 c-4 -3 -10 -3 -14 0 -3 4 0 7 7 7 7 0 10 -3 7 -7z m210 -10 c-4 -3 -7 0 -7
7 0 7 3 10 7 7 3 -4 3 -10 0 -14z m1950 5 c18 -7 33 -16 33 -20 0 -16 -58 -7
-75 12 -21 24 -8 26 42 8z m-2657 -8 c0 -5 -5 -10 -11 -10 -5 0 -7 5 -4 10 3
6 8 10 11 10 2 0 4 -4 4 -10z m280 7 c0 -1 -10 -11 -22 -21 -17 -15 -20 -15
-15 -3 4 12 -2 17 -26 20 -24 3 -20 4 16 5 26 1 47 1 47 -1z m60 -6 c0 -5 12
-12 28 -14 22 -3 20 -4 -10 -6 -21 0 -38 3 -38 8 0 5 -8 12 -17 14 -11 3 -7 5
10 6 15 0 27 -3 27 -8z m287 -8 c-4 -3 -7 0 -7 7 0 7 3 10 7 7 3 -4 3 -10 0
-14z m56 10 c-7 -2 -19 -2 -25 0 -7 3 -2 5 12 5 14 0 19 -2 13 -5z m159 -10
c31 2 44 -1 38 -8 -4 -5 -31 -8 -58 -7 -40 3 -49 7 -45 19 4 9 8 11 12 4 4 -6
28 -10 53 -8z m2718 8 c0 -13 -25 -20 -50 -14 -16 4 -18 8 -8 14 17 11 58 11
58 0z m-2503 -8 c-4 -3 -10 -3 -14 0 -3 4 0 7 7 7 7 0 10 -3 7 -7z m-340 -9
c-3 -3 -12 -4 -19 -1 -8 3 -5 6 6 6 11 1 17 -2 13 -5z m550 0 c-3 -3 -12 -4
-19 -1 -8 3 -5 6 6 6 11 1 17 -2 13 -5z m270 -1 c-4 -3 -10 -3 -14 0 -3 4 0 7
7 7 7 0 10 -3 7 -7z m713 -7 c0 -11 -19 -15 -25 -6 -3 5 1 10 9 10 9 0 16 -2
16 -4z m-1757 -13 c-7 -2 -19 -2 -25 0 -7 3 -2 5 12 5 14 0 19 -2 13 -5z m34
0 c-4 -3 -10 -3 -14 0 -3 4 0 7 7 7 7 0 10 -3 7 -7z m940 -10 c-4 -3 -7 0 -7
7 0 7 3 10 7 7 3 -4 3 -10 0 -14z m130 10 c-4 -3 -10 -3 -14 0 -3 4 0 7 7 7 7
0 10 -3 7 -7z m150 -9 c-3 -3 -12 -4 -19 -1 -8 3 -5 6 6 6 11 1 17 -2 13 -5z
m-558 -40 c1 5 7 4 14 -2 6 -5 35 -13 62 -17 42 -7 46 -9 25 -15 -14 -4 -29
-5 -34 -2 -16 9 -76 9 -76 0 0 -4 -8 -8 -18 -8 -25 0 -29 57 -5 62 10 2 21 -3
25 -12 4 -8 7 -11 7 -6z m2354 -15 c-7 -7 -19 -9 -29 -5 -16 6 -16 8 2 21 22
16 45 2 27 -16z m-1576 14 c-4 -3 -10 -3 -14 0 -3 4 0 7 7 7 7 0 10 -3 7 -7z
m56 0 c-7 -2 -21 -2 -30 0 -10 3 -4 5 12 5 17 0 24 -2 18 -5z m187 -2 c0 -5 8
-12 18 -14 10 -3 6 -5 -10 -6 -19 -1 -28 4 -28 14 0 8 5 15 10 15 6 0 10 -4
10 -9z m-810 -11 c0 -5 -12 -10 -27 -9 -25 0 -26 1 -8 9 27 12 35 12 35 0z
m337 3 c-4 -3 -10 -3 -14 0 -3 4 0 7 7 7 7 0 10 -3 7 -7z m90 -10 c-4 -3 -10
-3 -14 0 -3 4 0 7 7 7 7 0 10 -3 7 -7z m288 -3 c-27 -12 -35 -12 -35 0 0 6 12
10 28 9 24 0 25 -1 7 -9z m-68 -7 c-4 -3 -10 -3 -14 0 -3 4 0 7 7 7 7 0 10 -3
7 -7z m-690 -10 c-4 -3 -10 -3 -14 0 -3 4 0 7 7 7 7 0 10 -3 7 -7z m843 -8 c0
-6 -11 -17 -25 -23 -30 -14 -221 -18 -253 -5 -17 7 0 9 63 10 66 1 91 5 103
17 20 19 112 20 112 1z m-563 -2 c-4 -3 -10 -3 -14 0 -3 4 0 7 7 7 7 0 10 -3
7 -7z m-460 -10 c-4 -3 -10 -3 -14 0 -3 4 0 7 7 7 7 0 10 -3 7 -7z m313 -14
c0 -6 -4 -7 -10 -4 -5 3 -10 11 -10 16 0 6 5 7 10 4 6 -3 10 -11 10 -16z m373
4 c-7 -2 -21 -2 -30 0 -10 3 -4 5 12 5 17 0 24 -2 18 -5z m707 -25 c0 -22 44
-58 69 -58 18 0 22 -3 12 -9 -26 -17 36 -87 70 -78 8 2 11 2 7 0 -5 -3 -4 -13
2 -22 7 -14 24 -19 72 -21 35 -1 78 -3 95 -4 25 -1 35 -7 44 -28 12 -28 33
-37 44 -18 4 6 11 8 16 5 5 -4 9 -2 9 4 0 5 -4 13 -10 16 -5 3 -10 1 -10 -4 0
-6 -9 -11 -20 -11 -11 0 -20 4 -20 9 0 11 25 21 55 21 13 0 25 5 27 12 2 6 12
9 21 5 22 -8 11 -35 -16 -40 -19 -3 -20 -4 -5 -11 11 -5 23 -2 33 8 11 10 33
16 63 15 26 0 41 -3 35 -6 -25 -9 -13 -23 15 -17 24 7 26 6 13 -9 -12 -15 -10
-17 18 -17 17 0 31 4 31 10 0 5 -7 7 -15 4 -8 -4 -15 -2 -15 4 0 13 47 19 85
11 l30 -7 -30 -2 c-16 -1 -33 -2 -37 -1 -5 0 -8 -3 -8 -8 0 -5 21 -8 46 -7 31
2 48 -2 51 -11 3 -7 9 -13 14 -13 14 0 11 28 -3 33 -8 3 -7 6 4 6 9 1 19 -8
23 -18 3 -11 18 -24 33 -30 l27 -9 -34 -1 c-32 -1 -33 -2 -16 -14 10 -8 15
-19 11 -25 -3 -6 3 -14 14 -17 23 -7 22 -30 -1 -30 -8 0 -14 -7 -14 -15 0 -9
-8 -14 -20 -12 -39 6 -79 1 -87 -11 -6 -9 -8 -9 -8 1 0 7 -5 10 -11 7 -14 -9
-59 -14 -59 -6 0 3 -21 6 -47 5 -46 -1 -95 16 -108 36 -3 5 8 7 30 5 20 -3 35
-1 35 5 0 6 -30 9 -75 8 l-75 -2 52 -33 c29 -18 55 -33 58 -33 15 0 5 -29 -12
-33 -10 -3 -18 -1 -18 5 0 5 -6 8 -12 5 -14 -5 -103 38 -158 75 -19 13 -43 27
-53 31 -9 3 -20 20 -23 37 -5 25 -11 30 -35 30 -40 0 -156 104 -216 193 -39
57 -42 68 -23 89 16 17 30 15 30 -4z m980 -8 c0 -5 -11 -10 -25 -10 -14 0 -25
5 -25 10 0 6 11 10 25 10 14 0 25 -4 25 -10z m-1320 -45 c-13 -14 -24 -33 -25
-42 -5 -44 -26 -71 -74 -97 -28 -14 -57 -26 -65 -26 -7 0 -19 -7 -26 -15 -21
-25 21 -19 74 11 26 14 55 24 66 21 11 -3 21 1 24 10 4 9 13 13 21 9 9 -3 25
4 36 15 14 14 29 19 45 16 13 -2 25 0 26 5 2 5 30 10 63 11 73 2 138 -23 128
-51 -6 -14 -4 -15 9 -5 19 16 74 -8 83 -37 3 -10 15 -22 26 -25 40 -13 17 -23
-58 -24 -83 -2 -93 -5 -75 -23 9 -9 12 -9 12 0 0 19 198 11 210 -8 14 -22 7
-35 -21 -36 -13 -1 -28 -2 -34 -4 -5 -1 -45 -1 -87 0 -43 0 -78 -2 -78 -7 0
-4 -11 -8 -24 -8 -13 0 -22 3 -19 8 2 4 0 7 -6 7 -5 0 -11 -6 -14 -12 -3 -10
-7 -10 -20 1 -11 9 -17 10 -17 2 0 -15 -27 -14 -33 2 -4 9 -8 9 -15 -2 -5 -7
-15 -10 -21 -7 -6 4 -27 2 -46 -4 -32 -11 -37 -10 -55 12 -12 14 -19 18 -20 9
0 -10 -3 -11 -14 -2 -10 8 -16 9 -21 1 -3 -5 -14 -10 -23 -9 -14 0 -13 2 3 9
16 7 12 9 -19 9 -30 1 -37 -2 -32 -14 3 -8 1 -15 -4 -15 -8 0 -15 49 -7 50 1
1 61 3 133 7 93 4 133 2 138 -6 4 -6 17 -11 29 -10 21 0 21 1 2 9 -20 9 -20 9
0 10 11 1 25 3 30 5 6 1 20 3 33 3 36 3 15 22 -24 22 -21 0 -33 4 -29 10 3 6
-4 10 -17 10 -17 0 -19 -3 -10 -9 20 -13 -23 -21 -140 -27 -60 -3 -98 -2 -94
4 3 5 36 10 73 11 96 4 132 7 138 13 10 9 -149 16 -167 7 -9 -5 -51 -9 -92 -9
-89 0 -105 -19 -18 -21 48 -2 42 -3 -40 -12 -54 -5 -98 -13 -98 -17 0 -12 36
-18 51 -9 8 5 31 9 52 9 31 0 37 -3 37 -21 0 -20 -3 -21 -90 -14 -61 4 -90 3
-90 -4 0 -15 -27 -14 -33 2 -4 9 -7 9 -15 -1 -5 -7 -20 -12 -33 -11 -50 4 -63
0 -49 -16 7 -8 17 -12 23 -8 5 3 7 2 4 -4 -4 -6 -28 -13 -54 -16 -65 -9 -71
-11 -128 -36 -27 -13 -68 -24 -89 -26 -30 -2 -46 -10 -65 -34 -14 -17 -44 -41
-66 -52 -22 -12 -56 -33 -75 -48 -52 -39 -77 -51 -104 -51 -59 0 -28 44 59 84
17 8 45 28 64 44 18 16 49 35 68 41 19 7 43 21 52 30 10 10 39 26 64 37 26 10
47 25 47 33 0 8 7 11 20 8 11 -3 20 -1 20 4 0 5 -11 9 -25 9 -16 0 -25 -6 -25
-15 0 -8 -7 -15 -16 -15 -14 0 -14 3 -4 15 11 14 8 15 -29 10 -22 -2 -41 -1
-41 3 0 5 19 9 42 11 106 6 182 20 190 35 5 9 16 16 23 16 24 0 17 28 -7 33
-17 3 -14 5 10 6 17 0 32 5 32 9 0 4 -29 6 -65 4 -52 -4 -65 -2 -63 9 2 10 -8
14 -39 13 -24 -1 -43 2 -43 7 0 5 13 9 29 9 17 0 33 5 36 10 3 6 1 10 -5 10
-6 0 -9 4 -6 9 3 5 -3 11 -14 14 -22 6 -38 -9 -18 -16 7 -2 1 -8 -14 -12 -17
-4 -25 -12 -21 -21 5 -14 -20 -19 -74 -14 -13 1 -23 -3 -23 -9 0 -6 7 -11 16
-11 14 0 14 -3 4 -15 -7 -9 -8 -15 -2 -15 5 0 13 7 16 16 3 8 10 12 16 9 6 -4
7 -11 4 -17 -5 -8 6 -9 37 -4 56 9 77 27 23 20 -29 -4 -35 -3 -24 5 17 12 50
14 74 5 25 -10 -5 -32 -53 -40 -37 -6 -58 -24 -28 -24 8 0 7 -3 -3 -9 -18 -12
-31 -5 -24 13 4 10 -4 13 -29 11 -19 -2 -40 1 -48 6 -11 7 -11 9 4 9 9 0 17 5
17 10 0 6 -5 10 -11 10 -5 0 -7 5 -4 11 5 7 -17 10 -69 8 -42 -1 -79 1 -83 4
-3 4 5 8 18 9 27 1 132 9 167 11 12 1 22 5 22 8 0 4 -48 5 -107 3 -71 -2 -103
0 -93 6 8 5 43 10 78 10 38 0 62 4 62 11 0 15 -146 5 -166 -12 -22 -18 -86
-40 -77 -26 4 6 0 8 -10 4 -9 -3 -19 -2 -22 3 -4 6 1 10 9 10 9 0 16 5 16 10
0 6 10 15 23 20 18 8 14 10 -20 7 -52 -3 -59 17 -10 28 53 11 220 23 435 31
111 4 205 11 208 15 7 11 74 12 74 1 0 -5 -15 -7 -32 -5 -25 3 -30 2 -18 -6
19 -14 70 -14 70 -1 0 6 9 10 20 10 11 0 19 -3 17 -8 -1 -4 3 -7 8 -7 6 0 9 3
8 7 -3 9 54 4 64 -5 10 -10 33 -8 33 2 0 5 -8 12 -17 14 -14 4 -12 5 5 6 13 1
22 -5 22 -13 0 -37 36 -25 113 36 55 43 83 51 47 13z m-2010 -57 c0 -4 8 -8
17 -8 9 0 14 -2 12 -5 -7 -7 -79 7 -75 14 6 9 46 8 46 -1z m2673 -1 c9 -1 17
-5 17 -10 0 -5 -17 -7 -37 -3 -21 3 -44 6 -50 6 -7 0 -13 4 -13 9 0 4 15 6 33
4 17 -3 40 -6 50 -6z m34 -4 c-4 -3 -7 0 -7 7 0 7 3 10 7 7 3 -4 3 -10 0 -14z
m-2290 -5 c5 14 33 16 33 2 0 -5 14 -10 31 -10 17 0 28 -4 24 -10 -4 -6 12 -8
39 -6 25 2 48 1 50 -2 3 -3 29 -4 58 -4 29 1 62 1 73 0 11 0 55 0 98 1 47 1
77 -3 77 -9 0 -5 -7 -10 -15 -10 -14 0 -41 -38 -37 -52 1 -5 -13 -8 -30 -7
-31 1 -31 2 -8 8 l25 7 -25 8 -25 9 28 4 c15 2 27 9 27 15 0 5 -6 8 -13 5 -7
-3 -32 -2 -55 3 -32 6 -45 4 -54 -8 -11 -13 -10 -15 5 -9 18 7 47 0 47 -12 0
-3 -16 -7 -35 -7 -19 -1 -51 -2 -70 -3 -21 -1 -34 -6 -32 -13 1 -6 -6 -14 -16
-16 -15 -3 -18 1 -15 20 2 15 9 22 21 20 9 -2 17 1 17 6 0 5 -19 8 -41 7 -153
-11 -219 -18 -219 -25 0 -5 20 -6 45 -4 28 3 45 1 45 -5 0 -7 -23 -11 -55 -11
-44 0 -53 3 -49 15 5 12 -2 15 -31 15 -29 0 -36 -3 -31 -15 4 -11 -2 -15 -25
-15 -24 0 -30 4 -25 15 3 9 0 15 -10 15 -8 0 -12 5 -9 10 3 6 -2 10 -11 10
-38 0 -2 13 39 14 32 1 43 -3 40 -11 -7 -19 13 -16 33 5 17 16 15 17 -47 23
-35 3 -58 6 -51 7 7 1 10 7 6 13 -4 8 0 8 15 0 11 -7 21 -8 21 -3 0 5 23 7 50
6 29 -1 50 2 50 8 0 6 7 4 17 -3 13 -11 17 -11 20 -1z m2140 5 c-4 -3 -10 -3
-14 0 -3 4 0 7 7 7 7 0 10 -3 7 -7z m253 -8 c-12 -15 -30 -12 -30 6 0 5 10 9
21 9 18 0 19 -2 9 -15z m-2727 -2 c-7 -2 -21 -2 -30 0 -10 3 -4 5 12 5 17 0
24 -2 18 -5z m131 -24 c-3 -5 -17 -9 -31 -9 -21 0 -24 -2 -13 -15 7 -8 19 -15
26 -15 8 0 14 -4 14 -9 0 -5 -9 -7 -20 -4 -11 3 -27 -2 -36 -12 -17 -16 -18
-16 -28 6 l-10 24 -4 -27 c-4 -35 -22 -37 -22 -3 0 14 -4 25 -10 25 -5 0 -10
-3 -10 -7 0 -5 -27 -7 -61 -7 -33 1 -65 -4 -72 -10 -17 -16 -43 -14 -66 6 -16
14 -24 15 -55 4 -36 -12 -36 -13 -14 -24 21 -10 19 -11 -19 -11 -24 -1 -43 4
-43 10 0 5 5 7 10 4 6 -3 10 -1 10 4 0 6 -15 11 -32 11 -24 0 -29 -3 -19 -9
11 -7 5 -11 -22 -16 -20 -4 -42 -5 -49 -2 -7 3 2 6 20 6 17 1 32 5 32 11 0 5
-7 6 -17 3 -11 -4 -14 -3 -9 5 4 7 28 12 54 13 35 0 42 3 27 9 -19 8 -19 9 3
9 14 1 22 8 23 19 1 16 2 16 6 0 3 -13 12 -17 36 -14 18 3 49 5 70 5 23 1 36
5 32 11 -7 11 122 9 140 -2 15 -9 83 -13 91 -5 4 4 -9 7 -29 7 -21 0 -37 3
-37 8 0 4 31 7 70 8 38 1 67 -3 64 -7z m-714 -9 c0 -5 -2 -10 -4 -10 -3 0 -8
5 -11 10 -3 6 -1 10 4 10 6 0 11 -4 11 -10z m207 3 c-4 -3 -10 -3 -14 0 -3 4
0 7 7 7 7 0 10 -3 7 -7z m50 0 c-4 -3 -10 -3 -14 0 -3 4 0 7 7 7 7 0 10 -3 7
-7z m2813 -3 c0 -5 -4 -10 -10 -10 -5 0 -10 5 -10 10 0 6 5 10 10 10 6 0 10
-4 10 -10z m140 -4 c0 -3 -4 -8 -10 -11 -5 -3 -10 -1 -10 4 0 6 5 11 10 11 6
0 10 -2 10 -4z m657 -18 c4 -7 6 -21 5 -30 -6 -33 29 -58 81 -58 30 0 46 -4
42 -10 -4 -6 -22 -9 -41 -7 -26 3 -34 1 -34 -12 0 -14 -2 -14 -10 -1 -11 16
-11 15 -15 -17 -2 -17 3 -23 16 -23 11 0 19 5 19 12 0 9 3 9 12 0 9 -9 15 -9
26 0 10 9 15 9 22 -2 5 -8 31 -13 74 -14 36 -1 60 2 53 6 -7 5 -1 8 16 8 15 0
27 -4 27 -10 0 -5 7 -10 16 -10 8 0 13 4 9 9 -3 5 -1 12 4 15 5 3 12 -1 15
-10 4 -10 12 -14 22 -10 9 4 23 1 31 -6 12 -10 13 -7 8 15 -6 21 -4 27 9 27
11 0 16 -9 16 -26 0 -16 4 -23 11 -18 17 10 79 12 79 2 0 -4 -15 -9 -32 -9
-18 -1 -44 -3 -58 -5 -14 -1 -62 -4 -106 -6 -68 -2 -81 -5 -76 -18 4 -11 0
-10 -16 4 -12 11 -22 15 -22 10 0 -11 -126 -12 -136 -1 -4 4 -15 -3 -25 -14
-10 -12 -27 -19 -40 -17 -25 3 -39 28 -16 28 15 0 30 37 21 52 -3 4 -11 8 -19
8 -12 0 -25 21 -25 40 0 5 10 10 23 12 21 3 27 22 7 24 -5 1 -15 2 -20 3 -6 0
-14 11 -19 24 -9 24 3 47 25 47 7 0 16 -6 21 -12z m-2449 -28 c-14 -22 -39
-23 -46 -2 -2 7 2 10 11 6 8 -3 18 -1 22 5 3 6 10 11 16 11 5 0 4 -9 -3 -20z
m-338 0 c0 -5 -16 -10 -35 -10 -19 0 -35 -5 -35 -11 0 -6 7 -9 15 -5 8 3 15 2
15 -3 0 -5 -14 -11 -30 -13 -24 -4 -30 -1 -25 9 3 8 5 18 5 23 0 5 17 11 38
13 20 2 40 4 45 5 4 1 7 -2 7 -8z m-974 -27 c-10 -10 -19 5 -10 18 6 11 8 11
12 0 2 -7 1 -15 -2 -18z m450 17 c13 0 24 -3 24 -7 0 -5 -32 -9 -71 -11 -47
-2 -69 1 -64 8 3 6 9 9 13 6 4 -2 16 0 27 5 11 4 26 6 33 3 8 -2 25 -4 38 -4z
m-516 -4 c0 -11 -19 -15 -25 -6 -3 5 1 10 9 10 9 0 16 -2 16 -4z m807 -3 c-4
-3 -10 -3 -14 0 -3 4 0 7 7 7 7 0 10 -3 7 -7z m350 -19 c-9 -9 -28 6 -21 18 4
6 10 6 17 -1 6 -6 8 -13 4 -17z m43 1 c0 -14 -4 -25 -10 -25 -5 0 -7 7 -3 16
3 9 0 20 -8 25 -11 7 -11 9 4 9 12 0 17 -8 17 -25z m27 18 c-4 -3 -10 -3 -14
0 -3 4 0 7 7 7 7 0 10 -3 7 -7z m2830 0 c-4 -3 -10 -3 -14 0 -3 4 0 7 7 7 7 0
10 -3 7 -7z m128 -3 c7 -12 -2 -12 -30 0 -19 8 -19 9 2 9 12 1 25 -3 28 -9z
m-3150 -10 c3 -5 1 -10 -4 -10 -6 0 -11 5 -11 10 0 6 2 10 4 10 3 0 8 -4 11
-10z m2902 4 c-3 -3 -12 -4 -19 -1 -8 3 -5 6 6 6 11 1 17 -2 13 -5z m-3204
-11 c-13 -2 -33 -2 -45 0 -13 2 -3 4 22 4 25 0 35 -2 23 -4z m96 -3 c-9 -5
-28 -6 -45 0 -27 8 -26 8 16 9 32 0 40 -2 29 -9z m95 -5 c-4 -9 0 -15 7 -16 8
-1 3 -4 -11 -8 -33 -10 -35 -7 -13 18 21 25 24 26 17 6z m515 -1 c2 -2 -4 -4
-15 -5 -16 -1 -15 -2 4 -7 13 -4 59 -5 103 -2 79 5 122 -5 57 -13 -25 -3 -20
-4 17 -6 46 -1 48 -3 31 -16 -13 -10 -23 -11 -31 -5 -7 5 -15 7 -18 4 -3 -3
-23 -6 -44 -6 -21 0 -46 -7 -55 -15 -16 -15 -18 -15 -18 1 0 13 -5 16 -20 11
-14 -5 -20 -2 -20 9 0 18 -16 22 -22 6 -2 -6 -17 -13 -35 -15 -26 -3 -32 0
-37 21 -4 13 -11 24 -17 24 -6 0 -9 -7 -5 -15 3 -9 0 -15 -9 -15 -9 0 -12 6
-9 15 4 8 2 15 -2 15 -14 0 -29 -14 -30 -27 -2 -28 -4 -33 -15 -33 -5 0 -8 4
-5 9 9 14 -4 41 -20 41 -8 0 -14 7 -14 15 0 11 10 14 40 12 22 -2 59 0 82 3
39 6 97 3 107 -6z m2448 -1 c-4 -3 -7 0 -7 7 0 7 3 10 7 7 3 -4 3 -10 0 -14z
m-3340 0 c-4 -3 -10 -3 -14 0 -3 4 0 7 7 7 7 0 10 -3 7 -7z m100 0 c-4 -3 -10
-3 -14 0 -3 4 0 7 7 7 7 0 10 -3 7 -7z m830 1 c-3 -3 -12 -4 -19 -1 -8 3 -5 6
6 6 11 1 17 -2 13 -5z m-1537 -14 c0 -5 -8 -10 -17 -10 -15 0 -16 2 -3 10 19
12 20 12 20 0z m258 5 c-8 -8 -187 -10 -194 -2 -4 4 39 7 96 7 57 0 101 -2 98
-5z m847 -5 c-3 -5 -11 -10 -16 -10 -6 0 -7 5 -4 10 3 6 11 10 16 10 6 0 7 -4
4 -10z m880 -10 c-3 -5 -16 -10 -28 -9 -21 0 -21 1 -2 9 28 12 37 12 30 0z
m-745 -10 c0 -5 -2 -10 -4 -10 -3 0 -8 5 -11 10 -3 6 -1 10 4 10 6 0 11 -4 11
-10z m3047 3 c-4 -3 -10 -3 -14 0 -3 4 0 7 7 7 7 0 10 -3 7 -7z m-4099 -10
c-10 -2 -28 -2 -40 0 -13 2 -5 4 17 4 22 1 32 -1 23 -4z m102 3 c0 -8 -71 -12
-76 -4 -3 4 13 8 35 8 23 0 41 -2 41 -4z m97 -3 c-4 -3 -10 -3 -14 0 -3 4 0 7
7 7 7 0 10 -3 7 -7z m738 -3 c-3 -5 -12 -10 -18 -10 -7 0 -6 4 3 10 19 12 23
12 15 0z m72 3 c-4 -3 -10 -3 -14 0 -3 4 0 7 7 7 7 0 10 -3 7 -7z m88 -3 c3
-5 2 -10 -4 -10 -5 0 -13 5 -16 10 -3 6 -2 10 4 10 5 0 13 -4 16 -10z m2905 6
c0 -2 -7 -9 -15 -16 -12 -10 -15 -10 -15 4 0 9 7 16 15 16 8 0 15 -2 15 -4z
m-3263 -13 c-4 -3 -10 -3 -14 0 -3 4 0 7 7 7 7 0 10 -3 7 -7z m3050 0 c-4 -3
-10 -3 -14 0 -3 4 0 7 7 7 7 0 10 -3 7 -7z m-3802 -13 c3 -5 1 -10 -4 -10 -6
0 -11 5 -11 10 0 6 2 10 4 10 3 0 8 -4 11 -10z m298 3 c-13 -2 -35 -2 -50 0
-16 2 -5 4 22 4 28 0 40 -2 28 -4z m155 0 c-10 -2 -26 -2 -35 0 -10 3 -2 5 17
5 19 0 27 -2 18 -5z m1365 -4 c-9 -9 -123 -17 -123 -8 0 12 11 15 70 15 34 1
58 -2 53 -7z m1085 -17 c2 -7 -5 -12 -17 -12 -14 0 -19 5 -14 15 6 17 25 15
31 -3z m969 12 c-3 -3 -12 -4 -19 -1 -8 3 -5 6 6 6 11 1 17 -2 13 -5z m-3482
-14 c-3 -5 -13 -10 -21 -10 -8 0 -12 5 -9 10 3 6 13 10 21 10 8 0 12 -4 9 -10z
m322 3 c-4 -3 -10 -3 -14 0 -3 4 0 7 7 7 7 0 10 -3 7 -7z m60 1 c-3 -3 -12 -4
-19 -1 -8 3 -5 6 6 6 11 1 17 -2 13 -5z m60 -1 c-4 -3 -10 -3 -14 0 -3 4 0 7
7 7 7 0 10 -3 7 -7z m777 -1 c3 -5 -18 -9 -47 -10 -35 -1 -47 2 -37 8 19 12
77 13 84 2z m-1071 -9 c-7 -2 -19 -2 -25 0 -7 3 -2 5 12 5 14 0 19 -2 13 -5z
m772 -3 c3 -5 1 -10 -4 -10 -6 0 -11 5 -11 10 0 6 2 10 4 10 3 0 8 -4 11 -10z
m122 3 c-4 -3 -10 -3 -14 0 -3 4 0 7 7 7 7 0 10 -3 7 -7z m73 3 c0 -11 -19
-15 -25 -6 -3 5 1 10 9 10 9 0 16 -2 16 -4z m-163 -23 c-4 -3 -7 0 -7 7 0 7 3
10 7 7 3 -4 3 -10 0 -14z m53 1 c0 -2 -7 -4 -15 -4 -8 0 -15 4 -15 10 0 5 7 7
15 4 8 -4 15 -8 15 -10z m1532 -10 c-3 -19 -1 -25 7 -20 17 11 61 -2 61 -18 0
-7 -7 -13 -15 -13 -8 0 -11 5 -8 10 3 5 -13 8 -41 6 -25 -2 -46 -1 -46 3 0 5
5 8 11 8 6 0 9 6 6 13 -3 9 16 33 29 37 1 0 -1 -12 -4 -26z m-1845 9 c-4 -3
-10 -3 -14 0 -3 4 0 7 7 7 7 0 10 -3 7 -7z m-620 -10 c-4 -3 -10 -3 -14 0 -3
4 0 7 7 7 7 0 10 -3 7 -7z m1820 0 c-4 -3 -10 -3 -14 0 -3 4 0 7 7 7 7 0 10
-3 7 -7z m43 -3 c0 -5 -7 -10 -16 -10 -8 0 -12 5 -9 10 3 6 10 10 16 10 5 0 9
-4 9 -10z m495 -2 c8 -8 -119 -22 -137 -15 -7 3 -3 6 9 6 12 1 24 5 27 9 6 10
91 10 101 0z m62 5 c-4 -3 -10 -3 -14 0 -3 4 0 7 7 7 7 0 10 -3 7 -7z m-883
-26 c-3 -9 -12 -13 -21 -10 -14 5 -13 8 2 20 22 15 28 12 19 -10z m193 17 c-3
-3 -12 -4 -19 -1 -8 3 -5 6 6 6 11 1 17 -2 13 -5z m-130 -11 c-4 -3 -10 -3
-14 0 -3 4 0 7 7 7 7 0 10 -3 7 -7z m80 0 c-4 -3 -10 -3 -14 0 -3 4 0 7 7 7 7
0 10 -3 7 -7z m510 1 c-3 -3 -12 -4 -19 -1 -8 3 -5 6 6 6 11 1 17 -2 13 -5z
m1493 2 c0 -11 -19 -15 -25 -6 -3 5 1 10 9 10 9 0 16 -2 16 -4z m77 -3 c-4 -3
-10 -3 -14 0 -3 4 0 7 7 7 7 0 10 -3 7 -7z m-1910 -20 c-4 -3 -7 0 -7 7 0 7 3
10 7 7 3 -4 3 -10 0 -14z m558 7 c-3 -5 -27 -10 -53 -10 -34 0 -43 3 -32 10
20 13 93 13 85 0z m1115 0 c0 -5 -5 -10 -11 -10 -5 0 -7 5 -4 10 3 6 8 10 11
10 2 0 4 -4 4 -10z m50 0 c0 -5 -4 -10 -10 -10 -5 0 -10 5 -10 10 0 6 5 10 10
10 6 0 10 -4 10 -10z m37 -7 c-4 -3 -7 0 -7 7 0 7 3 10 7 7 3 -4 3 -10 0 -14z
m120 10 c-4 -3 -10 -3 -14 0 -3 4 0 7 7 7 7 0 10 -3 7 -7z m-2007 -13 c0 -5
-2 -10 -4 -10 -3 0 -8 5 -11 10 -3 6 -1 10 4 10 6 0 11 -4 11 -10z m53 3 c-7
-2 -21 -2 -30 0 -10 3 -4 5 12 5 17 0 24 -2 18 -5z m142 -3 c3 -5 1 -10 -4
-10 -6 0 -11 5 -11 10 0 6 2 10 4 10 3 0 8 -4 11 -10z m30 0 c3 -5 4 -10 1
-10 -3 0 -8 5 -11 10 -3 6 -4 10 -1 10 3 0 8 -4 11 -10z m350 0 c4 -6 -6 -10
-22 -10 -15 0 -38 -3 -50 -6 -13 -4 -23 -2 -23 4 0 6 15 13 33 15 17 2 37 5
44 5 6 1 15 -2 18 -8z m-652 -7 c-7 -2 -19 -2 -25 0 -7 3 -2 5 12 5 14 0 19
-2 13 -5z m472 -3 c3 -6 -4 -10 -17 -10 -18 0 -20 2 -8 10 19 12 18 12 25 0z
m362 -12 c-3 -8 -6 -5 -6 6 -1 11 2 17 5 13 3 -3 4 -12 1 -19z m-442 2 c-3 -5
-11 -10 -16 -10 -6 0 -7 5 -4 10 3 6 11 10 16 10 6 0 7 -4 4 -10z m528 -7 c-7
-2 -21 -2 -30 0 -10 3 -4 5 12 5 17 0 24 -2 18 -5z m712 -3 c3 -5 1 -10 -4
-10 -6 0 -11 5 -11 10 0 6 2 10 4 10 3 0 8 -4 11 -10z m-1058 -7 c-4 -3 -10
-3 -14 0 -3 4 0 7 7 7 7 0 10 -3 7 -7z m1083 -33 c0 -5 -7 -10 -16 -10 -8 0
-12 5 -9 10 3 6 10 10 16 10 5 0 9 -4 9 -10z m457 -17 c-4 -3 -10 -3 -14 0 -3
4 0 7 7 7 7 0 10 -3 7 -7z m-417 -23 c0 -5 -4 -10 -10 -10 -5 0 -10 5 -10 10
0 6 5 10 10 10 6 0 10 -4 10 -10z m297 -17 c-4 -3 -10 -3 -14 0 -3 4 0 7 7 7
7 0 10 -3 7 -7z m30 0 c-4 -3 -10 -3 -14 0 -3 4 0 7 7 7 7 0 10 -3 7 -7z
m-267 -13 c0 -5 -4 -10 -10 -10 -5 0 -10 5 -10 10 0 6 5 10 10 10 6 0 10 -4
10 -10z m95 -12 c6 0 18 3 28 7 13 6 17 2 17 -15 0 -21 -3 -22 -47 -16 -67 10
-84 16 -77 27 3 6 20 7 37 4 18 -3 37 -6 42 -7z m95 -4 c0 -2 -9 -4 -21 -4
-11 0 -18 4 -14 10 5 8 35 3 35 -6z m15 -20 c12 -5 14 -9 4 -14 -14 -9 -39 -2
-39 11 0 11 12 11 35 3z m-745 -12 c0 -9 -64 -42 -81 -42 -6 0 -7 5 -4 10 3 6
14 10 24 10 10 0 24 7 31 15 13 16 30 20 30 7z m-130 -61 c0 -5 -13 -12 -30
-16 -16 -4 -32 -11 -35 -16 -4 -5 -17 -9 -30 -9 -13 0 -39 -6 -57 -14 -52 -22
-171 -56 -195 -56 -12 0 -25 -4 -28 -10 -7 -12 -55 -14 -55 -2 0 15 46 35 115
49 65 13 146 36 240 67 49 17 75 19 75 7z m-1911 -10 c15 -10 7 -31 -13 -31
-8 0 -20 -9 -27 -19 -13 -17 -99 -38 -99 -24 0 11 96 77 120 82 3 0 11 -3 19
-8z m-172 -67 c-3 -3 -12 -4 -19 -1 -8 3 -5 6 6 6 11 1 17 -2 13 -5z m1643
-54 c0 -5 -10 -10 -22 -10 -19 0 -20 2 -8 10 19 13 30 13 30 0z m-205 -50 c3
-5 -1 -10 -9 -10 -9 0 -16 5 -16 10 0 6 4 10 9 10 6 0 13 -4 16 -10z m-65 -20
c-20 -13 -53 -13 -45 0 3 6 18 10 33 10 21 0 24 -2 12 -10z m-81 -9 c12 -8 10
-11 -10 -15 -55 -11 -79 -13 -79 -5 0 5 11 9 24 9 14 0 28 5 31 10 8 12 16 12
34 1z m-401 -70 c9 -5 -2 -10 -33 -14 -26 -4 -59 -14 -75 -23 -16 -10 -35 -14
-46 -10 -26 10 -5 26 57 41 67 16 81 17 97 6z m49 2 c-4 -3 -10 -3 -14 0 -3 4
0 7 7 7 7 0 10 -3 7 -7z m1790 -70 c-4 -3 -10 -3 -14 0 -3 4 0 7 7 7 7 0 10
-3 7 -7z m360 -280 c-4 -3 -10 -3 -14 0 -3 4 0 7 7 7 7 0 10 -3 7 -7z"/>
<path d="M3170 1312 c0 -19 26 -32 38 -20 9 9 12 8 12 -5 0 -18 17 -18 60 1
27 11 25 13 -17 18 -16 1 -43 6 -60 10 -20 4 -33 2 -33 -4z"/>
<path d="M3468 1288 c9 -9 15 -9 24 0 9 9 7 12 -12 12 -19 0 -21 -3 -12 -12z"/>
<path d="M3463 1263 c9 -2 23 -2 30 0 6 3 -1 5 -18 5 -16 0 -22 -2 -12 -5z"/>
<path d="M3225 1250 c3 -5 8 -10 11 -10 2 0 4 5 4 10 0 6 -5 10 -11 10 -5 0
-7 -4 -4 -10z"/>
<path d="M3308 1253 c7 -3 16 -2 19 1 4 3 -2 6 -13 5 -11 0 -14 -3 -6 -6z"/>
<path d="M3613 1243 c4 -3 10 -3 14 0 3 4 0 7 -7 7 -7 0 -10 -3 -7 -7z"/>
<path d="M3673 1243 c4 -3 10 -3 14 0 3 4 0 7 -7 7 -7 0 -10 -3 -7 -7z"/>
<path d="M3310 1220 c0 -5 5 -10 10 -10 6 0 10 5 10 10 0 6 -4 10 -10 10 -5 0
-10 -4 -10 -10z"/>
<path d="M3610 1226 c0 -2 7 -7 16 -10 8 -3 12 -2 9 4 -6 10 -25 14 -25 6z"/>
<path d="M3430 1210 c0 -7 3 -10 7 -7 3 4 3 10 0 14 -4 3 -7 0 -7 -7z"/>
<path d="M3493 1213 c4 -3 10 -3 14 0 3 4 0 7 -7 7 -7 0 -10 -3 -7 -7z"/>
<path d="M3467 1192 c-10 -2 -15 -8 -11 -13 3 -5 9 -7 13 -5 4 3 40 6 79 7 38
1 76 5 83 9 11 8 -127 9 -164 2z"/>
<path d="M3325 1180 c3 -5 8 -10 11 -10 3 0 2 5 -1 10 -3 6 -8 10 -11 10 -3 0
-2 -4 1 -10z"/>
<path d="M3370 1180 c-12 -8 -11 -10 7 -10 12 0 25 5 28 10 8 13 -15 13 -35 0z"/>
<path d="M3420 1180 c0 -5 5 -10 10 -10 6 0 10 5 10 10 0 6 -4 10 -10 10 -5 0
-10 -4 -10 -10z"/>
<path d="M3633 1172 c-13 -2 -23 -7 -23 -11 0 -10 88 -2 110 9 14 8 -38 9 -87
2z"/>
<path d="M3530 1160 c0 -5 7 -10 16 -10 8 0 12 5 9 10 -3 6 -10 10 -16 10 -5
0 -9 -4 -9 -10z"/>
<path d="M3718 1133 c7 -3 16 -2 19 1 4 3 -2 6 -13 5 -11 0 -14 -3 -6 -6z"/>
<path d="M1877 1383 c-13 -12 -7 -33 9 -33 13 0 14 3 5 14 -9 11 -9 15 1 19 7
3 8 6 2 6 -6 1 -14 -2 -17 -6z"/>
<path d="M2125 1380 c-3 -5 -3 -14 0 -20 4 -6 -11 -10 -37 -11 l-43 -1 48 -8
c53 -9 74 -20 39 -20 -12 0 -22 -4 -22 -9 0 -12 175 -5 197 8 13 8 2 9 -40 6
-32 -3 -62 -7 -67 -10 -12 -7 -40 5 -40 17 0 6 9 8 20 5 11 -3 20 -3 20 0 0 9
-29 33 -39 33 -6 0 -11 5 -11 10 0 6 -4 10 -9 10 -6 0 -13 -4 -16 -10z"/>
<path d="M2248 1383 c7 -3 16 -2 19 1 4 3 -2 6 -13 5 -11 0 -14 -3 -6 -6z"/>
<path d="M2360 1386 c0 -9 40 -13 46 -5 3 5 -6 9 -20 9 -14 0 -26 -2 -26 -4z"/>
<path d="M1830 1364 c0 -8 5 -12 10 -9 6 4 8 11 5 16 -9 14 -15 11 -15 -7z"/>
<path d="M1940 1370 c-13 -8 -12 -10 3 -10 9 0 17 5 17 10 0 12 -1 12 -20 0z"/>
<path d="M2005 1370 c-4 -6 3 -10 14 -10 25 0 27 6 6 13 -8 4 -17 2 -20 -3z"/>
<path d="M2295 1370 c-3 -5 -21 -10 -40 -10 -19 0 -37 -4 -40 -10 -4 -6 12
-10 39 -10 33 0 46 4 46 14 0 8 8 17 18 19 15 4 15 5 0 6 -9 0 -20 -3 -23 -9z"/>
<path d="M2740 1370 c-26 -8 -22 -12 22 -14 15 -1 25 1 22 5 -2 4 4 10 13 12
12 3 9 5 -7 5 -14 0 -36 -4 -50 -8z"/>
<path d="M1650 1358 c0 -4 12 -8 27 -8 14 0 23 3 19 7 -10 10 -46 11 -46 1z"/>
<path d="M1780 1360 c0 -7 3 -10 7 -7 3 4 3 10 0 14 -4 3 -7 0 -7 -7z"/>
<path d="M1723 1353 c9 -2 23 -2 30 0 6 3 -1 5 -18 5 -16 0 -22 -2 -12 -5z"/>
<path d="M1811 1343 c-1 -24 14 -29 39 -13 12 8 11 10 -7 10 -12 0 -24 6 -26
13 -3 6 -6 2 -6 -10z"/>
<path d="M2785 1341 c-26 -7 -23 -8 25 -12 30 -3 59 -2 65 3 5 5 3 8 -5 8 -8
0 -24 2 -35 4 -11 2 -33 1 -50 -3z"/>
<path d="M2655 1330 c-32 -11 -2 -18 45 -10 25 4 38 8 30 10 -44 6 -58 6 -75
0z"/>
<path d="M1598 1323 c7 -3 16 -2 19 1 4 3 -2 6 -13 5 -11 0 -14 -3 -6 -6z"/>
<path d="M2014 1313 c7 -7 77 -5 85 3 2 2 -17 4 -44 4 -27 0 -45 -3 -41 -7z"/>
<path d="M2783 1314 c25 -8 21 -25 -5 -23 -45 4 -161 -1 -156 -7 6 -6 163 -6
208 0 14 2 50 5 80 6 l55 3 -55 7 c-110 16 -145 19 -127 14z"/>
<path d="M2053 1283 c4 -3 10 -3 14 0 3 4 0 7 -7 7 -7 0 -10 -3 -7 -7z"/>
<path d="M2093 1283 c9 -2 23 -2 30 0 6 3 -1 5 -18 5 -16 0 -22 -2 -12 -5z"/>
<path d="M2220 1280 c0 -5 6 -10 14 -10 8 0 18 5 21 10 3 6 -3 10 -14 10 -12
0 -21 -4 -21 -10z"/>
<path d="M2475 1270 c3 -5 15 -10 25 -10 10 0 22 5 25 10 4 6 -7 10 -25 10
-18 0 -29 -4 -25 -10z"/>
<path d="M2853 1266 c-3 -5 -1 -6 5 -2 7 4 12 3 12 -2 0 -6 9 -8 20 -5 11 3
17 9 15 14 -7 10 -45 7 -52 -5z"/>
<path d="M2165 1260 c-3 -5 3 -10 14 -10 12 0 21 5 21 10 0 6 -6 10 -14 10 -8
0 -18 -4 -21 -10z"/>
<path d="M2341 1251 c-31 -16 -32 -18 -12 -24 32 -8 57 2 58 24 2 23 -3 23
-46 0z"/>
<path d="M2810 1260 c0 -7 3 -10 7 -7 3 4 3 10 0 14 -4 3 -7 0 -7 -7z"/>
<path d="M2933 1263 c9 -2 25 -2 35 0 9 3 1 5 -18 5 -19 0 -27 -2 -17 -5z"/>
<path d="M2240 1210 c-8 -15 -8 -20 2 -20 8 0 21 9 31 20 16 19 16 20 -3 20
-10 0 -24 -9 -30 -20z"/>
<path d="M2843 1203 c4 -3 10 -3 14 0 3 4 0 7 -7 7 -7 0 -10 -3 -7 -7z"/>
<path d="M2293 1193 c4 -3 10 -3 14 0 3 4 0 7 -7 7 -7 0 -10 -3 -7 -7z"/>
<path d="M2871 1196 c2 -2 21 -6 42 -10 27 -5 37 -4 32 3 -3 6 -22 11 -42 11
-20 0 -34 -2 -32 -4z"/>
<path d="M3013 1193 c4 -3 10 -3 14 0 3 4 0 7 -7 7 -7 0 -10 -3 -7 -7z"/>
<path d="M958 1363 c7 -3 16 -2 19 1 4 3 -2 6 -13 5 -11 0 -14 -3 -6 -6z"/>
<path d="M1228 1353 c7 -3 16 -2 19 1 4 3 -2 6 -13 5 -11 0 -14 -3 -6 -6z"/>
<path d="M943 1333 c4 -3 10 -3 14 0 3 4 0 7 -7 7 -7 0 -10 -3 -7 -7z"/>
<path d="M973 1333 c4 -3 10 -3 14 0 3 4 0 7 -7 7 -7 0 -10 -3 -7 -7z"/>
<path d="M1253 1333 c4 -3 10 -3 14 0 3 4 0 7 -7 7 -7 0 -10 -3 -7 -7z"/>
<path d="M1480 1249 c0 -5 9 -9 19 -9 11 0 22 4 25 9 3 5 -6 9 -19 9 -14 0
-25 -4 -25 -9z"/>
<path d="M1493 1223 c4 -3 10 -3 14 0 3 4 0 7 -7 7 -7 0 -10 -3 -7 -7z"/>
<path d="M1583 1223 c4 -3 10 -3 14 0 3 4 0 7 -7 7 -7 0 -10 -3 -7 -7z"/>
<path d="M3783 3543 c4 -3 10 -3 14 0 3 4 0 7 -7 7 -7 0 -10 -3 -7 -7z"/>
<path d="M3810 3530 c0 -5 5 -10 10 -10 6 0 10 5 10 10 0 6 -4 10 -10 10 -5 0
-10 -4 -10 -10z"/>
<path d="M3913 3513 c4 -3 10 -3 14 0 3 4 0 7 -7 7 -7 0 -10 -3 -7 -7z"/>
<path d="M481 1921 c-9 -6 -4 -8 17 -7 17 1 34 5 38 9 10 10 -38 9 -55 -2z"/>
<path d="M40 1876 c0 -2 7 -6 15 -10 8 -3 15 -1 15 4 0 6 -7 10 -15 10 -8 0
-15 -2 -15 -4z"/>
<path d="M118 1873 c7 -3 16 -2 19 1 4 3 -2 6 -13 5 -11 0 -14 -3 -6 -6z"/>
<path d="M7 1826 c-5 -12 0 -16 21 -15 16 0 21 3 12 6 -8 3 -18 10 -21 15 -3
5 -9 3 -12 -6z"/>
<path d="M70 1800 c0 -5 5 -10 10 -10 6 0 10 5 10 10 0 6 -4 10 -10 10 -5 0
-10 -4 -10 -10z"/>
<path d="M3 1765 c-3 -9 -3 -19 1 -22 3 -4 6 1 6 10 0 10 5 17 10 17 6 0 10
-4 10 -10 0 -5 7 -10 15 -10 20 0 19 16 -1 24 -25 9 -34 7 -41 -9z"/>
<path d="M95 1750 c4 -6 11 -8 16 -5 14 9 11 15 -7 15 -8 0 -12 -5 -9 -10z"/>
<path d="M140 1751 c0 -5 7 -11 15 -15 9 -3 15 0 15 9 0 8 -7 15 -15 15 -8 0
-15 -4 -15 -9z"/>
<path d="M200 1753 c1 -21 19 -31 55 -33 61 -3 75 -1 75 11 0 5 -8 9 -17 8
-10 -1 -36 -1 -58 0 -30 1 -36 4 -25 11 12 8 11 10 -7 10 -13 0 -23 -3 -23 -7z"/>
<path d="M53 1723 c4 -3 10 -3 14 0 3 4 0 7 -7 7 -7 0 -10 -3 -7 -7z"/>
<path d="M75 1716 c-54 -29 -66 -38 -61 -43 3 -3 12 2 21 11 18 18 35 21 35 7
0 -12 68 -7 82 7 20 20 -2 33 -27 16 -20 -13 -24 -13 -27 -1 -2 11 -7 12 -23
3z"/>
<path d="M410 1650 c0 -11 4 -20 9 -20 5 0 11 9 14 20 3 13 0 20 -9 20 -8 0
-14 -9 -14 -20z"/>
<path d="M493 1647 c1 -5 6 -8 10 -8 4 1 14 1 22 1 8 0 15 3 15 8 0 4 -11 7
-25 7 -14 0 -24 -4 -22 -8z"/>
<path d="M125 1640 c-4 -6 5 -10 19 -10 14 0 26 5 26 10 0 6 -9 10 -19 10 -11
0 -23 -4 -26 -10z"/>
<path d="M0 1629 c0 -5 5 -7 10 -4 5 3 10 8 10 11 0 2 -4 4 -10 4 -5 0 -10 -5
-10 -11z"/>
<path d="M83 1633 c4 -3 10 -3 14 0 3 4 0 7 -7 7 -7 0 -10 -3 -7 -7z"/>
<path d="M1000 1630 c0 -5 5 -10 11 -10 5 0 7 5 4 10 -3 6 -8 10 -11 10 -2 0
-4 -4 -4 -10z"/>
<path d="M228 1613 c7 -3 16 -2 19 1 4 3 -2 6 -13 5 -11 0 -14 -3 -6 -6z"/>
<path d="M1403 1613 c4 -3 10 -3 14 0 3 4 0 7 -7 7 -7 0 -10 -3 -7 -7z"/>
<path d="M1070 1601 c0 -6 -17 -11 -37 -13 -20 -2 -38 -9 -41 -16 -3 -9 3 -10
23 -2 34 13 48 13 40 0 -4 -7 20 -10 72 -9 43 0 113 -2 155 -5 66 -5 76 -3 71
10 -3 9 -12 12 -25 8 -12 -4 -18 -2 -14 4 3 5 -15 12 -42 16 -29 4 -48 2 -50
-4 -6 -16 -54 -12 -75 8 -19 16 -20 16 -15 -5 4 -16 2 -23 -9 -23 -8 0 -11 5
-8 10 3 6 -1 10 -9 10 -9 0 -16 5 -16 10 0 6 -4 10 -10 10 -5 0 -10 -4 -10 -9z"/>
<path d="M1438 1593 c7 -3 16 -2 19 1 4 3 -2 6 -13 5 -11 0 -14 -3 -6 -6z"/>
<path d="M740 1580 c0 -5 5 -10 10 -10 6 0 10 5 10 10 0 6 -4 10 -10 10 -5 0
-10 -4 -10 -10z"/>
<path d="M840 1579 c0 -5 5 -7 10 -4 6 3 10 8 10 11 0 2 -4 4 -10 4 -5 0 -10
-5 -10 -11z"/>
<path d="M950 1580 c-8 -5 -10 -10 -5 -10 6 0 4 -4 -4 -9 -9 -6 -6 -8 12 -8
19 0 23 4 20 18 -3 11 -6 19 -7 19 0 0 -8 -5 -16 -10z"/>
<path d="M240 1570 c0 -6 7 -10 15 -10 8 0 15 2 15 4 0 2 -7 6 -15 10 -8 3
-15 1 -15 -4z"/>
<path d="M340 1570 c0 -5 5 -10 10 -10 6 0 10 5 10 10 0 6 -4 10 -10 10 -5 0
-10 -4 -10 -10z"/>
<path d="M603 1573 c4 -3 10 -3 14 0 3 4 0 7 -7 7 -7 0 -10 -3 -7 -7z"/>
<path d="M673 1573 c4 -3 10 -3 14 0 3 4 0 7 -7 7 -7 0 -10 -3 -7 -7z"/>
<path d="M793 1573 c9 -2 23 -2 30 0 6 3 -1 5 -18 5 -16 0 -22 -2 -12 -5z"/>
<path d="M880 1571 c0 -16 25 -19 38 -5 11 12 8 14 -13 14 -14 0 -25 -4 -25
-9z"/>
<path d="M0 1560 c0 -7 3 -10 7 -7 3 4 3 10 0 14 -4 3 -7 0 -7 -7z"/>
<path d="M283 1563 c4 -3 10 -3 14 0 3 4 0 7 -7 7 -7 0 -10 -3 -7 -7z"/>
<path d="M313 1563 c4 -3 10 -3 14 0 3 4 0 7 -7 7 -7 0 -10 -3 -7 -7z"/>
<path d="M385 1560 c3 -5 8 -10 11 -10 2 0 4 5 4 10 0 6 -5 10 -11 10 -5 0 -7
-4 -4 -10z"/>
<path d="M432 1555 c-10 -12 -10 -15 2 -15 7 0 16 7 20 15 7 19 -5 19 -22 0z"/>
<path d="M465 1550 c-4 -6 3 -10 14 -10 25 0 27 6 6 13 -8 4 -17 2 -20 -3z"/>
<path d="M560 1549 c0 -5 5 -7 10 -4 6 3 10 8 10 11 0 2 -4 4 -10 4 -5 0 -10
-5 -10 -11z"/>
<path d="M710 1545 c0 -8 4 -15 10 -15 5 0 7 7 4 15 -4 8 -8 15 -10 15 -2 0
-4 -7 -4 -15z"/>
<path d="M753 1553 c9 -2 25 -2 35 0 9 3 1 5 -18 5 -19 0 -27 -2 -17 -5z"/>
<path d="M813 1553 c4 -3 10 -3 14 0 3 4 0 7 -7 7 -7 0 -10 -3 -7 -7z"/>
<path d="M30 1540 c0 -5 5 -10 10 -10 6 0 10 5 10 10 0 6 -4 10 -10 10 -5 0
-10 -4 -10 -10z"/>
<path d="M110 1540 c-13 -8 -12 -10 3 -10 9 0 17 5 17 10 0 12 -1 12 -20 0z"/>
<path d="M173 1536 c-4 -8 -17 -16 -28 -19 -16 -4 -14 -5 6 -6 16 -1 29 5 33
15 4 9 13 14 21 10 8 -3 15 -1 15 4 0 15 -38 12 -47 -4z"/>
<path d="M248 1543 c6 -2 18 -2 25 0 6 3 1 5 -13 5 -14 0 -19 -2 -12 -5z"/>
<path d="M1010 1540 c0 -7 3 -10 7 -7 3 4 3 10 0 14 -4 3 -7 0 -7 -7z"/>
<path d="M883 1533 c4 -3 10 -3 14 0 3 4 0 7 -7 7 -7 0 -10 -3 -7 -7z"/>
<path d="M270 1520 c0 -5 5 -10 11 -10 5 0 7 5 4 10 -3 6 -8 10 -11 10 -2 0
-4 -4 -4 -10z"/>
<path d="M453 1523 c9 -2 23 -2 30 0 6 3 -1 5 -18 5 -16 0 -22 -2 -12 -5z"/>
<path d="M520 1520 c0 -12 8 -12 35 0 18 8 17 9 -7 9 -16 1 -28 -3 -28 -9z"/>
<path d="M2063 1523 c4 -3 10 -3 14 0 3 4 0 7 -7 7 -7 0 -10 -3 -7 -7z"/>
<path d="M20 1516 c0 -2 7 -6 15 -10 8 -3 15 -1 15 4 0 6 -7 10 -15 10 -8 0
-15 -2 -15 -4z"/>
<path d="M96 1511 c-3 -5 1 -12 10 -15 27 -10 36 -7 20 9 -17 17 -23 18 -30 6z"/>
<path d="M240 1510 c0 -7 3 -10 7 -7 3 4 3 10 0 14 -4 3 -7 0 -7 -7z"/>
<path d="M323 1513 c4 -3 10 -3 14 0 3 4 0 7 -7 7 -7 0 -10 -3 -7 -7z"/>
<path d="M1508 1513 c6 -2 18 -2 25 0 6 3 1 5 -13 5 -14 0 -19 -2 -12 -5z"/>
<path d="M735 1500 c3 -5 12 -7 20 -3 21 7 19 13 -6 13 -11 0 -18 -4 -14 -10z"/>
<path d="M790 1500 c0 -5 5 -10 10 -10 6 0 10 5 10 10 0 6 -4 10 -10 10 -5 0
-10 -4 -10 -10z"/>
<path d="M833 1503 c4 -3 10 -3 14 0 3 4 0 7 -7 7 -7 0 -10 -3 -7 -7z"/>
<path d="M0 1490 c0 -5 5 -10 11 -10 8 0 8 -5 -1 -15 -7 -8 -11 -16 -9 -16 2
-1 16 -3 32 -5 22 -2 27 1 27 19 0 17 -2 19 -9 8 -7 -11 -11 -9 -20 8 -12 22
-31 29 -31 11z"/>
<path d="M153 1488 c2 -7 8 -13 13 -13 5 0 15 -4 22 -9 8 -5 18 -4 25 3 8 8 5
11 -11 11 -12 0 -22 5 -22 10 0 6 -7 10 -16 10 -9 0 -14 -6 -11 -12z"/>
<path d="M376 1491 c-3 -5 5 -8 19 -8 14 0 22 3 19 8 -3 5 -11 9 -19 9 -8 0
-16 -4 -19 -9z"/>
<path d="M448 1494 c-9 -8 3 -44 14 -44 6 0 8 7 4 15 -3 8 -1 15 5 15 6 0 7 5
4 10 -7 11 -19 13 -27 4z"/>
<path d="M630 1493 c1 -21 15 -30 27 -18 10 10 9 14 -3 19 -20 8 -24 8 -24 -1z"/>
<path d="M305 1480 c3 -5 12 -7 20 -3 21 7 19 13 -6 13 -11 0 -18 -4 -14 -10z"/>
<path d="M747 1483 c-12 -12 -7 -22 8 -17 8 4 15 10 15 15 0 11 -14 12 -23 2z"/>
<path d="M850 1480 c0 -5 7 -10 16 -10 8 0 12 5 9 10 -3 6 -10 10 -16 10 -5 0
-9 -4 -9 -10z"/>
<path d="M93 1473 c4 -3 10 -3 14 0 3 4 0 7 -7 7 -7 0 -10 -3 -7 -7z"/>
<path d="M230 1470 c0 -7 3 -10 7 -7 3 4 3 10 0 14 -4 3 -7 0 -7 -7z"/>
<path d="M810 1470 c0 -7 3 -10 7 -7 3 4 3 10 0 14 -4 3 -7 0 -7 -7z"/>
<path d="M257 1455 c-10 -7 9 -10 62 -9 109 2 125 3 117 11 -11 12 -163 10
-179 -2z"/>
<path d="M490 1460 c0 -7 3 -10 7 -7 3 4 3 10 0 14 -4 3 -7 0 -7 -7z"/>
<path d="M515 1460 c-3 -5 -2 -10 4 -10 5 0 13 5 16 10 3 6 2 10 -4 10 -5 0
-13 -4 -16 -10z"/>
<path d="M553 1463 c4 -3 10 -3 14 0 3 4 0 7 -7 7 -7 0 -10 -3 -7 -7z"/>
<path d="M673 1463 c4 -3 10 -3 14 0 3 4 0 7 -7 7 -7 0 -10 -3 -7 -7z"/>
<path d="M72 1448 c2 -5 7 -9 11 -9 4 1 33 1 64 1 31 0 53 3 49 7 -11 11 -127
11 -124 1z"/>
<path d="M330 1420 c0 -7 3 -10 7 -7 3 4 3 10 0 14 -4 3 -7 0 -7 -7z"/>
<path d="M430 1420 c-13 -8 -12 -10 3 -10 9 0 17 5 17 10 0 12 -1 12 -20 0z"/>
<path d="M7 1304 c5 -12 53 -6 53 7 0 4 -13 7 -29 6 -16 -1 -27 -7 -24 -13z"/>
<path d="M3766 81 c-4 -5 -2 -12 3 -15 5 -4 12 -2 15 3 4 5 2 12 -3 15 -5 4
-12 2 -15 -3z"/>
</g>
</svg>
