<?xml version="1.0" standalone="no"?>
<!DOCTYPE svg PUBLIC "-//W3C//DTD SVG 20010904//EN"
 "http://www.w3.org/TR/2001/REC-SVG-20010904/DTD/svg10.dtd">
<svg version="1.0" xmlns="http://www.w3.org/2000/svg"
 width="162.000000pt" height="233.000000pt" viewBox="0 0 162.000000 233.000000"
 preserveAspectRatio="xMidYMid meet">

<g transform="translate(0.000000,233.000000) scale(0.100000,-0.100000)"
fill="#000000" stroke="none">
<path d="M803 2263 c-18 -7 -33 -18 -33 -23 0 -16 -30 -12 -36 5 -4 10 -10 12
-18 7 -6 -5 -18 -10 -26 -10 -8 0 -26 -3 -40 -7 -14 -4 -31 -7 -37 -7 -7 -1
-13 -5 -13 -10 0 -5 -11 -13 -24 -19 -14 -7 -27 -23 -31 -37 -4 -16 -9 -22
-14 -14 -5 8 -14 8 -33 -3 -15 -7 -35 -15 -44 -17 -16 -3 -16 -5 2 -22 12 -12
14 -18 4 -14 -8 2 -23 -5 -35 -17 -11 -12 -30 -25 -42 -29 -17 -5 -113 -91
-113 -101 0 -2 9 -1 20 2 11 3 27 3 36 -1 13 -5 12 -10 -8 -35 -13 -17 -28
-30 -35 -30 -25 -2 -149 -137 -181 -198 -38 -73 -36 -74 64 -42 46 15 82 20
120 17 61 -5 77 -19 95 -82 14 -50 51 -99 95 -126 38 -24 61 -31 123 -36 24
-2 46 -5 47 -7 2 -2 9 -80 14 -173 9 -144 8 -187 -5 -277 -9 -59 -18 -114 -22
-122 -8 -22 -217 -24 -378 -5 -110 14 -132 13 -117 -2 7 -7 45 -16 85 -19 39
-4 112 -13 160 -19 49 -6 124 -10 168 -8 61 2 78 0 74 -9 -19 -47 -19 -46 3
-34 11 6 29 11 40 11 20 0 109 -88 131 -128 6 -12 30 -33 51 -47 45 -29 69
-33 50 -10 -7 8 -18 15 -25 15 -41 0 -155 158 -155 217 0 27 5 33 35 43 19 6
54 11 77 10 72 -3 86 -1 103 17 29 28 37 -2 32 -119 -3 -79 -9 -115 -21 -134
-12 -16 -15 -35 -11 -54 5 -23 1 -31 -22 -48 -73 -51 -173 -86 -346 -121 -97
-20 -120 -31 -63 -31 62 0 235 40 335 77 51 19 104 33 117 30 18 -3 24 0 24
14 0 12 7 19 20 19 11 0 20 -6 20 -14 0 -7 10 -16 23 -19 12 -2 93 -25 180
-51 148 -43 285 -76 315 -76 8 0 12 5 10 11 -3 10 -91 36 -263 80 -86 21 -238
85 -251 104 -20 32 -38 314 -21 342 4 6 2 15 -4 19 -8 5 -8 9 2 14 9 6 12 45
10 157 -1 81 -4 167 -7 190 -7 56 3 86 26 80 19 -5 79 47 68 59 -4 3 2 14 11
23 14 14 18 36 19 107 0 49 5 102 11 118 8 20 8 32 1 41 -8 9 -8 15 -1 20 6 3
10 23 9 45 -1 21 5 52 12 69 8 20 10 48 6 79 -4 26 -8 57 -9 69 -1 12 -5 25
-9 29 -5 4 -8 14 -8 22 0 20 -56 139 -70 147 -5 3 -10 -2 -10 -12 0 -15 -4
-14 -20 7 -11 14 -20 33 -20 43 0 18 -17 27 -90 46 -25 7 -58 15 -75 20 -19 5
-42 3 -62 -6z m-657 -560 c-10 -10 -19 5 -10 18 6 11 8 11 12 0 2 -7 1 -15 -2
-18z m724 -284 c0 -11 3 -18 8 -18 20 3 32 -3 32 -17 0 -8 14 -28 31 -44 27
-24 31 -33 25 -62 -21 -115 -27 -194 -21 -285 5 -82 4 -103 -7 -104 -7 0 -22
-3 -33 -6 -11 -3 -52 -7 -91 -10 l-70 -5 -18 41 c-16 34 -18 54 -12 123 4 46
14 111 23 145 16 58 16 66 -2 141 -10 44 -15 87 -12 95 6 17 27 21 100 23 39
1 47 -2 47 -17z"/>
<path d="M560 699 c-22 -18 -22 -19 -3 -10 12 6 25 16 28 21 9 15 3 12 -25
-11z"/>
<path d="M805 690 c-3 -5 1 -10 11 -10 9 0 27 -11 40 -25 29 -31 55 -34 28 -3
-39 46 -66 59 -79 38z"/>
<path d="M495 650 c-3 -6 1 -7 9 -4 18 7 21 14 7 14 -6 0 -13 -4 -16 -10z"/>
<path d="M410 600 c0 -5 7 -7 15 -4 8 4 15 8 15 10 0 2 -7 4 -15 4 -8 0 -15
-4 -15 -10z"/>
<path d="M250 469 c0 -5 5 -7 10 -4 6 3 10 8 10 11 0 2 -4 4 -10 4 -5 0 -10
-5 -10 -11z"/>
</g>
</svg>
