<?xml version="1.0" standalone="no"?>
<!DOCTYPE svg PUBLIC "-//W3C//DTD SVG 20010904//EN"
 "http://www.w3.org/TR/2001/REC-SVG-20010904/DTD/svg10.dtd">
<svg version="1.0" xmlns="http://www.w3.org/2000/svg"
 width="828.000000pt" height="817.000000pt" viewBox="0 0 828.000000 817.000000"
 preserveAspectRatio="xMidYMid meet">

<g transform="translate(0.000000,817.000000) scale(0.100000,-0.100000)"
fill="#000000" stroke="none">
<path d="M0 8156 c0 -11 24 -15 113 -18 134 -4 178 -20 207 -79 18 -35 20 -60
20 -277 1 -338 -2 -342 -214 -342 l-126 0 0 -44 0 -45 77 0 c43 0 80 4 83 10
7 11 213 15 231 4 14 -9 201 -9 229 0 10 3 21 1 25 -4 9 -16 387 -17 393 -1 2
5 18 2 35 -5 22 -9 46 -11 77 -5 25 5 48 6 53 3 4 -3 155 -4 335 -3 382 3 397
3 437 1 40 -2 546 5 875 13 146 3 409 7 586 8 233 2 325 6 335 15 16 13 59 7
59 -8 0 -12 179 -4 192 9 7 7 17 8 28 2 28 -15 143 -15 178 -1 24 10 39 11 60
3 56 -22 91 -23 152 -6 50 14 68 15 99 5 50 -14 144 -14 159 1 9 9 28 8 82 -2
64 -12 76 -12 121 5 40 14 56 15 75 6 46 -21 126 -24 167 -7 29 12 44 13 65 5
15 -6 61 -11 102 -11 41 1 95 1 120 0 25 0 95 -2 155 -3 61 -1 128 -6 150 -12
22 -6 57 -10 78 -9 21 1 42 -3 47 -9 5 -6 39 -10 76 -10 l66 1 -5 -37 -5 -38
21 20 c24 22 26 23 49 5 16 -12 16 -14 -8 -24 -14 -7 -31 -12 -39 -12 -8 0
-15 -4 -15 -9 0 -11 54 -31 82 -31 11 0 17 -4 14 -9 -4 -5 8 -12 24 -16 26 -6
29 -9 19 -21 -21 -26 5 -39 36 -18 23 15 28 15 36 3 5 -8 9 -20 9 -26 0 -7 6
-13 13 -13 6 0 29 -5 50 -11 26 -7 37 -16 37 -29 0 -10 6 -21 13 -23 6 -3 0
-6 -14 -6 -15 -1 -39 -8 -55 -16 l-28 -14 42 -7 c65 -10 51 -27 -15 -19 -79
10 -96 20 -60 36 l28 13 -32 20 c-33 20 -110 24 -117 5 -2 -5 -10 -9 -18 -9
-8 0 -14 -6 -14 -14 0 -21 17 -29 24 -11 3 8 18 15 33 15 l28 -1 -27 -24 c-16
-13 -28 -31 -28 -40 0 -16 -19 -21 -21 -5 -1 6 -2 14 -3 19 -1 12 -15 26 -27
27 -5 1 -13 2 -19 3 -5 0 -10 12 -10 26 0 31 -27 75 -46 75 -11 0 -13 -9 -8
-40 6 -34 4 -40 -11 -40 -17 0 -17 -1 -2 -18 10 -10 17 -28 17 -40 0 -17 6
-22 25 -22 18 0 25 -5 25 -20 0 -11 3 -19 8 -18 26 8 73 -15 97 -47 20 -25 35
-35 56 -35 57 0 48 -55 -17 -96 -32 -20 -44 -35 -44 -52 0 -13 -4 -20 -10 -17
-5 3 -10 15 -10 26 0 10 -7 19 -15 19 -20 0 -19 -7 5 -37 11 -14 20 -30 20
-34 0 -5 -9 -9 -20 -9 -23 0 -26 -18 -6 -34 7 -6 16 -30 19 -53 l5 -43 -36 -1
c-63 -3 -106 1 -129 13 -18 9 -32 6 -72 -11 -31 -13 -71 -21 -105 -21 -30 0
-58 -4 -61 -10 -8 -12 -62 -13 -69 -2 -10 17 -96 -5 -146 -36 -52 -33 -71 -38
-84 -24 -4 4 -27 8 -49 9 -23 1 -63 5 -89 9 -28 3 -48 2 -48 -3 0 -16 -109
-38 -129 -26 -12 7 -32 7 -69 0 -40 -8 -58 -8 -72 1 -12 7 -21 8 -25 2 -9 -15
-25 -12 -25 4 0 8 -8 12 -23 9 -13 -3 -29 2 -36 11 -11 13 -15 12 -32 -5 -20
-20 -69 -26 -69 -9 0 6 -18 10 -40 10 -26 0 -43 5 -46 14 -3 8 -19 19 -35 25
-24 8 -31 7 -36 -5 -3 -9 0 -19 6 -24 17 -10 -10 -20 -55 -20 -24 0 -34 5 -34
15 0 8 -6 15 -14 15 -7 0 -19 -7 -26 -15 -14 -17 -40 -20 -40 -6 0 6 -18 10
-39 9 -38 0 -39 -1 -29 -24 6 -13 15 -21 21 -17 5 3 8 0 5 -8 -6 -19 -174 -20
-171 -1 2 6 -4 12 -12 12 -8 0 -15 -4 -15 -10 0 -5 -9 -10 -20 -10 -11 0 -20
5 -20 10 0 15 -37 12 -63 -4 -21 -14 -47 -20 -74 -17 -7 0 -19 15 -28 31 -17
33 -27 36 -47 18 -7 -7 -20 -14 -28 -16 -7 -2 -19 -11 -27 -20 -11 -16 -12
-16 -13 1 0 15 -4 16 -20 7 -15 -8 -25 -7 -42 4 -25 16 -41 11 -51 -17 -6 -16
-2 -18 33 -16 21 2 42 0 46 -4 4 -4 2 -7 -4 -8 -41 -3 -70 -2 -84 4 -9 3 -22
-1 -28 -9 -7 -8 -20 -14 -29 -14 -9 0 -27 -7 -39 -16 -13 -9 -22 -11 -22 -4 0
6 -9 4 -23 -5 -32 -20 -38 -10 -31 47 l7 48 -57 0 c-32 0 -56 -4 -56 -10 0 -6
16 -10 38 -8 l37 3 3 -47 3 -48 -40 0 c-39 0 -60 19 -23 21 13 0 14 2 2 6 -8
3 -18 10 -21 16 -4 6 -15 7 -25 2 -17 -7 -16 -8 6 -15 l25 -6 -25 -9 -25 -8
23 -8 c40 -15 23 -27 -48 -34 -38 -4 -70 -10 -70 -15 0 -4 -22 -5 -50 -2 -33
3 -50 1 -50 -7 0 -14 -47 -15 -55 -1 -10 15 -33 12 -63 -9 -22 -16 -35 -18
-74 -12 -27 4 -48 5 -48 1 0 -9 -58 -21 -116 -23 -22 -1 -48 -8 -58 -16 -15
-13 -62 -20 -236 -37 -76 -7 -137 -33 -164 -69 -10 -14 -25 -25 -32 -25 -8 0
-14 -6 -14 -14 0 -8 -7 -17 -16 -20 -8 -3 -12 -11 -9 -16 4 -7 11 -8 18 -2 7
6 56 24 110 41 130 41 229 43 294 5 l44 -26 -17 -26 c-21 -32 -37 -46 -84 -72
-19 -10 -51 -34 -70 -52 -46 -43 -81 -59 -104 -46 -10 6 -30 7 -44 4 -46 -11
-74 -15 -176 -26 -55 -6 -118 -19 -140 -30 -37 -16 -172 -57 -270 -81 -21 -5
-51 -16 -67 -24 -15 -8 -39 -15 -52 -15 -13 0 -32 -8 -43 -19 -11 -10 -39 -30
-61 -44 -22 -14 -58 -42 -79 -61 -22 -20 -43 -36 -48 -36 -4 0 -6 -9 -3 -20 3
-11 0 -23 -5 -27 -6 -3 -8 -1 -5 4 10 17 -84 3 -112 -16 -13 -9 -33 -21 -45
-28 -35 -20 -116 -95 -116 -108 0 -6 -13 -21 -30 -33 -23 -17 -30 -30 -30 -56
0 -28 5 -36 27 -43 21 -7 31 -5 45 9 11 11 33 18 55 18 35 0 92 12 208 45 72
20 131 34 205 50 36 7 92 22 125 33 33 12 72 20 87 20 15 0 40 4 55 10 16 5
69 15 118 22 50 6 110 18 135 25 72 23 400 36 423 17 7 -6 64 -13 127 -17 63
-4 120 -12 127 -17 13 -11 133 -12 199 -2 33 5 45 3 49 -8 4 -9 24 -13 70 -13
39 0 69 -5 77 -13 10 -10 9 -14 -10 -18 -38 -11 -25 -27 16 -19 87 17 212 10
220 -13 2 -6 20 -8 42 -5 23 3 40 1 40 -4 0 -13 49 -35 60 -28 11 7 70 -22 70
-34 0 -5 24 -11 52 -14 120 -12 153 -18 171 -35 13 -12 38 -17 87 -18 37 -1
84 -7 104 -14 21 -7 53 -9 72 -5 20 3 50 1 69 -5 26 -9 46 -8 92 4 64 16 68
17 203 19 52 1 100 5 107 10 15 9 43 -2 43 -18 0 -7 8 -23 19 -36 10 -13 21
-49 24 -79 12 -114 20 -156 35 -178 19 -30 24 -220 6 -242 -25 -30 -26 -65 -5
-84 23 -21 28 -65 10 -83 -8 -8 -6 -19 5 -41 9 -17 16 -50 16 -74 0 -32 5 -46
20 -56 16 -9 20 -23 20 -62 0 -30 7 -61 16 -75 14 -21 14 -30 4 -55 -11 -26
-10 -33 3 -48 8 -9 15 -28 15 -42 1 -14 3 -36 5 -50 13 -69 19 -318 8 -324 -6
-4 -11 -20 -11 -35 0 -15 -6 -35 -13 -45 -13 -17 -23 -18 -163 -7 -82 6 -221
18 -309 26 -309 30 -361 34 -510 45 -82 6 -177 15 -211 20 -33 6 -85 10 -114
10 -30 0 -102 4 -160 10 -142 13 -376 29 -600 40 -289 15 -549 30 -619 35
-235 19 -526 28 -996 32 -297 2 -551 1 -564 -2 -45 -11 -10 -19 107 -23 122
-4 143 -8 102 -19 l-25 -7 25 -7 c27 -9 -103 -1 -134 8 -11 3 -16 1 -12 -5 4
-7 -12 -12 -45 -14 -34 -2 -54 -8 -57 -17 -4 -11 6 -12 49 -7 91 11 224 10
245 -2 17 -10 15 -11 -14 -12 -18 0 -31 -4 -28 -9 10 -15 79 -18 106 -4 14 7
33 13 43 13 9 0 17 5 17 10 0 16 24 12 46 -7 16 -15 35 -18 109 -15 407 12
625 3 625 -25 0 -7 5 -13 10 -13 6 0 10 4 10 9 0 11 77 21 98 13 13 -4 10 -8
-11 -17 -25 -10 -17 -12 71 -23 55 -6 109 -10 120 -7 12 2 22 0 22 -5 0 -5 35
-9 78 -9 42 0 110 -7 151 -15 40 -8 76 -15 79 -14 19 4 172 -16 172 -22 0 -12
78 -31 103 -25 13 4 54 -1 91 -9 37 -9 83 -16 101 -16 19 0 69 -8 111 -17 65
-14 73 -18 53 -25 -23 -9 -23 -10 -4 -20 11 -6 23 -15 26 -21 8 -12 75 -14
116 -4 27 7 32 5 38 -13 4 -12 12 -19 18 -17 19 6 19 25 0 30 -12 3 -9 5 9 6
15 0 30 -4 33 -9 3 -5 22 -10 41 -10 38 0 41 -5 17 -32 -15 -17 -14 -18 15
-18 25 0 32 4 32 19 0 24 59 33 110 17 35 -11 35 -11 -23 -14 -65 -3 -74 -23
-16 -33 19 -4 42 -10 51 -14 13 -5 20 -1 27 16 7 18 10 19 10 7 1 -11 9 -18
20 -18 11 0 22 -4 25 -9 7 -10 79 -23 126 -22 33 1 34 0 16 -14 -10 -8 -23
-12 -27 -9 -5 3 -9 0 -9 -5 0 -6 16 -11 35 -11 19 0 35 -4 35 -9 0 -5 40 -9
89 -9 49 0 94 -3 99 -6 6 -3 51 -9 101 -13 88 -6 118 -17 91 -33 -10 -6 -8 -9
6 -14 10 -3 -3 -4 -31 -2 -46 4 -47 3 -18 -6 44 -14 83 -3 83 23 0 15 5 19 16
15 9 -3 31 -6 50 -6 30 0 34 -3 29 -19 -7 -23 16 -34 59 -26 21 4 44 -1 71
-14 32 -16 42 -17 50 -7 8 9 37 11 120 6 60 -3 129 -3 152 0 32 5 43 3 43 -6
0 -20 -30 -31 -75 -28 -22 1 -61 3 -86 5 -51 3 -109 -16 -109 -36 0 -7 19 -15
43 -19 36 -6 44 -4 56 14 14 20 14 20 37 -5 13 -14 32 -25 42 -25 11 0 22 -9
25 -20 3 -12 14 -20 26 -20 12 0 21 -4 21 -8 0 -14 -36 -43 -44 -35 -4 4 -11
1 -16 -7 -7 -11 -4 -17 7 -21 11 -3 -1 -13 -38 -29 -45 -19 -90 -26 -274 -41
-121 -10 -231 -20 -245 -23 -14 -4 -74 -8 -135 -10 -60 -2 -152 -9 -203 -15
-127 -14 -411 -24 -627 -21 -99 2 -236 2 -305 0 -69 -2 -168 -3 -220 -3 -52 0
-151 1 -220 1 -154 0 -137 0 -187 4 -24 2 -44 -1 -46 -6 -2 -5 -9 -6 -17 -1
-17 11 -99 15 -352 18 -160 1 -210 -1 -220 -11 -11 -11 -10 -16 5 -27 11 -8
17 -23 15 -36 -3 -19 -10 -23 -48 -25 -25 -1 -53 -3 -62 -3 -10 -1 -18 -8 -18
-16 0 -24 -37 -18 -44 7 -4 18 -8 20 -18 10 -6 -6 -25 -12 -40 -12 -32 0 -47
-24 -31 -49 9 -14 29 -16 134 -13 68 2 173 7 233 12 88 8 113 7 125 -4 9 -7
42 -17 74 -21 31 -3 64 -13 72 -22 11 -11 26 -13 55 -8 24 4 46 3 53 -3 8 -7
54 -8 132 -3 95 6 128 5 158 -7 26 -10 52 -12 85 -7 26 4 108 10 182 14 74 3
144 11 155 17 12 7 124 17 270 24 138 6 368 17 512 24 172 8 266 16 276 24 9
8 50 12 113 12 54 -1 179 0 277 0 l178 1 -7 -24 c-4 -20 -1 -27 16 -32 29 -9
57 6 149 78 78 60 137 94 148 83 3 -3 -14 -27 -38 -54 -61 -68 -80 -92 -71
-93 4 -1 12 -2 17 -4 6 -1 14 -3 19 -3 5 -1 -3 -13 -18 -26 -16 -13 -29 -35
-29 -50 -2 -20 -12 -31 -47 -48 l-45 -23 39 -3 c23 -2 42 2 46 9 4 6 12 9 18
5 6 -3 17 1 25 9 9 8 26 15 38 15 12 0 37 11 55 25 19 15 53 28 81 32 26 3 50
10 53 14 10 15 221 14 270 0 25 -8 47 -17 50 -21 3 -3 23 -14 45 -23 22 -10
51 -24 65 -32 14 -8 42 -23 63 -35 20 -11 37 -27 37 -35 0 -8 5 -15 10 -15 6
0 10 -7 10 -15 0 -8 20 -24 45 -36 25 -12 45 -27 45 -34 0 -16 55 -45 85 -45
14 0 25 -8 28 -20 4 -14 14 -20 34 -20 15 0 43 -9 61 -20 18 -11 39 -20 47
-20 20 0 19 36 0 44 -11 4 -14 13 -9 30 3 13 1 27 -6 31 -10 6 -67 13 -117 14
-14 1 -23 7 -23 16 0 9 -7 18 -15 21 -8 4 -15 12 -15 19 0 6 -20 25 -45 41
-25 15 -47 36 -50 45 -3 9 -21 27 -40 40 -19 13 -35 31 -35 39 0 8 -10 20 -22
25 -13 6 -28 20 -34 33 -6 12 -21 33 -33 46 -11 12 -21 26 -21 30 0 4 -12 23
-26 41 -14 19 -30 50 -34 70 -7 32 -6 36 16 41 25 6 34 34 12 34 -7 0 -5 5 5
11 15 9 23 7 40 -9 16 -14 28 -17 42 -12 26 11 75 12 75 2 0 -4 18 -7 40 -7
22 0 40 -4 40 -8 0 -5 6 -5 13 2 17 13 38 -5 30 -25 -3 -8 -1 -14 5 -14 5 0
13 7 16 15 4 12 10 13 25 6 10 -6 21 -8 23 -5 10 10 168 10 165 -1 -5 -14 -88
-27 -102 -15 -17 14 -43 -36 -27 -52 9 -9 12 -9 12 0 0 7 4 12 9 12 5 0 8 -8
7 -17 -1 -14 12 -17 89 -18 126 -2 135 -3 135 -19 0 -22 -29 -27 -61 -11 -16
9 -34 13 -40 9 -14 -8 45 -44 74 -44 13 0 28 -5 35 -12 9 -9 18 -8 38 3 17 9
29 10 31 4 2 -6 22 -9 45 -7 38 4 40 6 23 18 -17 13 -17 14 -1 14 9 0 15 4 12
9 -10 15 5 41 22 41 11 0 13 3 6 10 -7 7 -19 8 -37 1 -21 -8 -27 -17 -27 -42
0 -24 -3 -30 -16 -25 -9 3 -31 6 -50 6 -45 0 -43 13 4 33 l37 15 -42 1 c-23 1
-45 6 -49 12 -4 7 -39 10 -98 8 -50 -2 -97 0 -104 4 -20 14 -2 29 28 24 42 -9
68 2 75 31 4 15 10 21 12 15 3 -8 22 -13 43 -13 25 0 42 -6 48 -15 7 -13 37
-17 166 -20 95 -2 163 -8 171 -15 9 -8 15 -8 20 0 8 13 122 13 130 0 3 -6 1
-10 -4 -10 -15 0 -14 -27 1 -32 7 -3 8 -10 4 -17 -7 -11 -10 -11 -17 0 -6 11
-14 11 -44 0 -32 -11 -39 -11 -56 5 -23 21 -38 11 -18 -12 8 -10 13 -25 11
-36 -3 -16 5 -18 65 -20 37 -1 89 -1 115 1 25 1 49 -3 53 -8 8 -14 52 -14 60
-1 11 18 53 11 70 -12 l16 -23 -3 30 c-4 36 26 48 37 14 6 -17 9 -19 17 -8 7
10 8 8 5 -8 -4 -16 0 -23 9 -23 8 0 14 6 13 12 -3 28 2 38 21 38 16 0 20 -7
21 -32 1 -37 4 -30 14 25 6 37 25 52 25 20 0 -9 7 -24 16 -34 18 -20 10 -43
-12 -35 -12 5 -14 -5 -12 -47 3 -57 10 -67 48 -67 20 0 22 -2 10 -10 -8 -5
-25 -10 -37 -10 -24 0 -33 -20 -10 -20 6 -1 2 -9 -10 -19 -28 -23 -28 -27 -3
-34 13 -3 20 -14 20 -30 0 -19 9 -30 32 -41 17 -9 37 -16 45 -16 21 0 15 -19
-10 -31 -19 -9 -23 -17 -21 -52 2 -41 3 -42 40 -47 33 -4 36 -7 21 -16 -10 -6
-19 -18 -21 -28 -1 -10 -7 -21 -12 -24 -5 -4 -15 -19 -23 -35 -8 -15 -19 -27
-24 -27 -6 0 -2 -9 8 -20 16 -18 17 -21 1 -44 -9 -15 -22 -23 -30 -20 -9 3
-17 -3 -21 -15 -3 -12 -11 -21 -16 -21 -18 0 -9 -18 13 -23 34 -9 3 -40 -33
-33 -30 6 -49 -18 -22 -28 29 -11 2 -21 -63 -22 -59 -2 -64 -1 -65 19 0 15 -2
17 -6 7 -12 -32 -48 -41 -38 -10 5 15 2 20 -10 20 -13 0 -16 6 -12 21 3 12 0
22 -9 26 -20 8 -66 -6 -59 -17 4 -6 10 -8 15 -5 11 7 40 -5 40 -17 0 -15 -27
-38 -44 -38 -9 0 -13 6 -10 14 4 10 -3 16 -23 18 -20 2 -29 9 -31 26 -5 37
-35 24 -46 -20 -6 -26 -5 -27 23 -22 16 3 31 1 35 -4 11 -19 -8 -21 -64 -7
-30 7 -49 14 -42 14 14 1 33 41 25 54 -3 4 -10 4 -16 -1 -7 -5 -50 -10 -95
-11 -79 -2 -132 -15 -132 -32 0 -4 6 -10 13 -12 6 -3 -1 -6 -18 -6 -19 0 -25
2 -17 7 18 12 4 42 -22 43 -19 2 128 16 212 21 17 1 32 5 32 9 0 4 30 11 66
14 51 6 68 4 75 -6 7 -11 9 -11 9 2 0 18 -61 30 -118 23 -19 -2 -42 1 -52 6
-13 7 -21 7 -25 0 -4 -6 -11 -7 -17 -4 -6 4 -5 10 3 15 11 7 11 9 -1 9 -9 0
-22 -6 -28 -12 -10 -10 -14 -8 -18 10 -5 17 -14 22 -39 22 -18 0 -38 6 -44 14
-7 8 -27 18 -44 21 -18 4 -39 13 -47 19 -8 7 -52 34 -97 60 -45 26 -87 53 -93
61 -13 16 -90 21 -90 7 0 -10 37 -43 74 -67 14 -10 26 -22 26 -28 0 -13 48
-57 63 -57 21 -1 45 -26 44 -45 -1 -12 6 -21 18 -23 23 -5 45 -21 45 -32 0 -5
-18 -6 -40 -3 -44 6 -48 2 -23 -22 13 -14 14 -18 2 -25 -15 -10 -14 -11 16
-29 16 -9 10 -11 -39 -9 -37 2 -61 8 -64 16 -2 8 8 12 33 12 25 0 35 4 32 12
-2 8 -17 12 -36 10 -18 -2 -39 2 -46 8 -16 13 -191 17 -242 6 -19 -4 -34 -3
-38 3 -4 8 -13 8 -28 0 -14 -8 -59 -10 -142 -6 -83 4 -115 3 -102 -4 9 -6 15
-14 12 -19 -4 -6 -14 -5 -25 2 -14 9 -22 9 -33 0 -10 -8 -32 -10 -69 -6 -50 6
-57 4 -71 -17 -13 -17 -20 -20 -28 -12 -7 7 -8 17 -3 25 5 7 9 28 10 46 l1 32
-66 -1 c-41 -1 -79 -8 -101 -19 -89 -45 -91 -45 -100 -30 -7 12 -12 12 -22 2
-16 -16 -43 -15 -58 3 -10 12 -9 16 4 21 34 13 15 25 -29 18 -29 -4 -50 -2
-59 5 -8 7 -17 8 -20 3 -3 -5 -48 -7 -101 -4 -62 3 -95 1 -95 -6 0 -12 -68
-37 -77 -28 -4 3 2 13 13 21 19 14 19 14 -1 15 -11 0 -30 -3 -43 -6 -21 -6
-21 -7 -5 -20 16 -12 -2 -14 -127 -12 -90 2 -144 7 -143 13 1 6 12 12 24 15
25 6 38 30 17 30 -8 0 -19 -5 -26 -12 -8 -8 -15 -8 -25 0 -17 14 -149 4 -140
-11 4 -6 -13 -8 -48 -3 -94 11 -189 14 -195 5 -3 -5 -10 -9 -15 -9 -6 0 -3 7
6 16 10 11 25 14 44 11 15 -3 32 -2 37 3 6 6 23 6 44 0 19 -5 36 -6 39 -2 4 4
40 7 81 7 41 0 78 4 82 9 3 5 43 10 88 11 45 2 85 7 89 12 3 6 33 14 66 18 47
6 55 9 35 15 -14 3 -54 3 -90 -1 -250 -29 -242 -29 -268 -8 -13 10 -29 16 -35
12 -8 -5 -7 -8 1 -11 7 -2 12 -11 12 -20 -1 -13 -6 -10 -21 10 -25 34 -52 37
-47 6 3 -20 -1 -21 -99 -23 -98 -1 -127 6 -83 20 11 3 20 11 20 17 0 5 -6 7
-12 4 -7 -3 -21 -9 -30 -12 -10 -4 -18 -13 -18 -20 0 -8 -9 -14 -20 -14 -37 0
-99 -31 -93 -46 4 -10 -2 -14 -20 -14 -14 0 -28 4 -31 9 -3 5 -20 7 -38 6 -18
-2 -40 -3 -49 -4 -20 -1 -79 -54 -79 -70 0 -20 -22 -37 -85 -66 -60 -27 -129
-72 -175 -112 -13 -13 -29 -23 -33 -23 -5 0 -29 -13 -53 -30 -26 -17 -59 -30
-81 -31 -56 -4 -104 27 -72 46 5 4 14 18 19 31 7 16 17 24 34 24 13 0 26 6 29
13 3 8 40 31 82 52 42 20 84 45 93 54 31 31 96 76 144 100 26 13 46 29 45 35
-1 6 7 11 18 11 11 0 24 10 30 23 5 12 19 23 30 24 40 3 44 3 51 11 4 4 -11 7
-32 7 -22 0 -45 -5 -52 -12 -9 -9 -12 -9 -12 0 0 7 -6 12 -14 12 -8 0 -17 6
-20 13 -5 9 -7 9 -12 0 -3 -7 -12 -13 -19 -13 -7 0 -16 -7 -19 -16 -4 -11 -13
-14 -30 -10 -21 5 -25 2 -28 -21 -2 -23 -7 -27 -27 -25 -16 3 -21 0 -16 -8 5
-8 3 -11 -6 -8 -8 3 -15 14 -17 25 -4 24 -28 38 -38 22 -3 -5 -1 -16 5 -23 12
-14 5 -26 -16 -26 -9 0 -13 8 -11 22 3 22 1 23 -84 22 -49 -1 -88 2 -88 7 0 5
9 9 20 9 11 0 20 7 20 16 0 9 -5 12 -12 8 -14 -9 -76 -10 -85 -1 -3 4 -18 7
-32 6 -14 0 -20 -3 -13 -6 18 -7 15 -21 -7 -33 -13 -6 -33 -7 -58 -1 -31 7
-33 9 -11 10 15 1 30 6 33 11 11 17 -54 11 -95 -9 -22 -10 -40 -15 -42 -9 -13
37 -338 41 -338 3 0 -15 -30 -29 -39 -19 -3 4 0 9 6 11 7 3 13 11 13 18 0 11
-18 13 -83 9 -46 -2 -93 1 -108 7 -18 7 -38 7 -61 1 -29 -8 -38 -6 -62 14 -15
13 -39 24 -54 25 -141 6 -153 5 -163 -8 -6 -7 -9 -14 -5 -14 3 -1 11 -3 16 -4
6 -1 15 -3 20 -4 14 -2 -12 -41 -27 -41 -7 0 -13 7 -13 15 0 8 -4 15 -10 15
-5 0 -10 -9 -10 -19 0 -36 -12 -51 -39 -50 l-26 1 24 7 c14 4 26 12 29 19 4
12 -5 14 -73 14 -22 1 -43 6 -47 12 -5 8 -11 7 -20 -2 -20 -20 -29 -14 -22 16
8 31 35 71 48 72 4 0 5 -11 2 -25 -5 -19 -3 -23 8 -19 8 3 13 11 10 19 -6 14
24 25 69 25 15 0 27 5 27 10 0 7 -35 10 -99 8 l-99 -2 -4 -28 c-3 -15 -1 -28
4 -28 4 0 8 7 8 15 0 8 6 12 14 9 11 -4 12 -12 3 -40 -9 -31 -14 -35 -41 -32
-23 2 -33 10 -41 31 -8 23 -6 30 8 38 9 6 17 19 17 29 0 21 -15 27 -25 9 -4
-6 -19 -7 -37 -4 -21 5 -34 3 -40 -6 -6 -10 -11 -10 -14 -3 -6 14 -50 6 -64
-11 -14 -16 73 -29 101 -14 11 5 24 7 29 4 16 -10 12 -45 -5 -45 -8 0 -15 -5
-15 -11 0 -7 -10 -9 -26 -5 -20 5 -27 3 -31 -14 -6 -23 -23 -27 -23 -5 0 8 5
15 10 15 6 0 10 5 10 11 0 6 -9 8 -21 4 -14 -5 -19 -4 -15 4 5 7 1 9 -9 5 -12
-5 -15 -14 -10 -31 4 -16 2 -22 -5 -18 -5 3 -10 15 -10 27 0 17 -5 19 -32 15
-18 -3 -44 -8 -57 -13 -20 -6 -23 -4 -18 9 7 19 -8 23 -19 6 -3 -6 -19 -9 -34
-6 -15 3 -32 1 -39 -6 -7 -7 -14 -8 -21 -1 -6 6 -29 8 -53 4 -34 -4 -42 -9
-40 -25 1 -18 0 -18 -18 4 -24 29 -24 37 1 44 11 3 20 1 20 -4 0 -14 28 -11
33 4 4 9 8 9 15 -1 7 -11 10 -11 16 3 4 12 10 14 22 7 10 -5 46 -7 80 -4 50 4
64 2 64 -9 1 -10 4 -9 11 3 5 10 19 18 29 18 11 0 20 5 20 10 0 6 -11 10 -24
10 -15 0 -26 7 -29 18 -4 14 -6 14 -12 -5 -9 -27 -20 -29 -33 -7 -8 14 -14 15
-46 4 -20 -6 -43 -9 -51 -6 -8 3 -38 1 -67 -3 -33 -6 -55 -5 -59 1 -4 5 -30 7
-62 4 -35 -4 -58 -3 -62 4 -5 8 -14 6 -31 -5 -18 -11 -47 -15 -119 -13 -52 1
-92 5 -88 8 17 14 63 29 63 21 0 -13 51 -20 72 -10 10 5 27 13 37 19 13 6 30
6 51 -1 25 -9 34 -8 49 5 11 10 25 14 36 10 13 -5 16 -3 13 7 -3 8 -10 13 -16
12 -6 -1 -40 1 -77 6 -48 5 -70 4 -79 -4 -10 -10 -16 -10 -31 1 -24 18 -35 18
-35 -1 0 -12 -10 -16 -42 -15 -24 1 -87 -1 -141 -3 -86 -4 -97 -3 -95 12 2 11
-6 17 -25 19 -19 2 -27 9 -27 23 0 10 -5 19 -11 19 -6 0 -8 -9 -4 -20 5 -15 2
-20 -13 -20 -11 0 -22 6 -25 13 -3 9 -24 14 -54 16 -26 1 -50 6 -51 11 -6 16
-22 0 -22 -21 0 -13 10 -24 30 -30 38 -14 39 -29 2 -29 -32 0 -52 16 -52 41 0
10 -5 21 -11 25 -8 5 -10 -3 -7 -25 5 -34 3 -35 -74 -31 -37 1 -38 1 -38 -33
0 -20 6 -38 13 -41 9 -5 9 -7 0 -12 -10 -4 -13 -217 -13 -1015 l0 -1009 3405
0 c2841 0 3404 2 3399 13 -3 8 2 20 11 27 8 7 15 25 15 40 0 34 17 49 64 57
27 4 37 2 42 -11 9 -25 24 -19 24 10 0 24 -2 25 -45 18 -30 -4 -45 -3 -46 5
-4 39 -1 58 8 76 6 11 14 35 18 52 3 18 11 35 16 38 5 4 9 21 9 39 0 19 7 39
15 46 8 7 15 24 15 38 0 13 7 30 15 36 16 12 21 72 16 186 -4 114 10 343 24
390 7 25 17 67 20 93 4 27 14 51 21 54 8 3 14 20 14 40 0 19 7 47 15 63 21 40
10 108 -19 120 -21 9 -21 9 2 9 19 1 21 4 13 19 -6 10 -8 28 -5 39 7 25 -20
53 -45 46 -10 -3 -22 0 -25 6 -5 7 5 11 28 11 25 0 36 4 36 15 0 9 -9 15 -25
15 -23 0 -24 2 -13 25 17 39 52 56 96 49 25 -4 51 0 76 10 90 38 133 7 122
-87 -3 -28 -2 -59 3 -67 6 -9 6 -19 -1 -27 -6 -7 -8 -22 -5 -32 3 -13 1 -18
-8 -15 -15 6 -26 -81 -14 -107 5 -9 5 -20 1 -24 -4 -3 -8 -25 -9 -48 -2 -60
-19 -131 -32 -135 -7 -2 -11 -36 -11 -87 0 -74 2 -86 21 -99 19 -13 20 -20 13
-53 -4 -21 -7 -54 -5 -74 1 -23 -3 -40 -13 -48 -23 -19 -20 -62 4 -68 32 -8
25 -40 -11 -47 -25 -5 -29 -9 -24 -27 4 -13 -3 -43 -21 -82 -18 -40 -23 -62
-15 -65 17 -6 13 -20 -9 -27 -11 -3 -20 -12 -20 -18 0 -7 -9 -20 -21 -30 -13
-12 -18 -24 -14 -37 4 -13 -1 -22 -15 -30 -18 -10 -20 -17 -15 -58 6 -42 3
-52 -25 -90 -18 -24 -35 -41 -38 -38 -8 9 -42 -14 -42 -28 0 -8 7 -19 15 -26
21 -18 19 -47 -5 -60 -11 -6 -20 -17 -20 -25 0 -13 86 -15 650 -15 l650 0 0
800 0 800 -40 0 c-22 0 -57 6 -77 14 -21 8 -62 17 -92 20 -30 3 -59 10 -65 16
-5 5 -28 10 -50 10 -68 0 -88 9 -83 36 5 28 -8 32 -22 7 -10 -17 -10 -16 -11
2 -1 18 -1 19 -11 3 -13 -22 -44 -23 -134 -2 -160 37 -211 59 -180 77 8 4 15
15 15 23 0 13 -3 13 -23 0 -17 -12 -32 -13 -70 -5 -50 11 -56 19 -31 43 12 12
12 16 2 17 -7 1 -20 3 -28 4 -8 1 -30 3 -49 4 l-33 1 31 35 c51 59 34 112 -41
130 -33 9 -43 16 -49 38 -7 25 -5 28 13 25 16 -2 23 4 29 23 11 44 0 79 -26
79 -17 0 -25 9 -35 39 -13 40 -8 61 15 61 27 0 24 29 -5 50 -17 12 -30 30 -30
41 0 11 -4 29 -10 39 -8 15 -5 23 16 39 15 12 35 21 45 21 10 0 21 5 24 10 3
6 -5 10 -19 10 -32 0 -56 10 -56 22 0 5 19 9 43 7 68 -4 97 8 97 41 0 16 -4
32 -10 35 -5 3 -10 13 -10 22 0 13 8 14 48 9 44 -7 75 -9 105 -6 6 1 26 -1 42
-4 17 -3 45 -9 63 -12 22 -4 32 -12 32 -25 0 -19 -20 -17 -48 4 -6 5 -30 7
-52 3 -23 -3 -49 -2 -60 4 -12 7 -21 7 -25 0 -3 -5 -20 -10 -36 -10 -27 0 -29
-2 -23 -27 4 -16 9 -30 11 -32 2 -3 64 -6 139 -7 74 0 140 -6 145 -11 6 -6 32
-6 71 0 53 8 62 7 71 -8 7 -14 18 -15 60 -9 29 4 73 7 100 7 26 0 47 4 47 9 0
5 4 6 10 3 19 -12 11 -38 -10 -32 -11 3 -23 1 -26 -4 -3 -5 10 -9 29 -9 27 0
36 5 41 23 6 20 8 20 18 6 9 -13 17 -15 40 -7 19 7 38 6 59 -1 18 -6 49 -11
70 -11 l39 0 0 339 0 339 -31 6 c-17 3 -50 6 -72 6 -23 0 -66 4 -96 10 -48 8
-266 33 -531 61 -41 4 -142 14 -225 23 -82 9 -151 16 -152 16 -2 0 -3 5 -3 10
0 6 9 10 20 10 11 0 20 6 20 14 0 8 7 22 16 30 8 9 15 26 14 39 -4 38 -1 45
20 52 16 5 20 15 20 46 0 26 -4 39 -13 39 -14 0 -47 31 -47 43 0 3 10 7 23 9
34 5 31 42 -7 63 -44 26 -49 38 -23 57 19 15 19 18 5 18 -22 0 -24 36 -3 44
19 7 19 53 0 63 -12 7 -13 14 -3 41 10 27 10 34 -4 44 -8 7 -19 26 -22 42 -4
17 -15 36 -24 43 -16 12 -16 14 3 31 11 9 19 25 17 35 -2 9 4 20 12 23 22 8
22 96 1 114 -15 13 -21 50 -7 50 4 0 7 21 6 46 0 31 4 48 14 51 11 5 11 7 0
14 -10 7 -11 12 -1 28 8 13 9 22 3 26 -6 3 -10 21 -10 39 0 23 -7 38 -22 48
-17 11 -23 26 -25 64 -1 27 -2 52 -2 55 -1 4 -10 9 -22 12 -17 5 -19 11 -14
40 4 19 3 37 -2 40 -5 3 -8 34 -7 69 1 35 2 84 3 110 1 46 2 48 44 66 29 13
49 16 65 10 36 -13 104 -9 135 7 15 8 34 12 42 8 23 -8 65 24 65 51 0 28 16
36 76 36 37 0 44 3 42 18 -2 11 3 17 15 16 9 -1 17 4 17 12 0 8 7 14 15 14 18
0 35 31 35 64 0 14 7 29 16 34 25 14 13 44 -23 56 -73 25 -49 46 54 46 68 0
73 1 85 27 7 15 21 29 30 31 10 2 31 16 47 31 l30 28 -40 19 c-38 17 -41 20
-36 51 3 18 1 35 -4 38 -19 12 -8 24 28 31 l37 7 -38 32 c-28 23 -37 38 -34
56 3 22 7 24 56 24 28 -1 52 3 52 7 0 4 -7 8 -15 8 -8 0 -12 6 -9 14 3 8 -1
16 -10 18 -21 4 -6 27 22 33 12 2 24 0 27 -6 4 -5 12 -9 18 -9 9 0 9 2 0 8 -7
5 -9 13 -3 21 6 11 11 9 21 -8 16 -25 55 -28 87 -5 19 13 22 13 22 1 0 -8 -7
-18 -16 -21 -16 -6 -16 -8 0 -24 19 -22 21 -43 4 -60 -6 -6 -9 -15 -5 -19 4
-3 14 2 21 13 13 16 18 17 35 6 15 -8 21 -9 21 -1 0 7 12 9 34 5 45 -9 66 1
66 30 0 17 6 24 20 24 17 0 20 7 20 39 0 33 -4 40 -22 44 l-23 4 23 2 22 1 0
613 0 614 -25 23 c-13 12 -34 28 -46 34 -30 15 -39 40 -11 32 15 -5 25 -1 34
13 7 12 21 21 30 21 15 0 18 9 18 59 0 55 -2 59 -26 64 -19 3 -24 1 -20 -10 7
-18 -20 -28 -45 -17 -19 9 -19 10 8 41 16 17 41 35 56 38 l27 7 -1 267 c0 146
-4 318 -8 381 -4 63 -4 119 1 125 31 36 138 35 -3946 35 -2521 0 -3957 -3
-3961 -10 -4 -6 -15 -6 -31 0 -14 6 -95 10 -180 10 -126 0 -154 -3 -154 -14z
m711 -66 c7 -51 35 -250 50 -355 5 -38 14 -99 19 -135 4 -36 12 -86 16 -112
l7 -48 -97 0 -96 0 0 29 c0 16 -3 43 -6 60 -5 25 -11 31 -28 29 -18 -3 -21
-11 -24 -60 l-3 -58 -101 0 -101 0 7 38 c4 20 11 69 16 107 4 39 16 129 25
200 9 72 21 166 26 210 12 104 16 139 18 143 0 1 61 1 134 0 l132 -3 6 -45z
m369 31 c5 -11 10 -33 10 -50 0 -44 23 -171 31 -171 3 0 9 27 13 60 3 33 9 87
12 121 l7 60 125 -3 124 -3 1 -345 0 -345 -87 -3 -86 -3 -1 168 c-1 147 -3
159 -10 98 -5 -38 -15 -113 -22 -165 l-12 -95 -67 -3 -68 -3 0 32 c0 17 -4 59
-10 93 -5 33 -13 84 -16 111 l-7 50 -8 -35 c-5 -19 -6 -84 -3 -143 l6 -108
-88 3 -88 3 2 340 c1 187 2 343 2 348 0 4 52 7 115 7 103 0 115 -2 125 -19z
m558 -18 c45 -145 64 -203 68 -203 3 0 4 53 3 118 l-1 117 83 0 84 0 3 -348 2
-348 -91 3 -92 3 -24 94 c-44 170 -52 175 -45 29 l5 -128 -87 0 -86 0 0 343
c0 189 3 347 7 350 3 4 41 7 83 7 l77 0 11 -37z m493 17 c-3 -13 -7 -102 -24
-460 l-2 -45 -75 0 -75 0 -7 145 c-4 80 -12 195 -17 255 -4 61 -6 114 -4 118
3 4 50 6 106 5 85 -3 101 -6 98 -18z m231 -50 c-2 -36 -7 -149 -11 -252 -5
-102 -12 -191 -15 -197 -8 -12 -125 -15 -142 -3 -7 4 -14 74 -17 192 -4 102
-10 218 -13 258 l-7 73 104 -3 104 -3 -3 -65z m240 45 c-2 -16 -14 -239 -23
-453 -3 -49 -13 -55 -100 -50 l-54 3 -7 155 c-5 85 -12 200 -16 255 -5 55 -7
104 -4 108 2 4 49 6 105 5 96 -3 102 -4 99 -23z m231 18 c2 -5 0 -69 -4 -143
-4 -74 -10 -186 -13 -249 -4 -62 -9 -117 -12 -122 -6 -10 -77 -12 -123 -3
l-31 7 0 116 c0 64 -5 173 -12 242 -6 69 -9 133 -5 142 5 14 22 17 101 17 52
0 97 -3 99 -7z m238 -13 c-3 -15 -20 -310 -24 -425 -2 -33 -6 -66 -10 -72 -5
-8 -32 -13 -73 -13 -43 0 -66 4 -69 13 -2 6 -9 113 -15 237 -6 124 -12 234
-14 245 -2 11 -1 24 1 28 3 4 50 6 106 5 85 -3 101 -6 98 -18z m232 13 c2 -5
0 -71 -4 -148 -4 -77 -9 -189 -12 -248 -2 -59 -8 -112 -14 -118 -5 -5 -41 -9
-79 -7 l-69 3 -2 95 c-1 52 -7 163 -14 247 -6 83 -9 159 -6 167 5 13 24 16
101 16 52 0 97 -3 99 -7z m238 -13 c-2 -8 -8 -107 -13 -220 -5 -113 -10 -223
-12 -245 l-2 -40 -74 0 -75 0 -7 125 c-5 69 -12 184 -16 255 -5 72 -7 134 -4
138 2 4 49 6 105 5 85 -3 101 -6 98 -18z m230 -35 c-1 -28 -4 -64 -7 -80 -2
-17 -7 -109 -10 -205 -4 -110 -11 -178 -18 -182 -13 -9 -108 -10 -129 -2 -12
4 -15 29 -16 122 -1 64 -6 174 -12 244 -6 70 -9 135 -5 143 5 13 23 15 103 13
l97 -3 -3 -50z m232 0 c-7 -161 -26 -461 -30 -467 -5 -10 -125 -10 -138 0 -5
4 -10 36 -11 72 0 36 -5 148 -11 250 -6 102 -8 189 -6 193 3 4 48 6 101 5 l97
-3 -2 -50z m231 -35 c-1 -47 -5 -164 -10 -260 l-9 -175 -54 -3 c-97 -6 -101
-3 -102 81 0 39 -6 154 -12 254 -8 122 -9 184 -2 187 5 3 51 4 100 3 l90 -2
-1 -85z m240 82 c4 -7 -4 -159 -22 -417 l-7 -100 -70 0 -70 0 -7 85 c-12 133
-26 424 -21 433 6 9 190 9 197 -1z m231 -116 c-3 -67 -9 -184 -13 -261 l-7
-140 -75 0 -75 0 -7 150 c-4 83 -11 198 -15 257 -5 71 -5 110 2 112 5 3 52 4
103 3 l94 -1 -7 -120z m236 104 c-2 -8 -7 -121 -12 -250 -5 -129 -11 -241 -14
-247 -3 -9 -28 -13 -75 -13 -47 0 -72 4 -75 13 -7 17 -24 500 -18 510 3 4 48
6 101 5 80 -3 96 -6 93 -18z m232 -20 c0 -19 -4 -120 -8 -225 -8 -225 -9 -237
-19 -253 -8 -13 -124 -17 -141 -4 -5 4 -10 16 -10 27 0 48 -17 423 -20 450 -2
16 -2 32 0 36 3 3 48 6 102 5 l98 -1 -2 -35z m238 20 c-2 -8 -7 -121 -12 -250
-5 -129 -11 -241 -14 -247 -5 -14 -140 -19 -148 -5 -3 4 -8 104 -12 222 -4
118 -10 232 -15 252 -5 25 -4 39 4 42 6 3 54 4 106 3 79 -2 94 -5 91 -17z
m237 2 c3 -8 0 -74 -6 -146 -7 -72 -13 -181 -13 -243 -1 -88 -4 -113 -16 -117
-22 -9 -116 -7 -131 3 -9 5 -15 45 -18 127 -3 65 -9 178 -14 249 -6 95 -5 132
4 138 6 4 51 6 100 5 67 -1 89 -5 94 -16z m227 -79 c-10 -188 -19 -398 -16
-407 1 -5 -4 -13 -11 -17 -16 -11 -119 -11 -133 -1 -6 4 -11 25 -11 47 -2 76
-14 330 -20 393 -2 35 -2 67 1 72 4 6 49 10 101 10 l95 0 -6 -97z m230 89 c7
-5 8 -52 4 -142 -4 -74 -9 -188 -10 -253 -3 -134 -1 -131 -99 -125 -52 3 -54
4 -61 36 -4 18 -7 78 -8 135 -1 56 -6 156 -11 222 -4 66 -6 123 -3 128 5 9
175 9 188 -1z m246 -12 c-2 -8 -8 -123 -13 -255 -6 -153 -14 -242 -21 -247
-12 -7 -102 -8 -128 -2 -14 4 -18 30 -23 187 -7 195 -15 307 -22 318 -8 14 22
18 116 16 79 -2 94 -5 91 -17z m234 -40 c0 -30 -4 -95 -8 -145 -4 -49 -8 -141
-9 -202 -2 -92 -5 -114 -18 -118 -13 -4 -140 -5 -140 -1 0 0 -3 60 -6 131 -3
72 -9 186 -13 255 -4 69 -6 129 -3 133 2 4 47 6 100 5 l97 -3 0 -55z m237 35
c-2 -11 -5 -87 -8 -170 -3 -82 -9 -190 -12 -240 l-7 -90 -75 0 -75 0 -2 30
c-7 82 -20 481 -16 488 3 5 48 7 101 5 90 -3 97 -4 94 -23z m238 8 c0 -10 -5
-72 -10 -138 -5 -66 -10 -175 -11 -242 -1 -77 -6 -123 -13 -126 -31 -10 -135
-7 -142 4 -4 7 -9 64 -11 128 -2 64 -8 175 -13 246 -4 72 -6 133 -3 138 2 4
49 7 104 7 88 0 99 -2 99 -17z m232 -1 c-3 -17 -9 -126 -17 -337 -4 -88 -9
-163 -12 -167 -6 -11 -125 -10 -141 1 -7 4 -12 23 -12 42 3 74 -12 406 -20
436 -4 17 -5 34 -2 38 3 3 51 4 106 3 78 -2 100 -6 98 -16z m234 -37 c0 -27
-3 -86 -8 -130 -4 -44 -8 -137 -9 -207 -1 -144 3 -138 -90 -138 -74 0 -75 3
-78 160 -2 63 -6 169 -10 235 -4 66 -6 124 -3 128 2 4 47 6 100 5 l97 -3 1
-50z m237 30 c-2 -11 -7 -126 -13 -255 -6 -129 -15 -239 -19 -243 -4 -4 -39
-7 -77 -5 l-69 3 -1 50 c-1 50 -10 224 -20 388 l-5 88 103 -3 c96 -3 103 -4
101 -23z m232 15 c4 -6 2 -79 -4 -163 -6 -83 -12 -197 -14 -252 l-2 -100 -75
0 -75 0 -7 70 c-9 89 -25 437 -20 448 5 11 190 8 197 -3z m237 -15 c-1 -11 -5
-87 -8 -170 -3 -82 -9 -190 -12 -240 l-7 -90 -75 0 c-73 0 -75 1 -77 25 -1 14
-5 111 -9 215 -3 105 -10 209 -14 232 -4 23 -5 45 -2 48 3 3 51 4 106 3 94 -3
101 -4 98 -23z m-6112 -605 l0 -70 -89 0 c-50 0 -91 3 -93 8 -2 4 -2 35 0 70
l4 62 89 0 89 0 0 -70z m230 0 l0 -70 -85 0 -85 0 0 70 0 70 85 0 85 0 0 -70z
m240 0 l0 -71 -91 3 -91 3 0 63 c1 34 1 64 1 67 1 3 42 5 91 5 l90 0 0 -70z
m230 0 l0 -70 -84 0 -84 0 -4 66 c-1 36 -1 68 1 70 2 2 42 4 88 4 l83 0 0 -70z
m240 0 l0 -71 -91 3 -91 3 0 60 c0 33 1 63 1 68 1 4 42 7 91 7 l90 0 0 -70z
m230 0 l0 -70 -83 0 c-46 0 -86 2 -88 4 -2 2 -2 34 -1 70 l4 66 84 0 84 0 0
-70z m240 0 l0 -71 -91 3 -91 3 0 63 c1 34 1 64 1 67 1 3 42 5 91 5 l90 0 0
-70z m223 0 l-1 -65 -80 -3 -80 -3 -4 66 c-1 37 -1 69 2 71 2 3 40 3 85 2 l80
-3 -2 -65z m245 3 l-3 -68 -92 -3 -93 -3 0 71 0 70 95 0 96 0 -3 -67z m226 -3
l-1 -65 -86 -3 -87 -3 0 71 0 71 88 -3 87 -3 -1 -65z m244 -2 l3 -68 -95 0
-96 0 0 63 c0 35 3 67 7 71 4 4 46 5 93 4 l85 -3 3 -67z m230 0 l3 -68 -91 0
-90 0 0 63 c0 35 3 67 7 71 4 4 43 5 88 4 l80 -3 3 -67z m234 6 c2 -42 -1 -68
-8 -71 -6 -2 -48 -3 -94 -1 l-82 3 0 63 c1 34 1 64 1 67 1 3 41 5 90 5 l89 0
4 -66z m228 -4 l0 -70 -85 0 -85 0 0 70 0 70 85 0 85 0 0 -70z m240 0 l0 -70
-90 0 -90 0 0 70 0 70 90 0 90 0 0 -70z m230 0 l0 -70 -85 0 -85 0 0 70 0 70
85 0 85 0 0 -70z m240 0 l0 -70 -90 0 -90 0 0 70 0 70 90 0 90 0 0 -70z m230
0 l0 -70 -85 0 -85 0 0 70 0 70 85 0 85 0 0 -70z m240 0 l0 -70 -90 0 -90 0 0
70 0 70 90 0 90 0 0 -70z m230 0 l0 -70 -85 0 -85 0 0 70 0 70 85 0 85 0 0
-70z m240 0 l0 -70 -90 0 -90 0 0 70 0 70 90 0 90 0 0 -70z m230 0 l0 -70 -85
0 -85 0 0 70 0 70 85 0 85 0 0 -70z m240 0 l0 -70 -90 0 -90 0 0 70 0 70 90 0
90 0 0 -70z m230 0 l0 -70 -85 0 -85 0 0 70 0 70 85 0 85 0 0 -70z m240 0 l0
-70 -90 0 -90 0 0 70 0 70 90 0 90 0 0 -70z m230 0 l0 -70 -85 0 -85 0 0 70 0
70 85 0 85 0 0 -70z m242 4 c1 -36 1 -68 -1 -70 -2 -2 -44 -4 -93 -4 l-88 0 0
70 0 70 89 0 89 0 4 -66z m-1830 -173 c36 -31 39 -37 33 -68 -8 -42 8 -65 39
-57 16 4 25 -2 38 -24 17 -28 17 -31 1 -43 -11 -9 -17 -10 -20 -3 -2 6 -17 9
-33 6 -19 -3 -43 4 -65 17 -20 12 -43 21 -51 21 -8 0 -14 5 -14 10 0 6 -7 10
-15 10 -8 0 -17 15 -21 38 -4 20 -12 40 -18 44 -13 9 -62 11 -53 2 11 -12 -13
-44 -33 -44 -11 0 -20 4 -20 9 0 5 -15 11 -32 15 -24 5 -29 9 -19 15 12 7 10
14 -8 36 -11 15 -21 31 -21 36 0 11 38 14 164 13 108 0 109 0 148 -33z m853
-76 c0 -11 8 -21 18 -23 9 -2 17 -10 17 -18 0 -8 8 -14 18 -15 13 0 13 -2 -5
-9 -12 -5 -24 -18 -28 -29 -3 -12 -15 -21 -25 -21 -10 0 -24 -2 -32 -5 -7 -3
-20 0 -28 5 -13 8 -13 13 2 40 10 17 15 37 12 44 -8 21 15 58 34 54 9 -2 17
-12 17 -23z m-975 -24 c14 -28 13 -31 -15 -31 -26 0 -29 7 -19 34 8 21 21 20
34 -3z m1127 -93 c6 -5 9 -16 6 -24 -6 -16 -43 -19 -43 -4 0 6 -7 10 -15 10
-8 0 -15 5 -15 10 0 6 7 10 15 10 8 0 15 5 15 11 0 10 13 6 37 -13z m-657 -12
c0 -19 -9 -24 -30 -19 -16 4 -17 9 -10 24 11 19 40 16 40 -5z m-235 -16 c-3
-5 -10 -10 -16 -10 -5 0 -9 5 -9 10 0 6 7 10 16 10 8 0 12 -4 9 -10z m275 2
c0 -13 77 -92 90 -92 14 0 12 -11 -5 -34 -14 -19 -16 -19 -27 -3 -12 16 -14
16 -26 -3 -8 -14 -9 -20 -1 -20 8 0 8 -4 -1 -15 -19 -23 -50 -1 -50 35 0 16
-5 32 -11 35 -6 4 -8 13 -5 20 2 7 -2 16 -10 19 -8 3 -14 1 -14 -5 0 -6 -12
-9 -27 -7 -20 2 -28 9 -28 23 0 17 7 20 45 20 35 0 45 4 48 18 3 17 22 25 22
9z m-186 -57 c3 -8 1 -15 -4 -15 -6 0 -10 7 -10 15 0 8 2 15 4 15 2 0 6 -7 10
-15z m476 -225 c17 -11 20 -30 7 -47 -14 -20 -37 -3 -37 28 0 31 6 34 30 19z
m70 -34 c0 -9 -30 -14 -35 -6 -4 6 3 10 14 10 12 0 21 -2 21 -4z m-950 -141
c10 -13 9 -15 -9 -15 -12 0 -21 6 -21 15 0 8 4 15 9 15 5 0 14 -7 21 -15z m65
-41 c17 -13 18 -16 5 -24 -11 -7 -16 -5 -18 10 -3 17 -13 20 -80 23 l-77 3 75
2 c53 1 81 -3 95 -14z m-118 -60 c-3 -3 -12 -4 -19 -1 -8 3 -5 6 6 6 11 1 17
-2 13 -5z m845 -96 c-11 -11 -32 -3 -32 12 0 4 9 6 21 3 13 -4 17 -9 11 -15z
m256 -42 c24 -23 25 -27 11 -41 -15 -15 -49 -11 -49 5 0 5 -9 6 -20 3 -14 -4
-20 0 -20 11 0 9 -9 21 -20 28 -33 21 -23 31 26 25 32 -3 55 -13 72 -31z
m-3303 -45 c3 -5 1 -12 -5 -16 -5 -3 -10 1 -10 9 0 18 6 21 15 7z m163 -3 c-3
-7 -13 -15 -23 -16 -15 -4 -16 -2 -4 12 17 19 32 21 27 4z m3827 -448 c3 -6
-1 -7 -9 -4 -18 7 -21 14 -7 14 6 0 13 -4 16 -10z m235 -12 c0 -19 -1 -20 -17
-5 -10 8 -29 17 -43 20 -16 3 -10 5 18 6 37 1 42 -2 42 -21z m-255 -8 c4 -6
-5 -10 -20 -10 -15 0 -24 4 -20 10 3 6 12 10 20 10 8 0 17 -4 20 -10z m205
-47 c0 -7 -7 -13 -15 -13 -8 0 -15 -4 -15 -10 0 -5 -11 -12 -25 -16 -14 -3
-30 -15 -36 -26 -10 -19 -11 -19 -25 7 -25 48 -22 59 16 66 55 10 100 6 100
-8z m78 -38 c-16 -13 -28 -31 -28 -40 0 -8 -4 -15 -10 -15 -5 0 -10 18 -10 40
0 40 0 40 38 40 l37 -1 -27 -24z m-6528 -366 c0 -16 -61 -47 -80 -42 -26 7
-33 31 -12 42 21 12 92 12 92 0z m3934 -210 c10 -15 16 -15 43 -4 40 17 86 14
107 -8 22 -21 19 -22 78 8 65 33 153 36 161 5 l5 -20 35 20 c34 20 60 22 85 7
6 -5 17 -5 23 -1 8 4 9 -1 3 -17 -10 -31 -6 -82 7 -90 17 -10 60 3 72 22 14
23 67 26 67 4 0 -16 36 -28 66 -24 22 4 64 -17 64 -31 0 -6 -3 -9 -7 -9 -5 1
-17 1 -27 0 -18 -1 -18 -2 -4 -13 9 -7 18 -22 20 -33 4 -25 33 -31 65 -14 20
11 26 11 33 -1 14 -21 12 -50 -2 -50 -29 -1 28 -30 58 -30 34 0 44 -13 44 -56
0 -24 14 -32 25 -14 3 6 17 10 30 10 13 0 27 5 30 10 3 6 24 10 46 10 36 0 40
-3 45 -29 4 -17 12 -32 20 -35 16 -6 19 -72 4 -81 -6 -4 -10 -27 -9 -51 2 -34
-2 -48 -17 -59 -19 -14 -19 -14 0 -15 18 0 18 -2 -5 -26 -13 -14 -23 -35 -21
-46 2 -12 -1 -24 -7 -27 -10 -7 -23 -68 -22 -108 0 -12 -6 -26 -14 -30 -9 -5
-16 -30 -18 -64 -3 -31 -8 -62 -12 -69 -4 -6 3 -22 16 -36 l22 -24 -22 -24
c-19 -20 -22 -33 -19 -78 2 -42 -1 -59 -14 -72 -22 -21 -23 -36 -3 -62 15 -20
20 -60 8 -66 -5 -1 -15 -16 -24 -33 -18 -32 -24 -155 -8 -155 5 0 15 -11 21
-25 6 -14 17 -25 24 -25 16 0 24 -23 17 -49 -4 -15 3 -29 21 -46 20 -19 24
-30 20 -53 -6 -30 18 -102 34 -102 6 0 12 -15 14 -32 3 -18 7 -40 9 -48 5 -20
-45 -19 -251 3 -202 22 -243 26 -645 62 -93 9 -208 20 -255 25 -47 5 -130 12
-185 15 -55 3 -116 9 -135 13 -34 8 -35 9 -35 57 0 29 -7 61 -16 75 -11 17
-17 55 -20 115 -6 150 -2 213 16 231 9 9 14 23 10 32 -3 8 3 21 15 29 12 9 20
25 20 44 0 16 4 29 9 29 5 0 14 14 20 30 5 17 17 33 26 36 8 3 15 16 15 29 0
13 7 25 15 29 11 4 14 13 9 31 -4 18 -2 27 10 31 9 3 16 17 16 30 0 13 4 24
10 24 5 0 12 17 15 38 3 20 13 52 21 70 19 44 18 75 -6 114 -14 24 -20 51 -20
96 0 49 -5 70 -20 89 -11 14 -20 37 -20 51 0 13 -11 35 -24 47 -17 16 -23 30
-19 44 4 15 1 21 -12 21 -15 0 -17 6 -12 35 3 19 1 37 -4 40 -5 4 -9 15 -9 26
0 12 -7 19 -19 19 -31 0 -48 25 -55 81 -6 47 -5 55 16 74 24 22 87 40 121 36
10 -1 24 5 31 15 29 39 156 55 180 23z m-4619 -1589 c3 -5 1 -10 -4 -10 -6 0
-11 5 -11 10 0 6 2 10 4 10 3 0 8 -4 11 -10z m292 4 c-3 -3 -12 -4 -19 -1 -8
3 -5 6 6 6 11 1 17 -2 13 -5z m862 -60 c54 -11 34 -19 -39 -16 -38 2 -70 8
-70 13 0 10 62 12 109 3z m854 -121 c-7 -2 -21 -2 -30 0 -10 3 -4 5 12 5 17 0
24 -2 18 -5z m237 -107 c0 -2 -7 -6 -15 -10 -8 -3 -15 -1 -15 4 0 6 7 10 15
10 8 0 15 -2 15 -4z m2150 -40 c0 -3 -4 -8 -10 -11 -5 -3 -10 -1 -10 4 0 6 5
11 10 11 6 0 10 -2 10 -4z m-1625 -36 c4 -6 -8 -10 -29 -10 -20 0 -36 5 -36
10 0 6 13 10 29 10 17 0 33 -4 36 -10z m147 -28 c-27 -4 -37 2 -27 17 4 8 13
7 28 -1 l22 -13 -23 -3z m1518 8 c0 -11 -6 -20 -14 -20 -18 0 -29 16 -21 30
11 18 35 11 35 -10z m-1602 3 c-10 -2 -26 -2 -35 0 -10 3 -2 5 17 5 19 0 27
-2 18 -5z m3322 -33 c0 -5 -9 -10 -21 -10 -11 0 -17 5 -14 10 3 6 13 10 21 10
8 0 14 -4 14 -10z m-3207 -17 c-7 -2 -19 -2 -25 0 -7 3 -2 5 12 5 14 0 19 -2
13 -5z m157 -3 c0 -5 -7 -10 -15 -10 -8 0 -15 5 -15 10 0 6 7 10 15 10 8 0 15
-4 15 -10z m1371 -5 c0 -5 -9 -11 -21 -13 -20 -3 -27 8 -13 22 10 9 34 3 34
-9z m-1291 1 c0 -2 -7 -7 -16 -10 -8 -3 -12 -2 -9 4 6 10 25 14 25 6z m143
-23 c-13 -2 -33 -2 -45 0 -13 2 -3 4 22 4 25 0 35 -2 23 -4z m151 -9 c5 -14 4
-15 -9 -4 -17 14 -19 20 -6 20 5 0 12 -7 15 -16z m1112 -51 c12 -8 26 -13 30
-12 48 8 61 -25 17 -42 -42 -16 -89 -2 -128 36 -29 30 -32 36 -18 44 18 9 62
-2 99 -26z m1665 -9 c10 -13 10 -17 -2 -25 -22 -13 -83 -11 -104 5 -19 13 -18
15 15 24 52 15 76 14 91 -4z m-27 -156 c3 -13 6 -27 6 -31 0 -15 -45 -24 -68
-14 -25 12 -24 33 1 31 9 -1 14 2 12 7 -5 7 21 28 36 29 4 0 9 -10 13 -22z
m-1681 -95 c-13 -2 -35 -2 -50 0 -16 2 -5 4 22 4 28 0 40 -2 28 -4z m87 3 c0
-3 -4 -8 -10 -11 -5 -3 -10 -1 -10 4 0 6 5 11 10 11 6 0 10 -2 10 -4z m176
-17 c3 -5 -9 -9 -25 -9 -29 0 -39 9 -25 22 7 8 43 -2 50 -13z m1434 -84 c0
-14 -6 -25 -12 -26 -7 -1 -28 -2 -46 -4 -36 -3 -46 6 -38 33 4 13 18 18 51 20
42 1 45 0 45 -23z m-621 -61 c2 -2 -10 -4 -28 -4 -28 0 -31 -3 -26 -20 7 -21
-1 -25 -24 -11 -10 6 -10 10 -1 16 6 4 9 14 6 21 -5 12 1 14 32 8 20 -4 39 -8
41 -10z m64 -3 c-8 -29 -29 -32 -31 -5 -1 18 3 24 17 24 14 0 18 -5 14 -19z
m177 -14 c0 -19 -10 -27 -26 -20 -11 4 -12 9 -3 19 15 18 29 18 29 1z m-254
-18 c3 -6 -1 -18 -10 -27 -15 -15 -16 -14 -16 11 0 27 13 36 26 16z m58 -34
c19 -14 19 -15 -6 -15 -35 0 -59 10 -52 21 8 13 36 10 58 -6z m656 -4 c16 -30
13 -81 -5 -81 -9 0 -15 9 -15 21 0 17 -5 20 -21 16 -24 -6 -72 20 -63 34 3 5
14 3 25 -4 18 -10 23 -9 36 11 19 27 29 28 43 3z m-757 2 c-7 -2 -19 -2 -25 0
-7 3 -2 5 12 5 14 0 19 -2 13 -5z m177 -3 c0 -5 -4 -10 -9 -10 -6 0 -13 5 -16
10 -3 6 1 10 9 10 9 0 16 -4 16 -10z m-310 -10 c0 -5 -2 -10 -4 -10 -3 0 -8 5
-11 10 -3 6 -1 10 4 10 6 0 11 -4 11 -10z m470 0 c0 -6 -11 -8 -27 -4 -40 10
-41 14 -5 14 18 0 32 -5 32 -10z m343 -63 c19 -4 18 -4 -5 -6 -30 -1 -43 12
-31 32 5 9 8 8 11 -5 2 -9 13 -19 25 -21z m430 27 c8 -8 -3 -34 -14 -34 -5 0
-9 9 -9 20 0 19 11 26 23 14z m24 -26 c-3 -8 -6 -5 -6 6 -1 11 2 17 5 13 3 -3
4 -12 1 -19z m-182 2 c3 -5 -3 -10 -15 -10 -12 0 -18 5 -15 10 3 6 10 10 15
10 5 0 12 -4 15 -10z m75 -4 c0 -11 -19 -15 -25 -6 -3 5 1 10 9 10 9 0 16 -2
16 -4z m177 -2 c-3 -3 -12 -4 -19 -1 -8 3 -5 6 6 6 11 1 17 -2 13 -5z m173
-34 c0 -5 -6 -10 -14 -10 -8 0 -18 5 -21 10 -3 6 3 10 14 10 12 0 21 -4 21
-10z m-7653 -426 c-3 -3 -12 -4 -19 -1 -8 3 -5 6 6 6 11 1 17 -2 13 -5z m100
-10 c-3 -3 -12 -4 -19 -1 -8 3 -5 6 6 6 11 1 17 -2 13 -5z m-137 -54 c0 -5 -7
-10 -16 -10 -8 0 -12 5 -9 10 3 6 10 10 16 10 5 0 9 -4 9 -10z m53 3 c-7 -2
-19 -2 -25 0 -7 3 -2 5 12 5 14 0 19 -2 13 -5z m97 3 c0 -11 -19 -15 -25 -6
-3 5 1 10 9 10 9 0 16 -2 16 -4z m510 -26 c0 -5 -2 -10 -4 -10 -3 0 -8 5 -11
10 -3 6 -1 10 4 10 6 0 11 -4 11 -10z m955 -20 c-3 -5 -12 -10 -18 -10 -7 0
-6 4 3 10 19 12 23 12 15 0z m48 -20 c4 -16 0 -20 -18 -20 -18 0 -22 4 -18 20
3 11 11 20 18 20 7 0 15 -9 18 -20z m-1207 -1 c4 -7 20 -8 41 -4 27 5 34 3 31
-7 -3 -7 -11 -13 -19 -14 -8 0 -22 -4 -32 -9 -11 -4 -23 -3 -30 4 -6 6 -37 11
-68 11 -33 0 -61 5 -65 11 -5 9 7 10 44 7 28 -3 57 -1 64 3 18 12 26 11 34 -2z
m-161 -9 c-3 -5 -10 -10 -16 -10 -5 0 -9 5 -9 10 0 6 7 10 16 10 8 0 12 -4 9
-10z m6810 0 c8 -13 -3 -50 -15 -50 -5 0 -16 14 -25 30 -15 29 -15 30 9 30 14
0 28 -5 31 -10z m-5283 -15 c0 -5 -5 -11 -11 -13 -6 -2 -11 4 -11 13 0 9 5 15
11 13 6 -2 11 -8 11 -13z m458 7 c0 -11 -70 -33 -82 -26 -16 10 -7 23 20 27
49 7 62 7 62 -1z m-1330 -12 c0 -5 -9 -10 -20 -10 -11 0 -20 5 -20 10 0 6 9
10 20 10 11 0 20 -4 20 -10z m800 0 c0 -5 -2 -10 -4 -10 -3 0 -8 5 -11 10 -3
6 -1 10 4 10 6 0 11 -4 11 -10z m587 -12 c-3 -8 -6 -5 -6 6 -1 11 2 17 5 13 3
-3 4 -12 1 -19z m-2292 -8 c3 -5 1 -10 -4 -10 -6 0 -11 5 -11 10 0 6 2 10 4
10 3 0 8 -4 11 -10z m131 -12 c4 -6 -13 -9 -42 -7 -61 3 -79 12 -39 19 36 7
73 1 81 -12z m1144 12 c0 -5 -4 -10 -10 -10 -5 0 -10 5 -10 10 0 6 5 10 10 10
6 0 10 -4 10 -10z m80 0 c11 -7 4 -10 -25 -9 -31 0 -36 2 -20 9 26 11 28 11
45 0z m-1130 -10 c-20 -13 -63 -13 -55 0 3 6 21 10 38 10 24 0 28 -3 17 -10z
m980 0 c0 -5 -2 -10 -4 -10 -3 0 -8 5 -11 10 -3 6 -1 10 4 10 6 0 11 -4 11
-10z m360 0 c0 -5 -12 -10 -26 -10 -14 0 -23 4 -19 10 3 6 15 10 26 10 10 0
19 -4 19 -10z m75 0 c-11 -5 -27 -9 -35 -9 -13 -1 -13 0 0 9 8 5 24 9 35 9
l20 0 -20 -9z m1115 0 c11 -7 1 -9 -35 -9 -44 1 -46 2 -20 9 17 4 32 8 35 9 3
0 12 -4 20 -9z m-2980 -10 c0 -5 -2 -10 -4 -10 -3 0 -8 5 -11 10 -3 6 -1 10 4
10 6 0 11 -4 11 -10z m3645 -10 c3 -6 -4 -10 -17 -10 -18 0 -20 2 -8 10 19 12
18 12 25 0z m-2660 -10 c-3 -5 -10 -10 -16 -10 -5 0 -9 5 -9 10 0 6 7 10 16
10 8 0 12 -4 9 -10z m3090 -20 c-3 -5 -10 -10 -16 -10 -5 0 -9 5 -9 10 0 6 7
10 16 10 8 0 12 -4 9 -10z m495 0 c0 -5 -4 -10 -10 -10 -5 0 -10 5 -10 10 0 6
5 10 10 10 6 0 10 -4 10 -10z m566 -10 c0 -13 -7 -20 -20 -20 -18 0 -19 -1 -1
-20 18 -19 17 -20 -7 -20 -32 0 -40 8 -27 31 8 16 6 19 -11 19 -22 0 -27 15
-7 23 6 3 26 6 42 6 24 1 31 -3 31 -19z m-3369 4 c-3 -3 -12 -4 -19 -1 -8 3
-5 6 6 6 11 1 17 -2 13 -5z m2246 -1 c-13 -2 -35 -2 -50 0 -16 2 -5 4 22 4 28
0 40 -2 28 -4z m-2370 -10 c-7 -2 -19 -2 -25 0 -7 3 -2 5 12 5 14 0 19 -2 13
-5z m49 -5 c-9 -9 -15 -9 -24 0 -9 9 -7 12 12 12 19 0 21 -3 12 -12z m818 -18
c0 -5 -7 -10 -16 -10 -8 0 -12 5 -9 10 3 6 10 10 16 10 5 0 9 -4 9 -10z m80
-6 c0 -2 -9 -4 -21 -4 -11 0 -18 4 -14 10 5 8 35 3 35 -6z m2867 10 c-3 -3
-12 -4 -19 -1 -8 3 -5 6 6 6 11 1 17 -2 13 -5z m416 -14 c-3 -11 -9 -17 -15
-14 -5 3 -4 12 3 20 16 19 18 18 12 -6z m-3553 0 c0 -5 -4 -10 -10 -10 -5 0
-10 5 -10 10 0 6 5 10 10 10 6 0 10 -4 10 -10z m3499 -6 c10 -9 -9 -14 -64
-16 -43 -2 -60 1 -63 11 -3 9 0 12 10 9 8 -4 21 -2 28 2 12 7 79 3 89 -6z
m-1539 2 c0 -3 -4 -8 -10 -11 -5 -3 -10 -1 -10 4 0 6 5 11 10 11 6 0 10 -2 10
-4z m488 -7 c-2 -6 -7 -10 -11 -10 -4 1 -14 1 -23 1 -8 0 -12 5 -9 10 8 13 48
13 43 -1z m89 5 c-3 -3 -12 -4 -19 -1 -8 3 -5 6 6 6 11 1 17 -2 13 -5z m203
-4 c0 -9 -96 -17 -126 -11 -18 3 -18 4 1 11 28 10 125 10 125 0z m499 0 c11 0
11 -3 1 -15 -20 -25 -2 -34 55 -28 39 4 55 2 55 -6 0 -9 -19 -12 -63 -10 -35
1 -69 -1 -76 -6 -7 -4 -18 -2 -24 4 -8 8 -5 11 11 11 12 0 22 4 22 8 0 17 -13
21 -31 11 -15 -8 -19 -6 -19 9 0 26 11 34 35 28 11 -3 26 -6 34 -6z m91 0 c0
-5 -12 -10 -26 -10 -14 0 -23 4 -19 10 3 6 15 10 26 10 10 0 19 -4 19 -10z
m-2660 -9 c0 -5 -7 -14 -16 -22 -13 -10 -17 -10 -25 2 -14 23 -11 29 16 29 14
0 25 -4 25 -9z m1698 -11 c-7 -11 -19 -20 -27 -20 -8 0 -11 3 -8 7 4 3 -1 12
-11 19 -15 12 -13 13 21 14 35 0 36 -1 25 -20z m1647 -10 c-5 -8 -11 -8 -17
-2 -6 6 -7 16 -3 22 5 8 11 8 17 2 6 -6 7 -16 3 -22z m-980 9 c-5 -7 -43 -15
-114 -24 -44 -6 -31 7 21 20 49 12 99 15 93 4z m97 -1 c-17 -8 -26 -8 -34 0
-9 9 -4 12 23 11 32 0 33 -1 11 -11z m675 6 c-3 -3 -12 -4 -19 -1 -8 3 -5 6 6
6 11 1 17 -2 13 -5z m153 -4 c0 -5 -11 -10 -24 -10 -14 0 -28 -4 -31 -10 -3
-5 -16 -15 -28 -20 -20 -10 -21 -10 -4 3 10 8 17 19 16 23 -1 5 -1 12 0 17 2
11 71 8 71 -3z m90 0 c0 -5 -4 -10 -10 -10 -5 0 -10 5 -10 10 0 6 5 10 10 10
6 0 10 -4 10 -10z m-583 -24 c34 -2 66 -7 72 -11 15 -9 14 -22 -2 -28 -14 -5
-152 19 -169 29 -13 8 10 24 26 18 6 -2 39 -6 73 -8z m-655 -8 c-17 -8 -26 -8
-34 0 -9 9 -4 12 23 11 32 0 33 -1 11 -11z m900 -7 c4 -3 -29 -7 -72 -9 -70
-3 -92 3 -75 19 6 7 139 -2 147 -10z m-552 -1 c-8 -5 -42 -10 -75 -10 -33 0
-67 5 -75 10 -10 7 13 10 75 10 62 0 85 -3 75 -10z m690 0 c12 -5 -58 -15 -82
-12 -48 7 -30 18 25 16 28 -1 54 -3 57 -4z m350 3 c-1 -22 -22 -36 -59 -39
-42 -3 -47 1 -32 25 6 9 21 12 45 9 20 -2 36 0 36 4 0 4 2 8 5 8 3 0 5 -3 5
-7z m50 -6 c0 -19 -10 -27 -26 -20 -11 4 -12 9 -3 19 15 18 29 18 29 1z m-269
-12 c0 -5 -9 -11 -21 -13 -15 -3 -18 1 -14 13 7 17 35 17 35 0z m369 -17 c0
-11 -22 -10 -39 1 -7 5 -11 14 -7 20 7 11 46 -7 46 -21z m-2497 15 c-13 -2
-33 -2 -45 0 -13 2 -3 4 22 4 25 0 35 -2 23 -4z m2227 -8 c0 -7 -12 -15 -27
-18 -33 -6 -35 -5 -28 14 7 18 55 21 55 4z m-1555 -5 c13 -5 14 -9 5 -9 -8 0
-24 4 -35 9 -13 5 -14 9 -5 9 8 0 24 -4 35 -9z m1403 -1 c-2 -6 -8 -10 -13
-10 -5 0 -11 4 -13 10 -2 6 4 11 13 11 9 0 15 -5 13 -11z m-1113 -9 c-3 -5
-15 -10 -26 -10 -10 0 -19 5 -19 10 0 6 12 10 26 10 14 0 23 -4 19 -10z m532
-10 c-1 -11 -7 -20 -13 -20 -7 0 -10 8 -7 20 3 11 9 20 14 20 4 0 7 -9 6 -20z
m457 4 c5 -12 2 -15 -10 -10 -8 3 -20 6 -25 6 -6 0 -7 5 -4 10 10 15 32 12 39
-6z m76 1 c0 -8 -5 -15 -11 -15 -5 0 -8 4 -5 9 4 5 0 12 -6 14 -8 3 -6 6 5 6
9 1 17 -6 17 -14z m-735 -5 c4 -6 -7 -10 -25 -10 -18 0 -29 4 -25 10 3 6 15
10 25 10 10 0 22 -4 25 -10z m1135 1 c0 -9 -24 -21 -42 -21 -6 0 -6 6 2 15 14
16 40 20 40 6z m-893 -17 c-3 -3 -12 -4 -19 -1 -8 3 -5 6 6 6 11 1 17 -2 13
-5z m153 -2 c0 -5 -22 -8 -49 -8 -28 0 -48 3 -45 8 3 4 25 8 50 8 24 0 44 -4
44 -8z m272 -27 c49 0 68 -4 68 -13 0 -15 60 -7 102 14 41 21 61 18 53 -7 -7
-21 -5 -22 39 -17 29 4 56 14 70 27 12 11 35 21 50 21 37 0 24 -17 -30 -42
-24 -10 -44 -24 -44 -30 0 -6 -3 -8 -7 -5 -3 4 -12 2 -19 -4 -8 -6 -20 -9 -28
-6 -8 3 -17 -1 -20 -9 -6 -16 -34 -18 -56 -4 -13 8 -11 11 8 16 12 4 22 10 22
15 0 17 -22 20 -44 6 -15 -10 -27 -12 -39 -5 -10 5 -22 6 -27 3 -5 -3 -19 -1
-31 5 -22 13 -99 4 -99 -11 0 -4 7 -6 15 -3 8 4 15 1 15 -5 0 -16 -25 -14 -40
4 -11 13 -14 13 -27 0 -17 -17 -33 -20 -33 -5 0 7 -6 7 -17 2 -10 -5 -46 -6
-80 -3 -35 4 -63 3 -63 -1 0 -4 -18 -8 -39 -8 -38 0 -39 1 -32 28 7 22 13 27
36 25 15 -1 36 2 46 8 16 8 19 6 19 -11 0 -21 16 -28 22 -8 2 6 20 11 39 10
54 -1 79 7 79 26 1 15 2 15 13 2 8 -11 32 -15 79 -15z m-1128 -10 c-4 -8 -10
-12 -15 -9 -11 6 -2 24 11 24 5 0 7 -7 4 -15z m402 -5 c23 0 16 -16 -13 -29
-25 -12 -42 -3 -43 21 0 12 35 28 38 17 2 -5 10 -9 18 -9z m374 -1 c0 -4 -43
-7 -95 -7 -104 2 -129 15 -37 20 73 4 132 -2 132 -13z m-573 -5 c2 -7 -10 -14
-27 -16 -20 -3 -30 0 -30 8 0 23 50 30 57 8z m298 6 c-3 -5 -13 -10 -21 -10
-8 0 -14 5 -14 10 0 6 9 10 21 10 11 0 17 -4 14 -10z m75 1 c0 -11 -26 -22
-34 -14 -12 12 -5 23 14 23 11 0 20 -4 20 -9z m-521 -22 c-16 -10 -23 -4 -14
10 3 6 11 8 17 5 6 -4 5 -9 -3 -15z m61 -9 c0 -5 -4 -10 -10 -10 -5 0 -10 5
-10 10 0 6 5 10 10 10 6 0 10 -4 10 -10z m653 -7 c-7 -2 -19 -2 -25 0 -7 3 -2
5 12 5 14 0 19 -2 13 -5z m-74 -12 c10 -7 5 -11 -17 -16 -32 -7 -52 -1 -52 16
0 11 50 12 69 0z m511 -1 c0 -5 16 -10 35 -10 24 0 37 -6 45 -20 12 -23 14
-21 -63 -39 -27 -7 -59 -18 -70 -25 -12 -8 -44 -16 -70 -20 -27 -3 -71 -17
-99 -31 -27 -14 -63 -25 -80 -25 -16 0 -44 -6 -61 -14 -74 -31 -91 -36 -160
-47 -40 -6 -83 -18 -97 -27 -15 -9 -42 -15 -68 -13 -27 1 -51 -4 -61 -12 -9
-8 -30 -17 -48 -19 -28 -4 -31 -2 -22 13 5 10 23 21 41 24 42 9 84 31 109 56
27 27 24 32 -13 27 -23 -4 -37 0 -45 11 -11 15 -12 15 -13 -1 0 -12 -11 -18
-42 -22 -55 -6 -104 -3 -100 7 1 4 2 14 2 22 0 8 7 15 15 15 8 0 15 -5 15 -10
0 -7 18 -8 53 -4 68 10 163 8 207 -3 23 -6 56 -5 95 4 33 7 75 12 93 13 20 0
35 6 38 15 4 8 14 15 23 15 9 0 48 11 86 25 39 13 80 25 92 25 27 0 74 21 68
30 -2 4 14 6 37 6 24 -1 43 4 45 12 3 6 -2 12 -11 12 -9 0 -16 5 -16 10 0 6 9
10 20 10 11 0 20 -4 20 -10z m583 -7 c-7 -2 -19 -2 -25 0 -7 3 -2 5 12 5 14 0
19 -2 13 -5z m-1080 -23 c41 0 66 -4 62 -10 -3 -5 -29 -9 -58 -8 -29 1 -67 -2
-84 -6 -40 -9 -59 0 -42 21 7 8 21 12 33 9 12 -3 52 -6 89 -6z m-2935 -28 c21
-14 22 -16 6 -33 -10 -11 -25 -19 -35 -19 -27 0 -49 -11 -49 -25 0 -7 -7 -18
-15 -25 -8 -7 -15 -21 -15 -31 0 -23 -13 -24 -30 -4 -16 19 -60 19 -86 0 -17
-13 -54 -21 -54 -11 0 2 -3 11 -6 20 -4 9 -1 16 6 16 7 0 28 14 48 31 20 18
59 43 88 56 29 13 58 30 64 39 14 16 39 11 78 -14z m3262 24 c0 -3 -4 -8 -10
-11 -5 -3 -10 -1 -10 4 0 6 5 11 10 11 6 0 10 -2 10 -4z m699 -25 l21 -21 -37
1 c-21 1 -30 3 -20 6 22 6 12 23 -14 23 -11 0 -19 -7 -19 -17 -1 -17 -1 -17
-11 0 -5 9 -17 17 -25 17 -8 0 -12 4 -9 10 10 17 91 4 114 -19z m188 15 c4 -3
-19 -6 -51 -6 -32 0 -66 -5 -77 -11 -15 -8 -24 -7 -36 2 -13 12 -13 14 1 19
20 7 156 4 163 -4z m-1510 -32 c-3 -3 -12 -4 -19 -1 -8 3 -5 6 6 6 11 1 17 -2
13 -5z m1393 -9 c0 -8 -4 -15 -9 -15 -13 0 -22 16 -14 24 11 11 23 6 23 -9z
m65 -6 c-8 -12 -45 -12 -45 0 0 10 30 20 43 14 4 -3 5 -9 2 -14z m97 9 c-9 -9
-15 -9 -24 0 -9 9 -7 12 12 12 19 0 21 -3 12 -12z m453 -7 c-19 -8 -18 -9 5
-13 16 -2 2 -7 -37 -12 -62 -8 -103 -2 -103 14 0 8 42 13 130 17 22 1 23 1 5
-6z m116 -4 c-1 -4 -1 -14 -1 -22 0 -8 -4 -15 -10 -15 -5 0 -10 12 -10 26 0
14 5 24 11 22 6 -2 10 -7 10 -11z m61 -11 c-2 -12 6 -16 35 -17 l38 -1 -38
-10 c-44 -12 -72 -4 -63 17 3 8 0 15 -7 15 -8 0 -6 4 3 10 20 13 36 7 32 -14z
m-102 -6 c0 -11 -4 -20 -10 -20 -5 0 -10 9 -10 20 0 11 5 20 10 20 6 0 10 -9
10 -20z m-3283 4 c-3 -3 -12 -4 -19 -1 -8 3 -5 6 6 6 11 1 17 -2 13 -5z m2561
-27 c14 -11 16 -37 2 -37 -5 0 -10 7 -10 15 0 9 -10 15 -27 16 -38 2 -36 2
-58 -5 -16 -4 -21 -1 -22 13 -2 18 3 19 50 14 29 -3 58 -10 65 -16z m-408 9
c0 -3 -4 -8 -10 -11 -5 -3 -10 -1 -10 4 0 6 5 11 10 11 6 0 10 -2 10 -4z m260
-4 c0 -5 -30 -8 -67 -6 -38 1 -84 -1 -103 -5 -37 -8 -60 -5 -60 9 0 4 52 9
115 9 63 1 115 -2 115 -7z m280 -11 c0 -15 -6 -18 -32 -15 -18 1 -36 3 -40 3
-5 1 -8 5 -8 10 0 5 14 9 30 9 17 -1 33 2 37 5 10 11 13 8 13 -12z m40 -1 c0
-5 -5 -10 -11 -10 -5 0 -7 5 -4 10 3 6 8 10 11 10 2 0 4 -4 4 -10z m503 3
c-13 -2 -33 -2 -45 0 -13 2 -3 4 22 4 25 0 35 -2 23 -4z m-2733 -13 c0 -5 -12
-10 -27 -9 l-28 1 25 8 c14 4 26 8 28 9 1 1 2 -3 2 -9z m-2243 -16 c2 -7 -11
-17 -29 -23 -26 -9 -35 -9 -46 3 -8 8 -11 19 -7 26 9 14 77 9 82 -6z m1873 6
c0 -5 -4 -10 -10 -10 -5 0 -10 5 -10 10 0 6 5 10 10 10 6 0 10 -4 10 -10z
m200 0 c0 -5 -9 -10 -19 -10 -11 0 -23 5 -26 10 -4 6 5 10 19 10 14 0 26 -4
26 -10z m533 3 c-7 -2 -19 -2 -25 0 -7 3 -2 5 12 5 14 0 19 -2 13 -5z m117 -7
c0 -24 -16 -27 -35 -6 -18 19 -17 20 8 20 17 0 27 -5 27 -14z m1306 4 c19 0
34 -4 34 -10 0 -11 -59 -14 -84 -4 -9 3 -16 11 -16 16 0 6 7 7 16 4 9 -3 31
-6 50 -6z m-176 -21 c0 -11 -7 -12 -95 -9 -97 3 -105 14 -15 20 81 5 110 3
110 -11z m40 0 c0 -5 -4 -9 -10 -9 -5 0 -10 7 -10 16 0 8 5 12 10 9 6 -3 10
-10 10 -16z m220 11 c0 -5 -7 -7 -15 -4 -8 4 -15 8 -15 10 0 2 7 4 15 4 8 0
15 -4 15 -10z m1405 0 c3 -5 -1 -10 -9 -10 -9 0 -16 5 -16 10 0 6 4 10 9 10 6
0 13 -4 16 -10z m-4010 -10 c3 -5 -3 -10 -14 -10 -12 0 -21 5 -21 10 0 6 6 10
14 10 8 0 18 -4 21 -10z m2432 4 c-3 -3 -12 -4 -19 -1 -8 3 -5 6 6 6 11 1 17
-2 13 -5z m208 -4 c3 -5 1 -10 -4 -10 -6 0 -11 5 -11 10 0 6 2 10 4 10 3 0 8
-4 11 -10z m803 3 c-10 -2 -26 -2 -35 0 -10 3 -2 5 17 5 19 0 27 -2 18 -5z
m72 -3 c0 -5 -11 -10 -25 -10 -14 0 -25 5 -25 10 0 6 11 10 25 10 14 0 25 -4
25 -10z m45 0 c3 -5 2 -10 -4 -10 -5 0 -13 5 -16 10 -3 6 -2 10 4 10 5 0 13
-4 16 -10z m150 0 c16 -7 11 -9 -20 -9 -29 -1 -36 2 -25 9 17 11 19 11 45 0z
m-68 -6 c-3 -3 -12 -4 -19 -1 -8 3 -5 6 6 6 11 1 17 -2 13 -5z m-2317 -14 c0
-5 -6 -10 -14 -10 -8 0 -18 5 -21 10 -3 6 3 10 14 10 12 0 21 -4 21 -10z
m-810 -130 c0 -5 -7 -10 -15 -10 -8 0 -15 5 -15 10 0 6 7 10 15 10 8 0 15 -4
15 -10z m604 -29 c8 -13 -20 -33 -41 -29 -10 2 -19 11 -21 21 -3 13 3 17 27
17 16 0 32 -4 35 -9z m-105 -28 c21 -5 18 -8 -25 -24 -27 -11 -64 -19 -83 -19
l-33 0 23 25 c25 25 67 32 118 18z m-929 -23 c0 -5 -4 -10 -9 -10 -6 0 -13 5
-16 10 -3 6 1 10 9 10 9 0 16 -4 16 -10z m768 -22 c2 -12 -3 -18 -16 -18 -10
0 -22 -3 -25 -7 -4 -3 -31 -7 -59 -8 -29 -1 -60 -3 -68 -6 -9 -2 -15 2 -15 11
0 10 14 17 40 20 22 3 49 11 60 18 29 17 79 11 83 -10z m-1808 -28 c0 -5 -6
-10 -14 -10 -8 0 -18 5 -21 10 -3 6 3 10 14 10 12 0 21 -4 21 -10z m4765 -10
c3 -5 1 -10 -4 -10 -6 0 -11 5 -11 10 0 6 2 10 4 10 3 0 8 -4 11 -10z m-4685
-10 c0 -5 -4 -10 -10 -10 -5 0 -10 5 -10 10 0 6 5 10 10 10 6 0 10 -4 10 -10z
m1505 0 c-3 -5 -17 -10 -31 -10 -13 0 -24 5 -24 10 0 6 14 10 31 10 17 0 28
-4 24 -10z m1740 -11 c10 -15 -1 -23 -20 -15 -9 3 -13 10 -10 16 8 13 22 13
30 -1z m-1880 -18 c16 -7 14 -9 -16 -12 -43 -5 -61 -1 -53 12 6 11 41 11 69 0z
m-1915 -11 c0 -5 -2 -10 -4 -10 -3 0 -8 5 -11 10 -3 6 -1 10 4 10 6 0 11 -4
11 -10z m3760 -16 c0 -8 -4 -12 -10 -9 -5 3 -10 10 -10 16 0 5 5 9 10 9 6 0
10 -7 10 -16z m-2123 -7 c2 -3 -26 -10 -62 -16 -36 -6 -95 -16 -132 -22 -38
-7 -70 -15 -73 -18 -17 -20 -75 -41 -114 -41 -38 0 -46 3 -46 18 0 23 59 52
105 52 18 0 35 5 37 11 2 6 23 13 47 15 24 2 46 5 48 8 5 5 184 -2 190 -7z
m83 -3 c0 -2 -12 -4 -26 -4 -14 0 -23 4 -20 9 6 8 46 4 46 -5z m-1150 -14 c0
-5 -4 -10 -9 -10 -6 0 -13 5 -16 10 -3 6 1 10 9 10 9 0 16 -4 16 -10z m4890 6
c0 -3 -4 -8 -10 -11 -5 -3 -10 -1 -10 4 0 6 5 11 10 11 6 0 10 -2 10 -4z
m-7750 -31 c0 -8 -4 -15 -9 -15 -13 0 -22 16 -14 24 11 11 23 6 23 -9z m200 5
c0 -5 -4 -10 -10 -10 -5 0 -10 5 -10 10 0 6 5 10 10 10 6 0 10 -4 10 -10z
m-275 -50 c3 -5 1 -10 -4 -10 -6 0 -11 5 -11 10 0 6 2 10 4 10 3 0 8 -4 11
-10z m2825 -20 c0 -5 -7 -10 -15 -10 -8 0 -15 5 -15 10 0 6 7 10 15 10 8 0 15
-4 15 -10z m-2230 -10 c0 -5 -4 -10 -9 -10 -6 0 -13 5 -16 10 -3 6 1 10 9 10
9 0 16 -4 16 -10z m2320 -5 c0 -8 -4 -15 -9 -15 -13 0 -22 16 -14 24 11 11 23
6 23 -9z m4375 -5 c11 -18 -26 -23 -43 -6 -15 15 -14 16 10 16 15 0 30 -5 33
-10z m-4885 -56 c0 -8 -5 -12 -10 -9 -6 4 -8 11 -5 16 9 14 15 11 15 -7z
m-540 -74 c0 -5 -2 -10 -4 -10 -3 0 -8 5 -11 10 -3 6 -1 10 4 10 6 0 11 -4 11
-10z m6071 -371 c20 -10 17 -29 -4 -29 -21 0 -40 17 -33 29 9 14 12 14 37 0z"/>
<path d="M561 7784 c-12 -88 -8 -110 20 -99 12 4 13 21 8 91 -4 47 -9 87 -11
90 -3 2 -10 -35 -17 -82z"/>
<path d="M6145 7320 c-19 -7 -19 -8 -2 -15 10 -4 23 -3 29 3 14 14 -3 21 -27
12z"/>
<path d="M6465 7200 c3 -5 8 -10 11 -10 2 0 4 5 4 10 0 6 -5 10 -11 10 -5 0
-7 -4 -4 -10z"/>
<path d="M5887 1634 c-8 -8 1 -24 14 -24 5 0 9 7 9 15 0 15 -12 20 -23 9z"/>
<path d="M100 7791 c0 -121 4 -222 9 -225 26 -16 31 27 29 230 -3 190 -5 209
-20 212 -17 3 -18 -12 -18 -217z"/>
<path d="M5950 7316 c0 -2 7 -7 16 -10 8 -3 12 -2 9 4 -6 10 -25 14 -25 6z"/>
<path d="M6058 7203 c7 -3 16 -2 19 1 4 3 -2 6 -13 5 -11 0 -14 -3 -6 -6z"/>
<path d="M5896 7072 c-3 -5 1 -9 9 -9 8 0 15 4 15 9 0 4 -4 8 -9 8 -6 0 -12
-4 -15 -8z"/>
<path d="M2720 6959 c0 -5 5 -7 10 -4 6 3 10 8 10 11 0 2 -4 4 -10 4 -5 0 -10
-5 -10 -11z"/>
<path d="M2960 6960 c0 -13 11 -13 30 0 12 8 11 10 -7 10 -13 0 -23 -4 -23
-10z"/>
<path d="M2785 6900 c-3 -5 -1 -10 4 -10 6 0 11 5 11 10 0 6 -2 10 -4 10 -3 0
-8 -4 -11 -10z"/>
<path d="M3010 6900 c-12 -8 -11 -10 8 -10 12 0 22 5 22 10 0 13 -11 13 -30 0z"/>
<path d="M2648 6803 c7 -3 16 -2 19 1 4 3 -2 6 -13 5 -11 0 -14 -3 -6 -6z"/>
<path d="M2770 6770 c0 -5 7 -10 15 -10 8 0 15 5 15 10 0 6 -7 10 -15 10 -8 0
-15 -4 -15 -10z"/>
<path d="M2648 6733 c7 -3 16 -2 19 1 4 3 -2 6 -13 5 -11 0 -14 -3 -6 -6z"/>
<path d="M3351 6731 c-8 -5 5 -7 35 -4 27 3 51 7 53 9 9 8 -75 3 -88 -5z"/>
<path d="M1998 6723 c6 -2 18 -2 25 0 6 3 1 5 -13 5 -14 0 -19 -2 -12 -5z"/>
<path d="M3138 6723 c12 -2 32 -2 45 0 12 2 2 4 -23 4 -25 0 -35 -2 -22 -4z"/>
<path d="M3040 6660 c0 -5 18 -10 40 -10 22 0 40 5 40 10 0 6 -18 10 -40 10
-22 0 -40 -4 -40 -10z"/>
<path d="M3440 6610 c0 -5 7 -10 15 -10 8 0 15 5 15 10 0 6 -7 10 -15 10 -8 0
-15 -4 -15 -10z"/>
<path d="M3660 6585 c-10 -12 -10 -15 4 -15 9 0 16 7 16 15 0 8 -2 15 -4 15
-2 0 -9 -7 -16 -15z"/>
<path d="M2800 6580 c0 -5 -12 -10 -27 -10 -14 0 -24 -2 -21 -5 3 -4 29 -3 58
1 34 4 47 10 38 15 -18 12 -48 11 -48 -1z"/>
<path d="M3850 6580 c0 -5 21 -10 46 -10 27 0 43 4 39 10 -3 6 -24 10 -46 10
-21 0 -39 -4 -39 -10z"/>
<path d="M3920 6540 c0 -5 18 -10 41 -10 24 0 38 4 34 10 -3 6 -22 10 -41 10
-19 0 -34 -4 -34 -10z"/>
<path d="M3095 6500 c-4 -6 5 -10 20 -10 15 0 24 4 20 10 -3 6 -12 10 -20 10
-8 0 -17 -4 -20 -10z"/>
<path d="M2758 6493 c6 -2 18 -2 25 0 6 3 1 5 -13 5 -14 0 -19 -2 -12 -5z"/>
<path d="M4603 6493 c9 -2 23 -2 30 0 6 3 -1 5 -18 5 -16 0 -22 -2 -12 -5z"/>
<path d="M3200 6479 c0 -5 5 -7 10 -4 6 3 10 8 10 11 0 2 -4 4 -10 4 -5 0 -10
-5 -10 -11z"/>
<path d="M3565 6480 c3 -5 13 -10 21 -10 8 0 14 5 14 10 0 6 -9 10 -21 10 -11
0 -17 -4 -14 -10z"/>
<path d="M4067 6484 c7 -3 9 -12 6 -20 -8 -21 5 -17 17 6 9 17 8 20 -12 19
-13 0 -18 -3 -11 -5z"/>
<path d="M4120 6481 c0 -6 5 -13 10 -16 6 -3 10 1 10 9 0 9 -4 16 -10 16 -5 0
-10 -4 -10 -9z"/>
<path d="M4195 6479 c-11 -17 1 -21 15 -4 8 9 8 15 2 15 -6 0 -14 -5 -17 -11z"/>
<path d="M4321 6474 c0 -11 3 -14 6 -6 3 7 2 16 -1 19 -3 4 -6 -2 -5 -13z"/>
<path d="M4000 6470 c0 -5 7 -10 15 -10 8 0 15 5 15 10 0 6 -7 10 -15 10 -8 0
-15 -4 -15 -10z"/>
<path d="M3619 6444 c-12 -15 -11 -16 11 -8 14 4 41 7 60 7 28 -1 31 0 15 7
-33 14 -72 11 -86 -6z"/>
<path d="M3570 6420 c-12 -8 -11 -10 8 -10 12 0 22 5 22 10 0 13 -11 13 -30 0z"/>
<path d="M4228 6403 c7 -3 16 -2 19 1 4 3 -2 6 -13 5 -11 0 -14 -3 -6 -6z"/>
<path d="M3658 6373 c7 -3 16 -2 19 1 4 3 -2 6 -13 5 -11 0 -14 -3 -6 -6z"/>
<path d="M3330 6310 c0 -5 7 -10 15 -10 8 0 15 5 15 10 0 6 -7 10 -15 10 -8 0
-15 -4 -15 -10z"/>
<path d="M3065 6300 c3 -5 13 -10 21 -10 8 0 14 5 14 10 0 6 -9 10 -21 10 -11
0 -17 -4 -14 -10z"/>
<path d="M3128 6298 c9 -9 15 -9 24 0 9 9 7 12 -12 12 -19 0 -21 -3 -12 -12z"/>
<path d="M2280 5974 c0 -8 5 -12 10 -9 6 3 10 10 10 16 0 5 -4 9 -10 9 -5 0
-10 -7 -10 -16z"/>
<path d="M7898 5763 c7 -3 16 -2 19 1 4 3 -2 6 -13 5 -11 0 -14 -3 -6 -6z"/>
<path d="M7950 5735 c0 -10 7 -15 18 -13 21 4 19 22 -2 26 -10 2 -16 -3 -16
-13z"/>
<path d="M7961 5686 c2 -2 21 -6 42 -10 27 -5 37 -4 32 3 -3 6 -22 11 -42 11
-20 0 -34 -2 -32 -4z"/>
<path d="M8147 5649 c-3 -13 -1 -19 6 -16 15 5 22 37 9 37 -5 0 -12 -9 -15
-21z"/>
<path d="M8226 5655 c4 -8 8 -15 10 -15 2 0 4 7 4 15 0 8 -4 15 -10 15 -5 0
-7 -7 -4 -15z"/>
<path d="M8095 5650 c3 -5 10 -10 16 -10 5 0 9 5 9 10 0 6 -7 10 -16 10 -8 0
-12 -4 -9 -10z"/>
<path d="M4335 5100 c-3 -5 -1 -10 4 -10 6 0 11 5 11 10 0 6 -2 10 -4 10 -3 0
-8 -4 -11 -10z"/>
<path d="M578 3733 c12 -2 32 -2 45 0 12 2 2 4 -23 4 -25 0 -35 -2 -22 -4z"/>
<path d="M15 3719 c-7 -10 53 -15 110 -8 28 3 48 7 45 9 -11 7 -151 6 -155 -1z"/>
<path d="M365 3690 c-3 -5 3 -10 15 -10 12 0 18 5 15 10 -3 6 -10 10 -15 10
-5 0 -12 -4 -15 -10z"/>
<path d="M445 3650 c4 -6 11 -8 16 -5 14 9 11 15 -7 15 -8 0 -12 -5 -9 -10z"/>
<path d="M495 3650 c3 -5 10 -10 16 -10 5 0 9 5 9 10 0 6 -7 10 -16 10 -8 0
-12 -4 -9 -10z"/>
<path d="M855 3630 c-3 -5 1 -10 9 -10 9 0 16 5 16 10 0 6 -4 10 -9 10 -6 0
-13 -4 -16 -10z"/>
<path d="M1528 3583 c6 -2 18 -2 25 0 6 3 1 5 -13 5 -14 0 -19 -2 -12 -5z"/>
<path d="M1280 3450 c0 -5 9 -10 21 -10 11 0 17 5 14 10 -3 6 -13 10 -21 10
-8 0 -14 -4 -14 -10z"/>
<path d="M2178 3453 c-21 -2 -38 -9 -38 -15 0 -5 7 -7 16 -4 9 3 31 6 50 6 19
0 34 5 34 10 0 6 -6 9 -12 8 -7 -1 -30 -3 -50 -5z"/>
<path d="M1840 3435 c0 -8 7 -15 15 -15 8 0 15 7 15 15 0 8 -7 15 -15 15 -8 0
-15 -7 -15 -15z"/>
<path d="M1718 3433 c-38 -2 -68 -8 -68 -13 0 -11 10 -13 65 -9 111 7 115 7
115 19 0 6 -10 9 -22 8 -13 -1 -53 -3 -90 -5z"/>
<path d="M2560 3430 c0 -5 7 -10 15 -10 8 0 15 5 15 10 0 6 -7 10 -15 10 -8 0
-15 -4 -15 -10z"/>
<path d="M2660 3414 c0 -22 2 -25 15 -14 12 10 13 16 4 26 -16 20 -19 18 -19
-12z"/>
<path d="M2720 3429 c0 -5 5 -7 10 -4 6 3 10 8 10 11 0 2 -4 4 -10 4 -5 0 -10
-5 -10 -11z"/>
<path d="M2960 3423 c0 -17 40 -43 67 -43 7 0 13 7 13 15 0 9 -9 15 -24 15
-13 0 -26 7 -30 15 -8 21 -26 19 -26 -2z"/>
<path d="M2830 3420 c0 -5 9 -10 20 -10 11 0 20 5 20 10 0 6 -9 10 -20 10 -11
0 -20 -4 -20 -10z"/>
<path d="M2800 3410 c0 -5 -8 -10 -17 -10 -13 0 -14 -3 -5 -12 8 -8 15 -8 27
2 17 14 20 30 5 30 -5 0 -10 -4 -10 -10z"/>
<path d="M1985 3400 c3 -5 15 -10 25 -10 10 0 22 5 25 10 4 6 -7 10 -25 10
-18 0 -29 -4 -25 -10z"/>
<path d="M2335 3385 c21 -17 45 -17 48 0 1 6 -14 11 -33 13 -33 2 -34 2 -15
-13z"/>
<path d="M2556 3383 c-65 -4 -96 -17 -96 -42 0 -6 -9 -11 -20 -11 -12 0 -20
-7 -20 -17 0 -16 9 -18 78 -15 62 3 81 0 91 -12 15 -18 51 -22 51 -6 0 6 19
10 42 10 33 0 39 3 30 12 -19 19 -14 28 18 39 28 10 41 29 20 29 -5 0 -10 -4
-10 -10 0 -5 -7 -10 -15 -10 -8 0 -15 5 -15 10 0 6 -13 10 -29 10 -17 0 -33 5
-36 10 -3 6 -9 9 -13 8 -4 -1 -38 -4 -76 -5z m118 -40 c3 -8 -16 -12 -62 -15
-73 -4 -102 0 -102 13 0 19 157 21 164 2z"/>
<path d="M1937 3359 c8 -8 16 -8 30 0 16 9 14 10 -11 11 -22 0 -27 -3 -19 -11z"/>
<path d="M2016 3363 c-17 -4 -16 -6 5 -17 13 -7 23 -18 22 -24 -2 -7 8 -12 22
-12 31 0 35 34 6 50 -21 10 -24 11 -55 3z"/>
<path d="M1440 3350 c0 -5 5 -10 11 -10 5 0 7 5 4 10 -3 6 -8 10 -11 10 -2 0
-4 -4 -4 -10z"/>
<path d="M1623 3346 c-43 -16 -52 -26 -22 -26 38 0 100 20 94 31 -8 11 -31 10
-72 -5z"/>
<path d="M2810 3350 c-8 -5 -12 -11 -9 -14 7 -8 49 5 49 15 0 12 -21 11 -40
-1z"/>
<path d="M2886 3351 c-3 -5 1 -12 10 -15 20 -8 29 -1 19 13 -8 13 -22 14 -29
2z"/>
<path d="M1760 3340 c20 -13 60 -13 60 0 0 6 -17 10 -37 10 -28 0 -34 -3 -23
-10z"/>
<path d="M2178 3343 c-20 -5 -23 -18 -8 -28 9 -6 97 -9 138 -6 26 2 12 30 -15
30 -16 -1 -44 1 -63 4 -19 3 -43 3 -52 0z"/>
<path d="M2948 3332 c-14 -20 -68 -35 -68 -20 0 10 -31 7 -105 -10 -39 -9 -34
-12 30 -16 17 -1 51 -5 78 -10 32 -6 52 -5 61 3 8 6 39 11 70 10 78 -3 80 7 4
16 -61 8 -62 8 -34 20 23 10 25 13 11 18 -26 10 -33 9 -47 -11z"/>
<path d="M3040 3340 c0 -5 4 -10 9 -10 6 0 13 5 16 10 3 6 -1 10 -9 10 -9 0
-16 -4 -16 -10z"/>
<path d="M1535 3330 c3 -5 13 -10 21 -10 8 0 12 5 9 10 -3 6 -13 10 -21 10 -8
0 -12 -4 -9 -10z"/>
<path d="M2353 3328 c2 -7 12 -13 22 -13 10 0 20 6 23 13 2 7 -6 12 -23 12
-17 0 -25 -5 -22 -12z"/>
<path d="M660 3315 c0 -8 4 -15 9 -15 5 0 11 7 15 15 3 9 0 15 -9 15 -8 0 -15
-7 -15 -15z"/>
<path d="M1880 3320 c8 -5 22 -9 30 -9 10 0 8 3 -5 9 -27 12 -43 12 -25 0z"/>
<path d="M1965 3321 c-17 -7 -15 -9 13 -13 35 -5 53 6 26 16 -9 3 -16 6 -17 5
-1 0 -11 -4 -22 -8z"/>
<path d="M2125 3320 c-3 -5 1 -10 10 -10 9 0 13 5 10 10 -3 6 -8 10 -10 10 -2
0 -7 -4 -10 -10z"/>
<path d="M3145 3320 c3 -5 17 -10 31 -10 14 0 22 4 19 10 -3 6 -17 10 -31 10
-14 0 -22 -4 -19 -10z"/>
<path d="M1050 3300 c-12 -8 -12 -10 3 -16 10 -3 21 -4 24 0 4 3 1 6 -6 6 -7
0 -9 5 -6 10 8 12 4 12 -15 0z"/>
<path d="M1150 3290 c-13 -9 -13 -10 0 -10 8 0 22 5 30 10 13 9 13 10 0 10 -8
0 -22 -5 -30 -10z"/>
<path d="M1345 3289 c-16 -6 -14 -8 13 -8 33 -1 41 4 20 12 -7 2 -22 1 -33 -4z"/>
<path d="M3112 3293 c-18 -7 4 -33 29 -33 22 0 24 11 7 28 -13 13 -16 13 -36
5z"/>
<path d="M738 3283 c7 -3 16 -2 19 1 4 3 -2 6 -13 5 -11 0 -14 -3 -6 -6z"/>
<path d="M2400 3280 c0 -5 -10 -10 -22 -10 -26 -1 -65 -26 -55 -36 4 -4 13 -1
21 5 10 9 20 9 33 2 12 -6 25 -6 34 0 7 5 36 9 62 9 40 0 49 -4 57 -22 5 -14
9 -17 9 -8 1 9 -6 25 -14 36 -11 17 -22 20 -54 17 -21 -2 -42 1 -46 7 -8 13
-25 13 -25 0z"/>
<path d="M3372 3278 c6 -18 28 -21 28 -4 0 9 -7 16 -16 16 -9 0 -14 -5 -12
-12z"/>
<path d="M2720 3265 c0 -8 -8 -15 -17 -15 -10 0 -29 -9 -43 -20 l-25 -20 43 0
c35 0 42 3 42 19 0 12 8 21 22 23 32 5 35 28 4 28 -16 0 -26 -6 -26 -15z"/>
<path d="M3005 3270 c-11 -4 -26 -17 -34 -28 -8 -12 -21 -18 -32 -15 -24 7
-25 -12 -1 -22 28 -12 81 -14 88 -4 3 5 21 9 40 9 23 0 33 4 28 11 -4 7 -22 9
-50 4 -47 -7 -59 6 -24 25 11 6 20 15 20 20 0 12 -8 12 -35 0z"/>
<path d="M3233 3269 c-59 -17 -33 -42 33 -33 43 5 77 -3 69 -17 -7 -10 4 -12
55 -9 19 1 40 6 45 10 6 5 17 5 25 0 8 -6 30 -7 48 -4 24 5 32 3 32 -8 0 -11
-19 -15 -77 -18 -124 -5 -147 -4 -151 8 -6 20 -29 13 -36 -10 -8 -34 5 -40 60
-28 37 9 54 8 72 -1 18 -10 27 -10 42 -1 15 9 21 9 27 -1 4 -7 24 -13 43 -13
28 1 35 -3 35 -19 0 -18 24 -31 63 -34 22 -2 13 15 -15 29 -16 7 -23 14 -18
15 6 2 22 6 38 9 15 4 27 13 27 21 0 11 11 15 37 15 53 0 29 19 -30 24 -30 2
-45 -1 -44 -8 1 -6 -13 -12 -32 -14 -31 -3 -33 -2 -22 12 8 9 20 16 28 16 12
0 12 3 -1 16 -9 8 -16 19 -16 24 0 5 -15 8 -32 7 -18 -1 -49 2 -68 6 -21 4
-27 4 -16 -1 11 -5 15 -11 10 -15 -17 -10 -98 -5 -124 8 -39 19 -72 23 -107
14z"/>
<path d="M1450 3255 c-11 -13 -9 -15 15 -15 16 0 25 5 23 12 -7 19 -24 20 -38
3z"/>
<path d="M1948 3263 c7 -3 16 -2 19 1 4 3 -2 6 -13 5 -11 0 -14 -3 -6 -6z"/>
<path d="M2058 3264 c-11 -11 -10 -54 2 -54 5 0 7 -7 4 -15 -4 -9 0 -15 10
-15 18 0 21 11 7 26 -5 5 -11 22 -13 37 -2 16 -6 25 -10 21z"/>
<path d="M2114 3259 c-3 -6 -1 -16 5 -22 8 -8 11 -5 11 11 0 24 -5 28 -16 11z"/>
<path d="M875 3250 c-18 -8 -17 -9 8 -9 15 -1 27 4 27 9 0 12 -8 12 -35 0z"/>
<path d="M1345 3250 c-3 -5 1 -10 10 -10 9 0 13 5 10 10 -3 6 -8 10 -10 10 -2
0 -7 -4 -10 -10z"/>
<path d="M1500 3251 c0 -16 38 -23 87 -15 42 7 45 9 23 15 -37 10 -110 10
-110 0z"/>
<path d="M1701 3244 c0 -11 3 -14 6 -6 3 7 2 16 -1 19 -3 4 -6 -2 -5 -13z"/>
<path d="M3600 3255 c0 -3 9 -14 20 -25 14 -14 27 -18 50 -14 38 8 39 24 1 24
-17 0 -33 5 -36 10 -6 10 -35 14 -35 5z"/>
<path d="M1975 3230 c-3 -5 3 -10 14 -10 12 0 21 5 21 10 0 6 -6 10 -14 10 -8
0 -18 -4 -21 -10z"/>
<path d="M1780 3211 c0 -16 28 -33 35 -21 5 8 13 6 26 -6 15 -14 21 -14 34 -4
8 7 22 10 30 6 9 -3 15 0 15 9 0 12 -8 14 -40 9 -22 -4 -40 -2 -40 3 0 5 -13
10 -30 11 -16 1 -30 -2 -30 -7z"/>
<path d="M2738 3213 c7 -3 16 -2 19 1 4 3 -2 6 -13 5 -11 0 -14 -3 -6 -6z"/>
<path d="M1040 3200 c0 -5 5 -10 10 -10 6 0 10 5 10 10 0 6 -4 10 -10 10 -5 0
-10 -4 -10 -10z"/>
<path d="M1558 3195 c16 -12 26 -13 42 -5 29 16 25 20 -22 20 -41 0 -42 0 -20
-15z"/>
<path d="M2825 3200 c-4 -6 7 -10 27 -10 25 0 29 3 18 10 -19 13 -37 13 -45 0z"/>
<path d="M3113 3203 c-7 -2 -13 -9 -13 -15 0 -14 43 -6 48 10 4 12 -12 15 -35
5z"/>
<path d="M2116 3192 c-3 -6 -1 -14 5 -17 15 -10 25 3 12 16 -7 7 -13 7 -17 1z"/>
<path d="M3718 3166 c-52 -25 -53 -36 -1 -36 23 0 36 6 40 18 4 9 14 22 22 29
28 21 -9 15 -61 -11z"/>
<path d="M1255 3171 c-15 -6 -8 -9 30 -14 29 -4 53 -3 59 3 7 7 4 10 -9 10
-11 0 -29 2 -40 5 -11 2 -29 1 -40 -4z"/>
<path d="M2177 3173 c-12 -11 -8 -23 8 -23 8 0 15 7 15 15 0 16 -12 20 -23 8z"/>
<path d="M2349 3165 c-12 -12 -22 -14 -41 -6 -14 5 -36 7 -49 4 -20 -6 -16 -9
26 -19 31 -8 51 -10 53 -4 2 6 26 10 53 10 27 0 49 5 49 10 0 6 -11 10 -24 10
-13 0 -30 2 -38 5 -7 3 -20 -2 -29 -10z"/>
<path d="M2465 3169 c-13 -20 28 -39 75 -35 25 3 46 5 48 5 1 1 2 6 2 11 0 6
-23 10 -51 10 -31 0 -48 4 -44 10 3 6 -1 10 -9 10 -8 0 -18 -5 -21 -11z"/>
<path d="M1380 3160 c0 -5 7 -10 15 -10 8 0 15 5 15 10 0 6 -7 10 -15 10 -8 0
-15 -4 -15 -10z"/>
<path d="M2045 3160 c-7 -12 -8 -11 28 -16 18 -2 27 2 27 12 0 16 -45 20 -55
4z"/>
<path d="M2790 3160 c-18 -12 -20 -11 58 -15 34 -1 65 2 68 6 3 5 -15 9 -40 9
-24 0 -50 2 -58 5 -7 3 -20 0 -28 -5z"/>
<path d="M3905 3160 c-7 -12 32 -12 60 0 16 7 13 9 -17 9 -20 1 -40 -3 -43 -9z"/>
<path d="M4047 3154 c-9 -10 2 -24 19 -24 8 0 14 7 14 15 0 15 -21 21 -33 9z"/>
<path d="M2735 3140 c-3 -5 -1 -10 4 -10 6 0 11 5 11 10 0 6 -2 10 -4 10 -3 0
-8 -4 -11 -10z"/>
<path d="M3800 3123 c-37 -14 -76 -22 -91 -19 -35 7 -75 -4 -57 -15 17 -12 95
-11 102 0 3 5 33 12 66 16 33 4 57 11 54 16 -3 5 0 9 5 9 6 0 11 5 11 10 0 14
-16 11 -90 -17z"/>
<path d="M1678 3123 c7 -3 16 -2 19 1 4 3 -2 6 -13 5 -11 0 -14 -3 -6 -6z"/>
<path d="M3455 3120 c-19 -8 -19 -9 3 -9 12 -1 22 4 22 9 0 6 -1 10 -2 9 -2 0
-12 -4 -23 -9z"/>
<path d="M4285 3113 c-18 -14 -18 -15 -2 -9 10 3 23 6 28 6 5 0 9 5 9 10 0 14
-12 12 -35 -7z"/>
<path d="M3910 3109 c0 -14 19 -20 45 -13 37 9 30 25 -10 22 -19 -1 -35 -5
-35 -9z"/>
<path d="M2775 3100 c3 -5 13 -10 21 -10 8 0 14 5 14 10 0 6 -9 10 -21 10 -11
0 -17 -4 -14 -10z"/>
<path d="M3990 3089 c0 -5 1 -9 3 -9 2 0 53 -8 113 -17 60 -9 132 -18 159 -19
114 -6 221 -17 236 -25 25 -13 29 1 7 23 -18 18 -33 20 -112 20 -50 0 -118 6
-151 13 -77 17 -255 26 -255 14z"/>
<path d="M3498 3067 c31 -7 46 -7 54 1 9 9 -1 12 -42 11 l-55 -1 43 -11z"/>
<path d="M4525 3060 c-3 -5 -1 -10 4 -10 6 0 11 5 11 10 0 6 -2 10 -4 10 -3 0
-8 -4 -11 -10z"/>
<path d="M1865 3050 c3 -5 10 -10 16 -10 5 0 9 5 9 10 0 6 -7 10 -16 10 -8 0
-12 -4 -9 -10z"/>
<path d="M3422 3042 c-7 -2 -12 -8 -12 -13 0 -11 37 -11 65 0 17 7 16 9 -11
13 -17 2 -36 2 -42 0z"/>
<path d="M3613 3043 c-19 -7 -16 -23 5 -23 10 0 24 -6 31 -12 10 -11 10 -8 3
11 -9 27 -19 32 -39 24z"/>
<path d="M2653 3033 c9 -2 23 -2 30 0 6 3 -1 5 -18 5 -16 0 -22 -2 -12 -5z"/>
<path d="M3143 3033 c-24 -2 -43 -9 -43 -15 0 -6 12 -8 31 -4 17 3 42 6 55 6
13 0 24 5 24 10 0 6 -6 9 -12 8 -7 -1 -32 -3 -55 -5z"/>
<path d="M3235 3030 c-3 -5 1 -10 9 -10 9 0 16 5 16 10 0 6 -4 10 -9 10 -6 0
-13 -4 -16 -10z"/>
<path d="M3299 3030 c-11 -7 -10 -10 4 -16 10 -4 23 -2 28 3 14 14 -13 24 -32
13z"/>
<path d="M2390 3010 c0 -5 5 -10 10 -10 6 0 10 5 10 10 0 6 -4 10 -10 10 -5 0
-10 -4 -10 -10z"/>
<path d="M3970 2980 c-79 -7 -58 -11 62 -14 32 0 58 -4 58 -8 0 -5 7 -8 15 -8
12 0 23 29 13 30 -35 6 -88 5 -148 0z"/>
<path d="M4543 2973 c9 -2 23 -2 30 0 6 3 -1 5 -18 5 -16 0 -22 -2 -12 -5z"/>
<path d="M4650 2954 c0 -8 5 -12 10 -9 6 3 10 10 10 16 0 5 -4 9 -10 9 -5 0
-10 -7 -10 -16z"/>
<path d="M3745 2900 c-3 -5 1 -10 10 -10 9 0 13 5 10 10 -3 6 -8 10 -10 10 -2
0 -7 -4 -10 -10z"/>
<path d="M4107 2898 c-19 -11 44 -22 131 -23 59 0 82 -4 82 -13 0 -9 20 -11
78 -8 102 5 99 5 82 16 -8 6 -28 7 -43 4 -19 -4 -27 -2 -25 7 2 9 -13 14 -52
15 -30 1 -57 3 -60 4 -15 5 -184 4 -193 -2z"/>
<path d="M2600 2881 c0 -10 67 -8 77 3 3 3 -12 6 -35 6 -23 0 -42 -4 -42 -9z"/>
<path d="M3068 2873 c7 -3 16 -2 19 1 4 3 -2 6 -13 5 -11 0 -14 -3 -6 -6z"/>
<path d="M3535 2830 c3 -5 8 -10 11 -10 2 0 4 5 4 10 0 6 -5 10 -11 10 -5 0
-7 -4 -4 -10z"/>
<path d="M5433 2775 c-3 -9 -3 -19 1 -22 3 -4 6 -1 6 5 0 7 7 12 15 12 8 0 15
5 15 10 0 16 -30 12 -37 -5z"/>
<path d="M5687 2759 c-9 -6 -21 -8 -25 -5 -4 2 -29 0 -55 -5 -26 -4 -57 -5
-70 0 -13 5 -33 3 -50 -4 -30 -12 -26 -25 7 -26 20 0 20 -1 2 -8 -19 -7 -19
-8 -1 -14 12 -5 22 -1 32 13 19 27 37 25 57 -5 15 -22 22 -25 53 -19 25 5 38
3 45 -7 6 -10 7 -6 2 11 -4 14 -12 28 -18 32 -6 4 6 8 27 8 38 0 47 10 24 28
-8 7 -18 7 -30 1z"/>
<path d="M6213 2723 c-27 -10 -11 -23 27 -23 40 0 53 13 24 24 -18 7 -33 7
-51 -1z"/>
<path d="M6420 2714 l-25 -13 33 -1 c17 0 32 4 32 9 0 18 -15 19 -40 5z"/>
<path d="M5746 2692 c-2 -4 -1 -14 5 -22 7 -12 9 -10 9 8 0 23 -5 28 -14 14z"/>
<path d="M585 2670 c3 -5 10 -10 16 -10 5 0 9 5 9 10 0 6 -7 10 -16 10 -8 0
-12 -4 -9 -10z"/>
<path d="M5850 2660 c0 -5 4 -10 9 -10 6 0 13 5 16 10 3 6 -1 10 -9 10 -9 0
-16 -4 -16 -10z"/>
<path d="M6220 2660 c0 -5 5 -10 10 -10 6 0 10 5 10 10 0 6 -4 10 -10 10 -5 0
-10 -4 -10 -10z"/>
<path d="M6255 2660 c4 -6 11 -8 16 -5 14 9 11 15 -7 15 -8 0 -12 -5 -9 -10z"/>
<path d="M6313 2655 c0 -8 4 -12 9 -9 4 3 8 -2 8 -10 0 -9 5 -16 10 -16 14 0
13 23 -2 38 -16 16 -25 15 -25 -3z"/>
<path d="M5560 2641 c0 -17 17 -21 42 -12 25 11 25 11 -14 17 -16 3 -28 0 -28
-5z"/>
<path d="M5675 2641 c-22 -3 -35 -9 -30 -13 15 -9 96 3 89 13 -3 5 -8 8 -12 8
-4 -1 -25 -5 -47 -8z"/>
<path d="M6202 2630 c0 -14 2 -19 5 -12 2 6 2 18 0 25 -3 6 -5 1 -5 -13z"/>
<path d="M6250 2620 c-8 -5 -12 -11 -9 -14 7 -8 49 5 49 15 0 12 -21 11 -40
-1z"/>
<path d="M5580 2590 c0 -5 5 -10 10 -10 6 0 10 5 10 10 0 6 -4 10 -10 10 -5 0
-10 -4 -10 -10z"/>
<path d="M1148 2583 c7 -3 16 -2 19 1 4 3 -2 6 -13 5 -11 0 -14 -3 -6 -6z"/>
<path d="M5728 2563 c6 -2 18 -2 25 0 6 3 1 5 -13 5 -14 0 -19 -2 -12 -5z"/>
<path d="M5790 2560 c0 -5 5 -10 11 -10 5 0 7 5 4 10 -3 6 -8 10 -11 10 -2 0
-4 -4 -4 -10z"/>
<path d="M1280 2550 c-12 -8 -9 -10 13 -10 15 0 27 5 27 10 0 13 -20 13 -40 0z"/>
<path d="M1369 2549 c-10 -6 -7 -9 14 -9 29 0 35 5 14 13 -8 3 -20 1 -28 -4z"/>
<path d="M6175 2550 c3 -5 8 -10 11 -10 2 0 4 5 4 10 0 6 -5 10 -11 10 -5 0
-7 -4 -4 -10z"/>
<path d="M6545 2550 c-3 -5 -1 -10 4 -10 6 0 11 5 11 10 0 6 -2 10 -4 10 -3 0
-8 -4 -11 -10z"/>
<path d="M655 2539 c-16 -6 -14 -8 13 -8 33 -1 41 4 20 12 -7 2 -22 1 -33 -4z"/>
<path d="M6755 2542 c-3 -4 -34 -9 -68 -12 -35 -3 -60 -9 -58 -15 1 -5 8 -8
15 -6 17 5 97 13 135 12 36 0 36 1 5 17 -12 6 -25 8 -29 4z"/>
<path d="M6825 2540 c-3 -5 3 -10 15 -10 12 0 18 5 15 10 -3 6 -10 10 -15 10
-5 0 -12 -4 -15 -10z"/>
<path d="M110 2530 c0 -5 7 -10 16 -10 8 0 12 5 9 10 -3 6 -10 10 -16 10 -5 0
-9 -4 -9 -10z"/>
<path d="M150 2532 c0 -11 48 -13 55 -2 4 6 -7 10 -24 10 -17 0 -31 -4 -31 -8z"/>
<path d="M225 2530 c3 -5 13 -10 21 -10 8 0 14 5 14 10 0 6 -9 10 -21 10 -11
0 -17 -4 -14 -10z"/>
<path d="M280 2530 c0 -5 9 -10 21 -10 11 0 17 5 14 10 -3 6 -13 10 -21 10 -8
0 -14 -4 -14 -10z"/>
<path d="M898 2533 c7 -3 16 -2 19 1 4 3 -2 6 -13 5 -11 0 -14 -3 -6 -6z"/>
<path d="M6345 2530 c-4 -6 5 -10 20 -10 15 0 24 4 20 10 -3 6 -12 10 -20 10
-8 0 -17 -4 -20 -10z"/>
<path d="M6438 2533 c-16 -2 -28 -8 -28 -13 0 -12 113 -5 118 9 4 11 -32 13
-90 4z"/>
<path d="M768 2523 c7 -3 16 -2 19 1 4 3 -2 6 -13 5 -11 0 -14 -3 -6 -6z"/>
<path d="M7325 2519 c-4 -6 -5 -12 -2 -15 7 -7 37 7 37 17 0 13 -27 11 -35 -2z"/>
<path d="M7435 2510 c-3 -5 -1 -10 4 -10 6 0 11 5 11 10 0 6 -2 10 -4 10 -3 0
-8 -4 -11 -10z"/>
<path d="M7560 2500 c0 -5 5 -10 10 -10 6 0 10 5 10 10 0 6 -4 10 -10 10 -5 0
-10 -4 -10 -10z"/>
<path d="M7605 2500 c-4 -6 7 -10 24 -10 17 0 31 5 31 10 0 6 -11 10 -24 10
-14 0 -28 -4 -31 -10z"/>
<path d="M7708 2493 c6 -2 18 -2 25 0 6 3 1 5 -13 5 -14 0 -19 -2 -12 -5z"/>
<path d="M6396 2477 c3 -10 9 -15 12 -12 3 3 0 11 -7 18 -10 9 -11 8 -5 -6z"/>
<path d="M6435 2480 c-7 -11 9 -11 45 0 24 8 24 8 -7 9 -17 1 -35 -3 -38 -9z"/>
<path d="M6575 2480 c-3 -5 1 -10 10 -10 9 0 13 5 10 10 -3 6 -8 10 -10 10 -2
0 -7 -4 -10 -10z"/>
<path d="M6622 2478 c6 -18 28 -21 28 -4 0 9 -7 16 -16 16 -9 0 -14 -5 -12
-12z"/>
<path d="M6672 2481 c2 -7 7 -12 11 -12 12 1 9 15 -3 20 -7 2 -11 -2 -8 -8z"/>
<path d="M6758 2483 c7 -3 16 -2 19 1 4 3 -2 6 -13 5 -11 0 -14 -3 -6 -6z"/>
<path d="M5730 2470 c0 -5 7 -10 15 -10 8 0 15 5 15 10 0 6 -7 10 -15 10 -8 0
-15 -4 -15 -10z"/>
<path d="M6080 2464 c0 -8 5 -12 10 -9 6 4 8 11 5 16 -9 14 -15 11 -15 -7z"/>
<path d="M8055 2440 c-3 -5 1 -10 9 -10 9 0 16 5 16 10 0 6 -4 10 -9 10 -6 0
-13 -4 -16 -10z"/>
<path d="M7710 2430 c0 -5 5 -10 10 -10 6 0 10 5 10 10 0 6 -4 10 -10 10 -5 0
-10 -4 -10 -10z"/>
<path d="M4556 2411 c-3 -5 -26 -12 -51 -15 -25 -4 -45 -12 -45 -17 0 -5 -10
-13 -22 -18 -20 -7 -19 -9 11 -13 25 -4 38 0 50 14 8 10 25 18 36 18 21 0 45
17 45 32 0 11 -17 10 -24 -1z"/>
<path d="M6650 2410 c19 -13 30 -13 30 0 0 6 -10 10 -22 10 -19 0 -20 -2 -8
-10z"/>
<path d="M6758 2403 c7 -3 16 -2 19 1 4 3 -2 6 -13 5 -11 0 -14 -3 -6 -6z"/>
<path d="M3090 2380 c0 -5 9 -10 21 -10 11 0 17 5 14 10 -3 6 -13 10 -21 10
-8 0 -14 -4 -14 -10z"/>
<path d="M3235 2380 c-3 -5 1 -10 9 -10 9 0 16 5 16 10 0 6 -4 10 -9 10 -6 0
-13 -4 -16 -10z"/>
<path d="M6815 2380 c-3 -5 -1 -10 4 -10 6 0 11 5 11 10 0 6 -2 10 -4 10 -3 0
-8 -4 -11 -10z"/>
<path d="M7345 2370 c-3 -5 -1 -10 4 -10 6 0 11 5 11 10 0 6 -2 10 -4 10 -3 0
-8 -4 -11 -10z"/>
<path d="M7558 2373 c7 -3 16 -2 19 1 4 3 -2 6 -13 5 -11 0 -14 -3 -6 -6z"/>
<path d="M4105 2360 c-3 -5 3 -10 14 -10 12 0 21 5 21 10 0 6 -6 10 -14 10 -8
0 -18 -4 -21 -10z"/>
<path d="M4898 2363 c12 -2 32 -2 45 0 12 2 2 4 -23 4 -25 0 -35 -2 -22 -4z"/>
<path d="M920 2346 c0 -9 5 -16 10 -16 6 0 10 4 10 9 0 6 -4 13 -10 16 -5 3
-10 -1 -10 -9z"/>
<path d="M1160 2350 c0 -5 5 -10 11 -10 5 0 7 5 4 10 -3 6 -8 10 -11 10 -2 0
-4 -4 -4 -10z"/>
<path d="M1335 2350 c-18 -8 -17 -9 8 -9 16 -1 26 3 22 9 -3 6 -7 10 -8 9 -1
0 -11 -4 -22 -9z"/>
<path d="M515 2340 c-3 -5 -1 -10 4 -10 6 0 11 5 11 10 0 6 -2 10 -4 10 -3 0
-8 -4 -11 -10z"/>
<path d="M1258 2343 c7 -3 16 -2 19 1 4 3 -2 6 -13 5 -11 0 -14 -3 -6 -6z"/>
<path d="M0 2329 c0 -5 5 -7 10 -4 5 3 10 8 10 11 0 2 -4 4 -10 4 -5 0 -10 -5
-10 -11z"/>
<path d="M50 2330 c0 -5 7 -10 16 -10 8 0 12 5 9 10 -3 6 -10 10 -16 10 -5 0
-9 -4 -9 -10z"/>
<path d="M110 2330 c0 -13 20 -13 40 0 12 8 9 10 -12 10 -16 0 -28 -4 -28 -10z"/>
<path d="M378 2328 c9 -9 15 -9 24 0 9 9 7 12 -12 12 -19 0 -21 -3 -12 -12z"/>
<path d="M645 2330 c3 -5 14 -10 23 -10 15 0 15 2 2 10 -20 13 -33 13 -25 0z"/>
<path d="M2237 2329 c7 -7 15 -10 18 -7 3 3 -2 9 -12 12 -14 6 -15 5 -6 -5z"/>
<path d="M4010 2330 c-12 -7 -12 -12 -2 -22 9 -9 15 -9 24 0 16 16 -2 34 -22
22z"/>
<path d="M8178 2333 c7 -3 16 -2 19 1 4 3 -2 6 -13 5 -11 0 -14 -3 -6 -6z"/>
<path d="M8243 2333 c9 -2 23 -2 30 0 6 3 -1 5 -18 5 -16 0 -22 -2 -12 -5z"/>
<path d="M1550 2323 c-8 -3 -24 -8 -35 -13 -11 -5 -27 -11 -35 -13 -8 -3 15
-4 51 -3 64 3 89 9 89 25 0 8 -45 10 -70 4z"/>
<path d="M4360 2319 c0 -5 5 -7 10 -4 6 3 10 8 10 11 0 2 -4 4 -10 4 -5 0 -10
-5 -10 -11z"/>
<path d="M7805 2320 c28 -4 54 -3 60 1 5 5 -16 8 -50 8 l-60 -2 50 -7z"/>
<path d="M7920 2320 c0 -5 9 -10 21 -10 11 0 17 5 14 10 -3 6 -13 10 -21 10
-8 0 -14 -4 -14 -10z"/>
<path d="M1266 2311 c-3 -5 1 -11 9 -14 9 -4 12 -1 8 9 -6 16 -10 17 -17 5z"/>
<path d="M1676 2312 c-9 -15 50 -25 71 -13 17 9 17 10 -2 10 -11 -1 -30 2 -41
6 -12 4 -25 2 -28 -3z"/>
<path d="M4797 2313 c-4 -3 -7 -11 -7 -17 0 -6 5 -5 12 2 6 6 9 14 7 17 -3 3
-9 2 -12 -2z"/>
<path d="M1420 2300 c0 -5 5 -10 10 -10 6 0 10 5 10 10 0 6 -4 10 -10 10 -5 0
-10 -4 -10 -10z"/>
<path d="M1150 2290 c0 -5 9 -10 21 -10 11 0 17 5 14 10 -3 6 -13 10 -21 10
-8 0 -14 -4 -14 -10z"/>
<path d="M4728 2293 c7 -3 16 -2 19 1 4 3 -2 6 -13 5 -11 0 -14 -3 -6 -6z"/>
<path d="M180 2280 c0 -5 5 -10 10 -10 6 0 10 5 10 10 0 6 -4 10 -10 10 -5 0
-10 -4 -10 -10z"/>
<path d="M840 2280 c20 -13 70 -13 70 0 0 6 -19 10 -42 10 -32 0 -39 -3 -28
-10z"/>
<path d="M1228 2283 c7 -3 16 -2 19 1 4 3 -2 6 -13 5 -11 0 -14 -3 -6 -6z"/>
<path d="M4513 2283 c9 -2 23 -2 30 0 6 3 -1 5 -18 5 -16 0 -22 -2 -12 -5z"/>
<path d="M0 2265 c0 -12 5 -13 18 -7 9 5 24 12 32 15 8 3 0 6 -17 6 -23 1 -33
-4 -33 -14z"/>
<path d="M123 2273 c9 -2 23 -2 30 0 6 3 -1 5 -18 5 -16 0 -22 -2 -12 -5z"/>
<path d="M4260 2270 c0 -5 9 -10 21 -10 11 0 17 5 14 10 -3 6 -13 10 -21 10
-8 0 -14 -4 -14 -10z"/>
<path d="M1610 2255 c-9 -11 -6 -14 19 -13 36 1 38 4 12 17 -14 8 -22 7 -31
-4z"/>
<path d="M1906 2261 c-17 -6 -17 -8 -3 -14 8 -3 21 1 27 9 13 15 6 17 -24 5z"/>
<path d="M1968 2263 c6 -2 18 -2 25 0 6 3 1 5 -13 5 -14 0 -19 -2 -12 -5z"/>
<path d="M4178 2253 c6 -2 18 -2 25 0 6 3 1 5 -13 5 -14 0 -19 -2 -12 -5z"/>
<path d="M5093 2253 c9 -2 23 -2 30 0 6 3 -1 5 -18 5 -16 0 -22 -2 -12 -5z"/>
<path d="M1198 2243 c7 -3 16 -2 19 1 4 3 -2 6 -13 5 -11 0 -14 -3 -6 -6z"/>
<path d="M1485 2240 c4 -6 11 -8 16 -5 14 9 11 15 -7 15 -8 0 -12 -5 -9 -10z"/>
<path d="M1520 2241 c0 -5 7 -11 15 -15 9 -3 15 0 15 9 0 8 -7 15 -15 15 -8 0
-15 -4 -15 -9z"/>
<path d="M4127 2235 c6 -17 25 -15 31 3 2 7 -5 12 -17 12 -14 0 -19 -5 -14
-15z"/>
<path d="M365 2230 c-3 -5 3 -10 14 -10 12 0 21 5 21 10 0 6 -6 10 -14 10 -8
0 -18 -4 -21 -10z"/>
<path d="M1878 2220 c-81 -10 -65 -20 30 -20 51 0 92 4 92 9 0 12 -63 17 -122
11z"/>
<path d="M2303 2223 c9 -2 25 -2 35 0 9 3 1 5 -18 5 -19 0 -27 -2 -17 -5z"/>
<path d="M2373 2219 c11 -7 23 -7 35 0 14 9 11 10 -18 10 -29 0 -32 -1 -17
-10z"/>
<path d="M4310 2219 c-31 -6 -30 -6 18 -8 28 0 52 1 52 3 0 8 -37 11 -70 5z"/>
<path d="M4527 2219 c7 -7 21 -7 44 -1 l34 10 -44 1 c-32 1 -42 -2 -34 -10z"/>
<path d="M2140 2211 c0 -10 26 -9 36 2 4 4 -2 7 -14 7 -12 0 -22 -4 -22 -9z"/>
<path d="M5 2200 c-4 -7 -3 -16 3 -22 14 -14 45 -2 40 15 -6 16 -34 21 -43 7z"/>
<path d="M95 2200 c-4 -6 -10 -8 -15 -5 -15 9 -23 -16 -9 -29 11 -9 20 -6 43
16 26 26 27 28 8 28 -12 0 -24 -5 -27 -10z"/>
<path d="M1600 2201 c0 -5 6 -11 13 -13 17 -7 38 2 31 13 -7 12 -44 12 -44 0z"/>
<path d="M1673 2198 c-2 -5 9 -8 26 -8 16 0 32 4 35 9 3 4 -8 8 -25 7 -17 -1
-33 -4 -36 -8z"/>
<path d="M1250 2190 c0 -5 9 -10 19 -10 11 0 23 5 26 10 4 6 -5 10 -19 10 -14
0 -26 -4 -26 -10z"/>
<path d="M1473 2193 c9 -2 25 -2 35 0 9 3 1 5 -18 5 -19 0 -27 -2 -17 -5z"/>
<path d="M2768 2193 c7 -3 16 -2 19 1 4 3 -2 6 -13 5 -11 0 -14 -3 -6 -6z"/>
<path d="M3795 2190 c-3 -5 1 -10 9 -10 9 0 16 5 16 10 0 6 -4 10 -9 10 -6 0
-13 -4 -16 -10z"/>
<path d="M800 2169 c0 -5 5 -7 10 -4 6 3 10 8 10 11 0 2 -4 4 -10 4 -5 0 -10
-5 -10 -11z"/>
<path d="M2225 2170 c-4 -6 5 -10 20 -10 15 0 24 4 20 10 -3 6 -12 10 -20 10
-8 0 -17 -4 -20 -10z"/>
<path d="M3720 2170 c0 -5 11 -10 24 -10 14 0 28 5 31 10 4 6 -7 10 -24 10
-17 0 -31 -4 -31 -10z"/>
<path d="M1865 2161 c-11 -4 -45 -9 -75 -10 -78 -4 -100 -20 -30 -22 76 -2
152 0 157 4 2 2 1 12 -3 21 -7 17 -18 19 -49 7z"/>
<path d="M2086 2154 c-9 -22 -8 -24 9 -24 8 0 15 7 15 15 0 20 17 19 29 -2 9
-16 10 -16 11 5 0 18 -6 22 -29 22 -17 0 -31 -6 -35 -16z"/>
<path d="M2165 2160 c-3 -5 3 -10 14 -10 12 0 21 5 21 10 0 6 -6 10 -14 10 -8
0 -18 -4 -21 -10z"/>
<path d="M2540 2159 c0 -5 5 -7 10 -4 6 3 10 8 10 11 0 2 -4 4 -10 4 -5 0 -10
-5 -10 -11z"/>
<path d="M1977 2154 c-14 -14 -7 -24 17 -24 14 0 28 5 31 10 3 6 2 10 -4 10
-5 0 -16 2 -23 5 -8 3 -17 2 -21 -1z"/>
<path d="M3540 2150 c0 -5 4 -10 9 -10 6 0 13 5 16 10 3 6 -1 10 -9 10 -9 0
-16 -4 -16 -10z"/>
<path d="M420 2140 c0 -5 4 -10 9 -10 6 0 13 5 16 10 3 6 -1 10 -9 10 -9 0
-16 -4 -16 -10z"/>
<path d="M465 2140 c3 -5 8 -10 11 -10 2 0 4 5 4 10 0 6 -5 10 -11 10 -5 0 -7
-4 -4 -10z"/>
<path d="M1225 2139 c-10 -16 3 -23 18 -10 8 6 21 9 30 5 8 -3 18 -1 22 5 4 7
-7 11 -29 11 -19 0 -38 -5 -41 -11z"/>
<path d="M1488 2138 c9 -9 15 -9 24 0 9 9 7 12 -12 12 -19 0 -21 -3 -12 -12z"/>
<path d="M1665 2140 c-4 -6 3 -10 14 -10 25 0 27 6 6 13 -8 4 -17 2 -20 -3z"/>
<path d="M1935 2140 c-3 -5 -1 -10 4 -10 6 0 11 5 11 10 0 6 -2 10 -4 10 -3 0
-8 -4 -11 -10z"/>
<path d="M1120 2130 c0 -5 18 -10 40 -10 22 0 40 5 40 10 0 6 -18 10 -40 10
-22 0 -40 -4 -40 -10z"/>
<path d="M960 2122 c0 -7 -5 -11 -11 -9 -6 1 -14 -4 -16 -10 -3 -7 2 -13 10
-13 15 0 32 29 22 38 -3 3 -5 0 -5 -6z"/>
<path d="M1033 2108 c7 -10 13 -14 15 -8 2 5 13 10 23 10 11 0 18 4 14 9 -3 5
-18 9 -34 9 -26 -1 -28 -3 -18 -20z"/>
<path d="M5688 2123 c7 -3 16 -2 19 1 4 3 -2 6 -13 5 -11 0 -14 -3 -6 -6z"/>
<path d="M2252 2108 c5 -13 68 -31 68 -19 0 7 -49 31 -63 31 -5 0 -7 -6 -5
-12z"/>
<path d="M4495 2110 c4 -6 11 -8 16 -5 14 9 11 15 -7 15 -8 0 -12 -5 -9 -10z"/>
<path d="M5030 2110 c0 -5 5 -10 10 -10 6 0 10 5 10 10 0 6 -4 10 -10 10 -5 0
-10 -4 -10 -10z"/>
<path d="M5300 2110 c-12 -8 -10 -10 8 -10 13 0 20 4 17 10 -7 12 -6 12 -25 0z"/>
<path d="M6200 2108 c0 -5 12 -14 28 -20 15 -7 38 -21 52 -33 14 -12 44 -27
68 -34 23 -6 42 -17 42 -24 0 -9 2 -9 8 1 6 8 13 1 22 -23 8 -19 17 -35 22
-35 4 0 5 7 1 16 -5 13 0 15 22 12 53 -6 39 21 -27 52 -34 16 -86 42 -114 58
-49 29 -124 46 -124 30z"/>
<path d="M2194 2090 c-22 -22 -119 -51 -143 -43 -13 5 -13 3 -4 -7 8 -9 43
-12 117 -11 58 0 107 -3 110 -7 7 -13 71 -13 102 -2 45 18 10 30 -78 27 -82
-2 -98 4 -78 28 21 25 -2 38 -26 15z"/>
<path d="M2335 2093 c3 -8 5 -17 5 -19 0 -3 6 -2 13 3 6 4 41 8 77 9 94 2 80
17 -18 19 -68 1 -82 -1 -77 -12z"/>
<path d="M5360 2099 c0 -5 5 -7 10 -4 6 3 10 8 10 11 0 2 -4 4 -10 4 -5 0 -10
-5 -10 -11z"/>
<path d="M1777 2092 c-53 -5 -42 -27 13 -27 24 0 45 5 47 11 5 15 -14 20 -60
16z"/>
<path d="M1878 2093 c-62 -9 -22 -18 74 -16 57 1 127 2 157 2 30 1 52 4 48 7
-7 7 -238 13 -279 7z"/>
<path d="M2530 2091 c0 -6 5 -13 10 -16 6 -3 10 1 10 9 0 9 -4 16 -10 16 -5 0
-10 -4 -10 -9z"/>
<path d="M8047 2088 c6 -11 31 -10 37 1 3 5 -5 8 -18 7 -13 0 -22 -4 -19 -8z"/>
<path d="M4730 2070 c-7 -4 -8 -10 -4 -12 11 -7 52 -4 59 4 9 9 -42 16 -55 8z"/>
<path d="M2485 2049 c-9 -14 -2 -20 14 -10 8 6 9 11 3 15 -6 3 -14 1 -17 -5z"/>
<path d="M2848 2053 c6 -2 18 -2 25 0 6 3 1 5 -13 5 -14 0 -19 -2 -12 -5z"/>
<path d="M3005 2050 c-18 -8 -17 -9 8 -9 15 -1 27 4 27 9 0 12 -8 12 -35 0z"/>
<path d="M5346 2051 c-3 -5 1 -12 10 -15 20 -8 29 -1 19 13 -8 13 -22 14 -29
2z"/>
<path d="M2410 2040 c0 -5 5 -10 10 -10 6 0 10 5 10 10 0 6 -4 10 -10 10 -5 0
-10 -4 -10 -10z"/>
<path d="M2450 2040 c0 -5 5 -10 10 -10 6 0 10 5 10 10 0 6 -4 10 -10 10 -5 0
-10 -4 -10 -10z"/>
<path d="M3217 2043 c-4 -3 -7 -12 -7 -20 0 -11 4 -11 20 -3 11 6 18 15 15 21
-7 11 -19 12 -28 2z"/>
<path d="M1667 2034 c-6 -10 9 -42 16 -34 3 3 1 14 -3 24 -3 11 -9 15 -13 10z"/>
<path d="M1700 2030 c0 -5 5 -10 10 -10 6 0 10 5 10 10 0 6 -4 10 -10 10 -5 0
-10 -4 -10 -10z"/>
<path d="M3145 2030 c-11 -17 3 -28 30 -22 28 5 33 17 9 26 -22 8 -32 8 -39
-4z"/>
<path d="M8070 2030 c0 -13 20 -13 40 0 12 8 9 10 -12 10 -16 0 -28 -4 -28
-10z"/>
<path d="M4140 2020 c0 -5 5 -10 10 -10 6 0 10 5 10 10 0 6 -4 10 -10 10 -5 0
-10 -4 -10 -10z"/>
<path d="M3008 2012 c-16 -2 -28 -8 -28 -13 0 -13 57 -11 66 2 4 6 19 9 36 5
18 -4 27 -2 23 4 -6 10 -27 10 -97 2z"/>
<path d="M3800 2011 c0 -16 17 -21 49 -15 44 9 38 24 -9 24 -22 0 -40 -4 -40
-9z"/>
<path d="M4058 2013 c6 -2 18 -2 25 0 6 3 1 5 -13 5 -14 0 -19 -2 -12 -5z"/>
<path d="M7715 2013 c-55 -10 -65 -14 -65 -23 0 -6 7 -10 15 -10 8 0 15 5 15
10 0 6 27 10 61 10 33 0 58 4 55 8 -6 9 -47 12 -81 5z"/>
<path d="M4513 2003 c9 -2 25 -2 35 0 9 3 1 5 -18 5 -19 0 -27 -2 -17 -5z"/>
<path d="M5645 2000 c3 -5 8 -10 11 -10 2 0 4 5 4 10 0 6 -5 10 -11 10 -5 0
-7 -4 -4 -10z"/>
<path d="M6636 1995 c-3 -8 -1 -15 4 -15 13 0 22 18 11 24 -5 3 -11 -1 -15 -9z"/>
<path d="M6680 1999 c0 -5 5 -7 10 -4 6 3 10 8 10 11 0 2 -4 4 -10 4 -5 0 -10
-5 -10 -11z"/>
<path d="M7586 2001 c-4 -5 -41 -9 -84 -9 -136 1 -134 1 -127 -24 8 -27 34
-50 47 -42 5 3 4 12 -3 20 -17 20 -11 22 54 15 44 -6 61 -4 69 7 8 9 22 12 41
8 29 -6 57 7 57 25 0 12 -47 12 -54 0z"/>
<path d="M6888 1993 c7 -3 16 -2 19 1 4 3 -2 6 -13 5 -11 0 -14 -3 -6 -6z"/>
<path d="M4428 1983 c7 -3 16 -2 19 1 4 3 -2 6 -13 5 -11 0 -14 -3 -6 -6z"/>
<path d="M4905 1980 c-28 -7 -27 -8 13 -9 27 -1 41 3 37 9 -7 11 -7 11 -50 0z"/>
<path d="M6750 1980 c0 -5 7 -10 15 -10 8 0 15 5 15 10 0 6 -7 10 -15 10 -8 0
-15 -4 -15 -10z"/>
<path d="M3160 1971 c0 -6 5 -13 10 -16 6 -3 10 1 10 9 0 9 -4 16 -10 16 -5 0
-10 -4 -10 -9z"/>
<path d="M4347 1959 c-9 -5 -22 -7 -27 -4 -6 3 -7 -1 -4 -9 5 -13 -1 -16 -30
-16 -20 0 -36 -4 -36 -10 0 -10 2 -11 48 -15 15 -1 47 -6 72 -10 44 -8 44 -8
25 11 -19 19 -18 19 14 22 l32 3 -25 20 c-27 21 -43 23 -69 8z"/>
<path d="M4457 1963 c-15 -14 -6 -24 20 -21 34 4 43 28 11 28 -14 0 -28 -3
-31 -7z"/>
<path d="M4611 1954 c13 -16 29 -19 29 -5 0 5 -9 11 -21 14 -16 4 -18 3 -8 -9z"/>
<path d="M5268 1953 c7 -3 16 -2 19 1 4 3 -2 6 -13 5 -11 0 -14 -3 -6 -6z"/>
<path d="M7655 1950 c3 -5 11 -10 16 -10 6 0 7 5 4 10 -3 6 -11 10 -16 10 -6
0 -7 -4 -4 -10z"/>
<path d="M4890 1940 c0 -5 5 -10 11 -10 5 0 7 5 4 10 -3 6 -8 10 -11 10 -2 0
-4 -4 -4 -10z"/>
<path d="M5420 1940 c0 -5 12 -10 28 -10 21 0 24 2 12 10 -20 13 -40 13 -40 0z"/>
<path d="M6020 1940 c0 -5 5 -10 11 -10 5 0 7 5 4 10 -3 6 -8 10 -11 10 -2 0
-4 -4 -4 -10z"/>
<path d="M6634 1938 c-3 -4 0 -8 6 -8 7 0 10 -6 7 -14 -6 -15 28 -66 44 -66
16 0 9 21 -13 40 l-22 18 32 7 c18 3 32 11 32 16 0 17 -76 24 -86 7z"/>
<path d="M8205 1940 c-3 -5 1 -10 9 -10 9 0 16 5 16 10 0 6 -4 10 -9 10 -6 0
-13 -4 -16 -10z"/>
<path d="M8255 1940 c-19 -8 -19 -9 3 -9 12 -1 22 4 22 9 0 6 -1 10 -2 9 -2 0
-12 -4 -23 -9z"/>
<path d="M6740 1931 c0 -13 55 -24 80 -16 37 12 21 25 -30 25 -27 0 -50 -4
-50 -9z"/>
<path d="M4950 1915 c0 -8 -7 -15 -15 -15 -8 0 -15 -4 -15 -10 0 -5 9 -10 20
-10 15 0 20 7 20 25 0 14 -2 25 -5 25 -3 0 -5 -7 -5 -15z"/>
<path d="M5752 1921 c-27 -5 -41 -15 -29 -23 7 -5 87 14 92 22 7 11 -10 11
-63 1z"/>
<path d="M7460 1920 c0 -5 7 -10 15 -10 8 0 15 5 15 10 0 6 -7 10 -15 10 -8 0
-15 -4 -15 -10z"/>
<path d="M7560 1920 c0 -5 7 -10 15 -10 8 0 15 5 15 10 0 6 -7 10 -15 10 -8 0
-15 -4 -15 -10z"/>
<path d="M5295 1909 c-10 -15 3 -25 16 -12 7 7 7 13 1 17 -6 3 -14 1 -17 -5z"/>
<path d="M8000 1910 c0 -12 28 -21 35 -11 2 5 -4 11 -15 14 -11 3 -20 2 -20
-3z"/>
<path d="M8050 1916 c0 -2 7 -9 15 -16 12 -10 15 -10 15 4 0 9 -7 16 -15 16
-8 0 -15 -2 -15 -4z"/>
<path d="M8125 1909 c-4 -5 3 -9 14 -9 26 0 35 15 11 17 -11 1 -22 -2 -25 -8z"/>
<path d="M4975 1900 c3 -5 8 -10 11 -10 2 0 4 5 4 10 0 6 -5 10 -11 10 -5 0
-7 -4 -4 -10z"/>
<path d="M5395 1899 c-37 -6 -36 -6 18 -8 31 0 57 1 57 3 0 8 -37 11 -75 5z"/>
<path d="M5568 1903 c7 -3 16 -2 19 1 4 3 -2 6 -13 5 -11 0 -14 -3 -6 -6z"/>
<path d="M7805 1896 c-63 -9 -81 -15 -83 -28 -4 -21 -13 -23 -30 -6 -9 9 -12
8 -12 -5 0 -22 65 -24 77 -2 6 10 32 16 83 20 40 3 76 7 78 10 7 7 -9 25 -21
24 -7 -1 -48 -7 -92 -13z"/>
<path d="M6000 1890 c0 -5 6 -10 14 -10 8 0 18 5 21 10 3 6 -3 10 -14 10 -12
0 -21 -4 -21 -10z"/>
<path d="M6765 1870 c-3 -5 3 -10 14 -10 12 0 21 5 21 10 0 6 -6 10 -14 10 -8
0 -18 -4 -21 -10z"/>
<path d="M6830 1870 c0 -5 6 -10 14 -10 8 0 18 5 21 10 3 6 -3 10 -14 10 -12
0 -21 -4 -21 -10z"/>
<path d="M7509 1874 c-1 -5 -1 -12 0 -16 0 -4 -12 -5 -28 -2 -16 3 -31 1 -35
-4 -8 -13 34 -38 43 -26 3 5 26 10 51 12 24 2 48 8 52 15 6 9 8 9 8 0 0 -7 4
-13 8 -13 4 0 8 9 8 20 0 23 -29 27 -48 6 -11 -11 -16 -11 -35 1 -13 9 -24 11
-24 7z"/>
<path d="M7645 1860 c-3 -5 1 -10 10 -10 9 0 13 5 10 10 -3 6 -8 10 -10 10 -2
0 -7 -4 -10 -10z"/>
<path d="M7948 1853 c7 -3 16 -2 19 1 4 3 -2 6 -13 5 -11 0 -14 -3 -6 -6z"/>
<path d="M6755 1820 c-3 -5 1 -10 10 -10 9 0 13 5 10 10 -3 6 -8 10 -10 10 -2
0 -7 -4 -10 -10z"/>
<path d="M7570 1800 c0 -17 12 -40 21 -40 5 0 9 7 9 15 0 10 10 15 31 15 16 0
28 4 24 9 -7 12 -85 12 -85 1z"/>
<path d="M7700 1800 c-27 -9 -28 -8 30 -14 12 -1 15 18 3 20 -4 1 -19 -2 -33
-6z"/>
<path d="M7891 1784 c0 -11 3 -14 6 -6 3 7 2 16 -1 19 -3 4 -6 -2 -5 -13z"/>
<path d="M8100 1674 c0 -8 5 -12 10 -9 6 3 10 10 10 16 0 5 -4 9 -10 9 -5 0
-10 -7 -10 -16z"/>
</g>
</svg>
