<svg id="svg" xmlns="http://www.w3.org/2000/svg" xmlns:xlink="http://www.w3.org/1999/xlink" width="400" height="575.3086419753087" viewBox="0, 0, 400,575.3086419753087"><g id="svgg"><path id="path0" d="M200.617 9.034 C 207.088 10.838,205.844 14.016,197.531 16.914 C 193.457 18.334,190.123 20.665,190.123 22.094 C 190.123 26.214,183.404 25.108,181.716 20.710 C 180.656 17.945,179.254 17.465,177.131 19.138 C 173.425 22.061,165.432 22.200,165.432 19.342 C 165.432 18.210,167.099 17.284,169.136 17.284 C 174.355 17.284,173.774 13.213,168.519 12.962 C 160.760 12.591,139.095 22.303,139.095 26.152 C 139.095 28.439,140.581 29.330,143.004 28.496 C 145.467 27.649,144.976 28.803,141.677 31.614 C 138.796 34.069,135.619 38.663,134.617 41.822 C 133.531 45.243,132.116 46.469,131.117 44.854 C 129.933 42.938,127.475 43.162,122.745 45.616 C 117.255 48.464,116.049 48.497,116.049 45.797 C 116.049 43.986,117.716 41.864,119.753 41.082 C 121.790 40.301,123.457 37.747,123.457 35.408 C 123.457 31.628,123.053 31.688,119.832 35.948 C 117.838 38.584,116.171 39.735,116.128 38.506 C 115.996 34.753,107.111 44.093,99.779 55.693 C 95.964 61.728,91.851 66.667,90.640 66.667 C 88.501 66.667,71.026 85.143,64.829 93.956 C 62.004 97.974,62.322 98.112,68.786 95.673 C 80.893 91.103,85.500 94.811,78.586 103.563 C 75.426 107.564,71.629 110.899,70.150 110.974 C 64.472 111.263,22.222 155.499,22.222 161.155 C 22.222 162.614,20.360 165.867,18.083 168.382 C 10.141 177.159,17.579 179.093,36.280 173.114 C 69.494 162.496,78.761 164.928,88.947 186.936 C 101.132 213.262,123.541 229.623,147.419 229.628 C 160.434 229.630,160.438 229.649,161.182 290.123 C 161.742 335.646,158.341 364.985,151.883 370.344 C 147.607 373.893,90.771 373.783,61.612 370.169 C 23.116 365.398,19.149 365.656,31.298 372.145 C 37.582 375.501,77.015 380.858,121.605 384.414 C 130.772 385.144,138.272 386.728,138.272 387.933 C 138.272 391.715,143.005 390.328,148.354 384.979 C 151.183 382.150,154.003 380.340,154.619 380.957 C 157.246 383.584,149.125 395.581,141.551 400.262 C 137.031 403.055,133.333 406.427,133.333 407.755 C 133.333 409.082,132.317 409.540,131.075 408.772 C 129.833 408.005,128.444 408.263,127.989 409.346 C 126.567 412.728,109.587 424.682,105.940 424.870 C 104.031 424.968,99.136 429.077,95.062 434.002 C 90.988 438.926,88.804 442.262,90.209 441.414 C 102.018 434.287,136.803 409.801,146.022 402.127 C 161.551 389.200,166.960 389.680,180.424 405.182 C 200.141 427.883,212.876 439.502,220.087 441.371 C 223.990 442.382,227.456 444.321,227.789 445.679 C 228.565 448.843,193.862 466.239,183.460 467.900 C 179.116 468.594,172.450 470.421,168.645 471.961 C 162.709 474.364,123.119 483.457,114.306 484.441 C 112.668 484.624,111.948 485.776,112.705 487.001 C 116.583 493.276,181.384 480.233,215.616 466.286 C 230.505 460.220,237.540 461.050,239.776 469.136 C 241.073 473.824,241.542 472.488,241.729 463.580 C 241.980 451.612,251.852 444.584,251.852 456.374 C 251.852 459.638,254.771 461.623,262.346 463.510 C 268.117 464.948,286.173 470.041,302.469 474.829 C 353.289 489.760,379.389 495.032,385.797 491.662 C 388.855 490.053,389.485 489.264,387.197 489.908 C 384.908 490.553,382.641 489.899,382.160 488.455 C 381.414 486.219,357.930 479.175,317.284 468.997 C 289.906 462.141,253.164 445.845,255.728 441.696 C 256.473 440.491,256.003 439.506,254.685 439.506 C 253.367 439.506,252.603 437.562,252.988 435.185 C 253.372 432.809,252.664 429.574,251.415 427.998 C 250.036 426.258,250.034 424.580,251.410 423.730 C 252.657 422.959,252.967 418.138,252.100 413.016 C 251.232 407.894,250.661 399.537,250.832 394.444 C 251.002 389.352,250.180 385.185,249.006 385.185 C 247.832 385.185,248.270 382.929,249.979 380.172 C 252.548 376.026,252.445 374.750,249.383 372.802 C 246.921 371.236,246.714 370.433,248.765 370.408 C 250.463 370.387,251.852 368.796,251.852 366.872 C 251.852 364.949,250.463 362.814,248.765 362.129 C 246.296 361.133,246.296 360.845,248.765 360.689 C 250.463 360.582,251.852 358.920,251.852 356.996 C 251.852 355.072,250.463 352.938,248.765 352.253 C 246.862 351.484,247.276 350.932,249.847 350.812 C 252.139 350.705,254.077 348.673,254.154 346.296 C 254.293 341.974,253.683 280.211,253.293 259.259 C 253.108 249.297,253.629 248.223,258.336 248.869 C 263.468 249.573,276.543 237.268,276.543 231.733 C 276.543 230.382,278.210 227.610,280.247 225.573 C 282.660 223.161,283.951 217.037,283.951 208.006 C 283.951 200.381,286.115 186.294,288.761 176.701 C 291.406 167.108,293.944 150.926,294.401 140.741 C 294.858 130.556,295.883 121.111,296.679 119.753 C 297.475 118.395,297.740 115.062,297.268 112.346 C 296.796 109.630,295.747 102.407,294.938 96.296 C 292.189 75.546,291.291 71.611,286.065 57.405 C 277.838 35.038,264.274 25.110,264.143 41.358 L 264.088 48.148 259.460 42.128 C 256.915 38.816,255.324 34.828,255.924 33.264 C 256.524 31.700,255.285 28.985,253.171 27.231 C 249.713 24.361,249.764 23.710,253.676 20.741 C 257.804 17.608,257.806 17.437,253.704 17.362 C 251.327 17.319,249.383 16.324,249.383 15.150 C 249.383 13.977,244.105 12.224,237.654 11.254 C 223.244 9.088,194.666 7.375,200.617 9.034 M241.975 19.753 C 244.970 21.689,244.616 22.154,240.123 22.184 C 237.068 22.205,234.568 21.111,234.568 19.753 C 234.568 16.659,237.188 16.659,241.975 19.753 M207.716 224.691 C 210.262 224.691,212.346 226.358,212.346 228.395 C 212.346 230.432,214.116 232.099,216.281 232.099 C 218.445 232.099,220.733 234.079,221.366 236.499 C 221.999 238.918,225.856 243.085,229.938 245.758 C 236.493 250.049,237.191 251.627,235.909 259.259 C 229.378 298.129,228.660 323.643,233.387 348.765 C 234.227 353.231,233.591 355.620,231.530 355.744 C 229.806 355.848,226.173 356.512,223.457 357.219 C 220.741 357.926,210.639 359.064,201.008 359.749 L 183.498 360.994 180.291 349.539 C 176.466 335.878,178.391 304.764,184.397 283.182 C 188.085 269.927,188.079 267.547,184.318 251.965 C 177.739 224.707,179.183 221.207,195.988 223.656 C 199.892 224.226,205.170 224.691,207.716 224.691 M235.221 411.079 C 233.493 424.517,224.766 435.407,224.661 424.255 C 224.644 422.458,220.244 416.265,214.883 410.494 C 204.784 399.620,196.412 396.538,198.114 404.321 C 198.633 406.698,200.104 408.597,201.381 408.541 C 202.659 408.486,209.259 413.750,216.049 420.240 L 228.395 432.039 220.731 432.069 C 210.592 432.108,195.915 418.027,183.537 396.385 C 171.652 375.606,179.196 366.475,207.597 367.262 C 215.281 367.475,224.771 366.789,228.685 365.737 L 235.802 363.826 236.462 380.061 C 236.825 388.990,236.267 402.948,235.221 411.079 M108.642 412.346 C 105.247 415.001,103.686 417.199,105.173 417.229 C 106.660 417.259,109.888 415.062,112.346 412.346 C 117.976 406.125,116.595 406.125,108.642 412.346 M73.319 450.695 C 69.509 454.047,64.787 456.790,62.825 456.790 C 60.864 456.790,59.259 458.272,59.259 460.082 C 59.259 461.893,60.877 463.374,62.854 463.374 C 64.832 463.374,65.877 462.449,65.178 461.317 C 64.478 460.185,65.361 459.229,67.138 459.193 C 68.916 459.156,74.259 455.853,79.012 451.852 C 84.069 447.595,86.118 444.582,83.951 444.589 C 81.914 444.595,77.129 447.343,73.319 450.695 M237.037 481.280 C 237.037 483.885,236.293 487.956,235.383 490.327 C 234.338 493.049,234.688 494.044,236.333 493.028 C 239.513 491.062,241.931 476.543,239.079 476.543 C 237.956 476.543,237.037 478.675,237.037 481.280 M234.999 507.716 C 234.762 511.960,233.983 519.182,233.267 523.765 C 232.077 531.395,232.191 531.585,234.618 526.014 C 236.076 522.668,236.856 515.445,236.350 509.965 C 235.602 501.861,235.350 501.441,234.999 507.716 M224.101 561.654 C 223.460 565.008,223.886 567.164,225.048 566.446 C 226.210 565.728,227.160 566.540,227.160 568.249 C 227.160 570.509,227.902 570.617,229.875 568.644 C 232.741 565.778,230.716 555.556,227.282 555.556 C 226.174 555.556,224.742 558.300,224.101 561.654 " stroke="none" fill="#000000" fill-rule="evenodd"></path></g></svg>